<ttFont>
<head>
    <!-- Most of this table will be recalculated by the compiler -->
    <tableVersion value="1.0"/>
    <fontRevision value="1.002"/>
    <checkSumAdjustment value="0x98af1390"/>
    <magicNumber value="0x5f0f3cf5"/>
    <flags value="00000000 00000011"/>
    <unitsPerEm value="1000"/>
    <created value="Sun Jan 10 02:32:45 2016"/>
    <modified value="Sun Jan 10 02:32:47 2016"/>
    <xMin value="-102"/>
    <yMin value="-292"/>
    <xMax value="993"/>
    <yMax value="1139"/>
    <macStyle value="00000000 00000000"/>
    <lowestRecPPEM value="6"/>
    <fontDirectionHint value="2"/>
    <indexToLocFormat value="0"/>
    <glyphDataFormat value="0"/>
  </head>
    <TTGlyph name=".notdef" xMin="0" yMin="-200" xMax="500" yMax="800">
      <contour>
        <pt x="0" y="-200" on="1"/>
        <pt x="0" y="800" on="1"/>
        <pt x="500" y="800" on="1"/>
        <pt x="500" y="-200" on="1"/>
      </contour>
      <contour>
        <pt x="71" y="750" on="1"/>
        <pt x="250" y="360" on="1"/>
        <pt x="429" y="750" on="1"/>
      </contour>
      <contour>
        <pt x="450" y="676" on="1"/>
        <pt x="278" y="300" on="1"/>
        <pt x="450" y="-76" on="1"/>
      </contour>
      <contour>
        <pt x="50" y="-76" on="1"/>
        <pt x="222" y="300" on="1"/>
        <pt x="50" y="676" on="1"/>
      </contour>
      <contour>
        <pt x="250" y="240" on="1"/>
        <pt x="71" y="-150" on="1"/>
        <pt x="429" y="-150" on="1"/>
      </contour>
    </TTGlyph>
    <TTGlyph name="A" xMin="25" yMin="-5" xMax="566" yMax="620">
      <contour>
        <pt x="447" y="-5" on="1"/>
        <pt x="435" y="39" on="0"/>
        <pt x="410" y="128" on="0"/>
        <pt x="397" y="173" on="1"/>
        <pt x="189" y="173" on="1"/>
        <pt x="176" y="130" on="0"/>
        <pt x="152" y="43" on="0"/>
        <pt x="140" y="0" on="1"/>
        <pt x="25" y="0" on="1"/>
        <pt x="69" y="154" on="0"/>
        <pt x="165" y="466" on="0"/>
        <pt x="216" y="620" on="1"/>
        <pt x="374" y="620" on="1"/>
        <pt x="425" y="466" on="0"/>
        <pt x="521" y="159" on="0"/>
        <pt x="566" y="5" on="1"/>
      </contour>
      <contour>
        <pt x="289" y="511" on="1"/>
        <pt x="270" y="450" on="0"/>
        <pt x="233" y="325" on="0"/>
        <pt x="215" y="264" on="1"/>
        <pt x="370" y="264" on="1"/>
        <pt x="352" y="325" on="0"/>
        <pt x="315" y="450" on="0"/>
        <pt x="296" y="511" on="1"/>
      </contour>
    </TTGlyph>
    <TTGlyph name="A.sc" xMin="24" yMin="-4" xMax="520" yMax="530">
      <contour>
        <pt x="403" y="-4" on="1"/>
        <pt x="393" y="32" on="0"/>
        <pt x="371" y="105" on="0"/>
        <pt x="361" y="142" on="1"/>
        <pt x="178" y="142" on="1"/>
        <pt x="168" y="107" on="0"/>
        <pt x="147" y="35" on="0"/>
        <pt x="137" y="0" on="1"/>
        <pt x="24" y="0" on="1"/>
        <pt x="64" y="131" on="0"/>
        <pt x="148" y="399" on="0"/>
        <pt x="194" y="530" on="1"/>
        <pt x="349" y="530" on="1"/>
        <pt x="394" y="399" on="0"/>
        <pt x="480" y="135" on="0"/>
        <pt x="520" y="4" on="1"/>
      </contour>
      <contour>
        <pt x="265" y="431" on="1"/>
        <pt x="249" y="380" on="0"/>
        <pt x="217" y="275" on="0"/>
        <pt x="202" y="224" on="1"/>
        <pt x="336" y="224" on="1"/>
        <pt x="320" y="275" on="0"/>
        <pt x="289" y="380" on="0"/>
        <pt x="273" y="431" on="1"/>
      </contour>
    </TTGlyph>
    <TTGlyph name="AE" xMin="-10" yMin="0" xMax="760" yMax="620">
      <contour>
        <pt x="381" y="515" on="1"/>
        <pt x="346" y="450" on="0"/>
        <pt x="276" y="319" on="0"/>
        <pt x="242" y="254" on="1"/>
        <pt x="388" y="254" on="1"/>
        <pt x="388" y="515" on="1"/>
      </contour>
      <contour>
        <pt x="388" y="0" on="1"/>
        <pt x="388" y="163" on="1"/>
        <pt x="194" y="163" on="1"/>
        <pt x="173" y="123" on="0"/>
        <pt x="131" y="40" on="0"/>
        <pt x="110" y="0" on="1"/>
        <pt x="-10" y="0" on="1"/>
        <pt x="71" y="154" on="0"/>
        <pt x="240" y="467" on="0"/>
        <pt x="328" y="620" on="1"/>
        <pt x="754" y="620" on="1"/>
        <pt x="754" y="515" on="1"/>
        <pt x="505" y="515" on="1"/>
        <pt x="505" y="357" on="1"/>
        <pt x="719" y="357" on="1"/>
        <pt x="719" y="266" on="1"/>
        <pt x="505" y="266" on="1"/>
        <pt x="505" y="105" on="1"/>
        <pt x="760" y="105" on="1"/>
        <pt x="749" y="0" on="1"/>
      </contour>
    </TTGlyph>
    <TTGlyph name="AE.sc" xMin="-15" yMin="0" xMax="701" yMax="530">
      <contour>
        <pt x="350" y="436" on="1"/>
        <pt x="319" y="382" on="0"/>
        <pt x="257" y="272" on="0"/>
        <pt x="226" y="218" on="1"/>
        <pt x="358" y="218" on="1"/>
        <pt x="358" y="436" on="1"/>
      </contour>
      <contour>
        <pt x="358" y="0" on="1"/>
        <pt x="358" y="136" on="1"/>
        <pt x="180" y="136" on="1"/>
        <pt x="161" y="102" on="0"/>
        <pt x="124" y="34" on="0"/>
        <pt x="105" y="0" on="1"/>
        <pt x="-15" y="0" on="1"/>
        <pt x="59" y="131" on="0"/>
        <pt x="213" y="399" on="0"/>
        <pt x="293" y="530" on="1"/>
        <pt x="696" y="530" on="1"/>
        <pt x="696" y="433" on="1"/>
        <pt x="474" y="433" on="1"/>
        <pt x="474" y="307" on="1"/>
        <pt x="663" y="307" on="1"/>
        <pt x="663" y="226" on="1"/>
        <pt x="474" y="226" on="1"/>
        <pt x="474" y="97" on="1"/>
        <pt x="701" y="97" on="1"/>
        <pt x="691" y="0" on="1"/>
      </contour>
    </TTGlyph>
    <TTGlyph name="AEacute" xMin="-10" yMin="0" xMax="760" yMax="911">
      <contour>
        <pt x="364" y="735" on="1"/>
        <pt x="382" y="747" on="0"/>
        <pt x="432" y="789" on="0"/>
        <pt x="486" y="838" on="0"/>
        <pt x="537" y="889" on="0"/>
        <pt x="556" y="911" on="1"/>
        <pt x="644" y="821" on="1"/>
        <pt x="621" y="802" on="0"/>
        <pt x="555" y="760" on="0"/>
        <pt x="486" y="721" on="0"/>
        <pt x="419" y="689" on="0"/>
        <pt x="396" y="680" on="1"/>
      </contour>
      <contour>
        <pt x="381" y="515" on="1"/>
        <pt x="346" y="450" on="0"/>
        <pt x="276" y="319" on="0"/>
        <pt x="242" y="254" on="1"/>
        <pt x="388" y="254" on="1"/>
        <pt x="388" y="515" on="1"/>
      </contour>
      <contour>
        <pt x="388" y="0" on="1"/>
        <pt x="388" y="163" on="1"/>
        <pt x="194" y="163" on="1"/>
        <pt x="173" y="123" on="0"/>
        <pt x="131" y="40" on="0"/>
        <pt x="110" y="0" on="1"/>
        <pt x="-10" y="0" on="1"/>
        <pt x="71" y="154" on="0"/>
        <pt x="240" y="467" on="0"/>
        <pt x="328" y="620" on="1"/>
        <pt x="754" y="620" on="1"/>
        <pt x="754" y="515" on="1"/>
        <pt x="505" y="515" on="1"/>
        <pt x="505" y="357" on="1"/>
        <pt x="719" y="357" on="1"/>
        <pt x="719" y="266" on="1"/>
        <pt x="505" y="266" on="1"/>
        <pt x="505" y="105" on="1"/>
        <pt x="760" y="105" on="1"/>
        <pt x="749" y="0" on="1"/>
      </contour>
    </TTGlyph>
    <TTGlyph name="AEacute.sc" xMin="-15" yMin="0" xMax="701" yMax="821">
      <contour>
        <pt x="332" y="645" on="1"/>
        <pt x="350" y="657" on="0"/>
        <pt x="400" y="699" on="0"/>
        <pt x="454" y="748" on="0"/>
        <pt x="505" y="799" on="0"/>
        <pt x="524" y="821" on="1"/>
        <pt x="612" y="731" on="1"/>
        <pt x="589" y="712" on="0"/>
        <pt x="523" y="670" on="0"/>
        <pt x="454" y="631" on="0"/>
        <pt x="387" y="599" on="0"/>
        <pt x="364" y="590" on="1"/>
      </contour>
      <contour>
        <pt x="350" y="436" on="1"/>
        <pt x="319" y="382" on="0"/>
        <pt x="257" y="272" on="0"/>
        <pt x="226" y="218" on="1"/>
        <pt x="358" y="218" on="1"/>
        <pt x="358" y="436" on="1"/>
      </contour>
      <contour>
        <pt x="358" y="0" on="1"/>
        <pt x="358" y="136" on="1"/>
        <pt x="180" y="136" on="1"/>
        <pt x="161" y="102" on="0"/>
        <pt x="124" y="34" on="0"/>
        <pt x="105" y="0" on="1"/>
        <pt x="-15" y="0" on="1"/>
        <pt x="59" y="131" on="0"/>
        <pt x="213" y="399" on="0"/>
        <pt x="293" y="530" on="1"/>
        <pt x="696" y="530" on="1"/>
        <pt x="696" y="433" on="1"/>
        <pt x="474" y="433" on="1"/>
        <pt x="474" y="307" on="1"/>
        <pt x="663" y="307" on="1"/>
        <pt x="663" y="226" on="1"/>
        <pt x="474" y="226" on="1"/>
        <pt x="474" y="97" on="1"/>
        <pt x="701" y="97" on="1"/>
        <pt x="691" y="0" on="1"/>
      </contour>
    </TTGlyph>
    <TTGlyph name="Aacute" xMin="25" yMin="-5" xMax="566" yMax="911">
      <contour>
        <pt x="175" y="735" on="1"/>
        <pt x="193" y="747" on="0"/>
        <pt x="243" y="789" on="0"/>
        <pt x="297" y="838" on="0"/>
        <pt x="348" y="889" on="0"/>
        <pt x="367" y="911" on="1"/>
        <pt x="455" y="821" on="1"/>
        <pt x="432" y="802" on="0"/>
        <pt x="366" y="760" on="0"/>
        <pt x="297" y="721" on="0"/>
        <pt x="230" y="689" on="0"/>
        <pt x="207" y="680" on="1"/>
      </contour>
      <contour>
        <pt x="447" y="-5" on="1"/>
        <pt x="435" y="39" on="0"/>
        <pt x="410" y="128" on="0"/>
        <pt x="397" y="173" on="1"/>
        <pt x="189" y="173" on="1"/>
        <pt x="176" y="130" on="0"/>
        <pt x="152" y="43" on="0"/>
        <pt x="140" y="0" on="1"/>
        <pt x="25" y="0" on="1"/>
        <pt x="69" y="154" on="0"/>
        <pt x="165" y="466" on="0"/>
        <pt x="216" y="620" on="1"/>
        <pt x="374" y="620" on="1"/>
        <pt x="425" y="466" on="0"/>
        <pt x="521" y="159" on="0"/>
        <pt x="566" y="5" on="1"/>
      </contour>
      <contour>
        <pt x="289" y="511" on="1"/>
        <pt x="270" y="450" on="0"/>
        <pt x="233" y="325" on="0"/>
        <pt x="215" y="264" on="1"/>
        <pt x="370" y="264" on="1"/>
        <pt x="352" y="325" on="0"/>
        <pt x="315" y="450" on="0"/>
        <pt x="296" y="511" on="1"/>
      </contour>
    </TTGlyph>
    <TTGlyph name="Aacute.sc" xMin="24" yMin="-4" xMax="520" yMax="821">
      <contour>
        <pt x="152" y="645" on="1"/>
        <pt x="170" y="657" on="0"/>
        <pt x="220" y="699" on="0"/>
        <pt x="274" y="748" on="0"/>
        <pt x="325" y="799" on="0"/>
        <pt x="344" y="821" on="1"/>
        <pt x="432" y="731" on="1"/>
        <pt x="409" y="712" on="0"/>
        <pt x="343" y="670" on="0"/>
        <pt x="274" y="631" on="0"/>
        <pt x="207" y="599" on="0"/>
        <pt x="184" y="590" on="1"/>
      </contour>
      <contour>
        <pt x="403" y="-4" on="1"/>
        <pt x="393" y="32" on="0"/>
        <pt x="371" y="105" on="0"/>
        <pt x="361" y="142" on="1"/>
        <pt x="178" y="142" on="1"/>
        <pt x="168" y="107" on="0"/>
        <pt x="147" y="35" on="0"/>
        <pt x="137" y="0" on="1"/>
        <pt x="24" y="0" on="1"/>
        <pt x="64" y="131" on="0"/>
        <pt x="148" y="399" on="0"/>
        <pt x="194" y="530" on="1"/>
        <pt x="349" y="530" on="1"/>
        <pt x="394" y="399" on="0"/>
        <pt x="480" y="135" on="0"/>
        <pt x="520" y="4" on="1"/>
      </contour>
      <contour>
        <pt x="265" y="431" on="1"/>
        <pt x="249" y="380" on="0"/>
        <pt x="217" y="275" on="0"/>
        <pt x="202" y="224" on="1"/>
        <pt x="336" y="224" on="1"/>
        <pt x="320" y="275" on="0"/>
        <pt x="289" y="380" on="0"/>
        <pt x="273" y="431" on="1"/>
      </contour>
    </TTGlyph>
    <TTGlyph name="Abreve" xMin="25" yMin="-5" xMax="566" yMax="880">
      <contour>
        <pt x="295" y="684" on="1"/>
        <pt x="246" y="684" on="0"/>
        <pt x="149" y="754" on="0"/>
        <pt x="112" y="826" on="1"/>
        <pt x="195" y="880" on="1"/>
        <pt x="226" y="828" on="0"/>
        <pt x="276" y="780" on="0"/>
        <pt x="307" y="780" on="1"/>
        <pt x="338" y="780" on="0"/>
        <pt x="388" y="829" on="0"/>
        <pt x="416" y="874" on="1"/>
        <pt x="483" y="835" on="1"/>
        <pt x="443" y="763" on="0"/>
        <pt x="344" y="684" on="0"/>
      </contour>
      <contour>
        <pt x="447" y="-5" on="1"/>
        <pt x="435" y="39" on="0"/>
        <pt x="410" y="128" on="0"/>
        <pt x="397" y="173" on="1"/>
        <pt x="189" y="173" on="1"/>
        <pt x="176" y="130" on="0"/>
        <pt x="152" y="43" on="0"/>
        <pt x="140" y="0" on="1"/>
        <pt x="25" y="0" on="1"/>
        <pt x="69" y="154" on="0"/>
        <pt x="165" y="466" on="0"/>
        <pt x="216" y="620" on="1"/>
        <pt x="374" y="620" on="1"/>
        <pt x="425" y="466" on="0"/>
        <pt x="521" y="159" on="0"/>
        <pt x="566" y="5" on="1"/>
      </contour>
      <contour>
        <pt x="289" y="511" on="1"/>
        <pt x="270" y="450" on="0"/>
        <pt x="233" y="325" on="0"/>
        <pt x="215" y="264" on="1"/>
        <pt x="370" y="264" on="1"/>
        <pt x="352" y="325" on="0"/>
        <pt x="315" y="450" on="0"/>
        <pt x="296" y="511" on="1"/>
      </contour>
    </TTGlyph>
    <TTGlyph name="Abreve.sc" xMin="24" yMin="-4" xMax="520" yMax="790">
      <contour>
        <pt x="272" y="594" on="1"/>
        <pt x="223" y="594" on="0"/>
        <pt x="126" y="664" on="0"/>
        <pt x="89" y="736" on="1"/>
        <pt x="172" y="790" on="1"/>
        <pt x="203" y="738" on="0"/>
        <pt x="253" y="690" on="0"/>
        <pt x="284" y="690" on="1"/>
        <pt x="315" y="690" on="0"/>
        <pt x="365" y="739" on="0"/>
        <pt x="393" y="784" on="1"/>
        <pt x="460" y="745" on="1"/>
        <pt x="420" y="673" on="0"/>
        <pt x="321" y="594" on="0"/>
      </contour>
      <contour>
        <pt x="403" y="-4" on="1"/>
        <pt x="393" y="32" on="0"/>
        <pt x="371" y="105" on="0"/>
        <pt x="361" y="142" on="1"/>
        <pt x="178" y="142" on="1"/>
        <pt x="168" y="107" on="0"/>
        <pt x="147" y="35" on="0"/>
        <pt x="137" y="0" on="1"/>
        <pt x="24" y="0" on="1"/>
        <pt x="64" y="131" on="0"/>
        <pt x="148" y="399" on="0"/>
        <pt x="194" y="530" on="1"/>
        <pt x="349" y="530" on="1"/>
        <pt x="394" y="399" on="0"/>
        <pt x="480" y="135" on="0"/>
        <pt x="520" y="4" on="1"/>
      </contour>
      <contour>
        <pt x="265" y="431" on="1"/>
        <pt x="249" y="380" on="0"/>
        <pt x="217" y="275" on="0"/>
        <pt x="202" y="224" on="1"/>
        <pt x="336" y="224" on="1"/>
        <pt x="320" y="275" on="0"/>
        <pt x="289" y="380" on="0"/>
        <pt x="273" y="431" on="1"/>
      </contour>
    </TTGlyph>
    <TTGlyph name="Acircumflex" xMin="25" yMin="-5" xMax="566" yMax="894">
      <contour>
        <pt x="400" y="682" on="1"/>
        <pt x="288" y="777" on="1"/>
        <pt x="182" y="683" on="1"/>
        <pt x="126" y="739" on="1"/>
        <pt x="297" y="894" on="1"/>
        <pt x="298" y="894" on="1"/>
        <pt x="475" y="756" on="1"/>
      </contour>
      <contour>
        <pt x="447" y="-5" on="1"/>
        <pt x="435" y="39" on="0"/>
        <pt x="410" y="128" on="0"/>
        <pt x="397" y="173" on="1"/>
        <pt x="189" y="173" on="1"/>
        <pt x="176" y="130" on="0"/>
        <pt x="152" y="43" on="0"/>
        <pt x="140" y="0" on="1"/>
        <pt x="25" y="0" on="1"/>
        <pt x="69" y="154" on="0"/>
        <pt x="165" y="466" on="0"/>
        <pt x="216" y="620" on="1"/>
        <pt x="374" y="620" on="1"/>
        <pt x="425" y="466" on="0"/>
        <pt x="521" y="159" on="0"/>
        <pt x="566" y="5" on="1"/>
      </contour>
      <contour>
        <pt x="289" y="511" on="1"/>
        <pt x="270" y="450" on="0"/>
        <pt x="233" y="325" on="0"/>
        <pt x="215" y="264" on="1"/>
        <pt x="370" y="264" on="1"/>
        <pt x="352" y="325" on="0"/>
        <pt x="315" y="450" on="0"/>
        <pt x="296" y="511" on="1"/>
      </contour>
    </TTGlyph>
    <TTGlyph name="Acircumflex.sc" xMin="24" yMin="-4" xMax="520" yMax="804">
      <contour>
        <pt x="377" y="592" on="1"/>
        <pt x="265" y="687" on="1"/>
        <pt x="159" y="593" on="1"/>
        <pt x="103" y="649" on="1"/>
        <pt x="274" y="804" on="1"/>
        <pt x="275" y="804" on="1"/>
        <pt x="452" y="666" on="1"/>
      </contour>
      <contour>
        <pt x="403" y="-4" on="1"/>
        <pt x="393" y="32" on="0"/>
        <pt x="371" y="105" on="0"/>
        <pt x="361" y="142" on="1"/>
        <pt x="178" y="142" on="1"/>
        <pt x="168" y="107" on="0"/>
        <pt x="147" y="35" on="0"/>
        <pt x="137" y="0" on="1"/>
        <pt x="24" y="0" on="1"/>
        <pt x="64" y="131" on="0"/>
        <pt x="148" y="399" on="0"/>
        <pt x="194" y="530" on="1"/>
        <pt x="349" y="530" on="1"/>
        <pt x="394" y="399" on="0"/>
        <pt x="480" y="135" on="0"/>
        <pt x="520" y="4" on="1"/>
      </contour>
      <contour>
        <pt x="265" y="431" on="1"/>
        <pt x="249" y="380" on="0"/>
        <pt x="217" y="275" on="0"/>
        <pt x="202" y="224" on="1"/>
        <pt x="336" y="224" on="1"/>
        <pt x="320" y="275" on="0"/>
        <pt x="289" y="380" on="0"/>
        <pt x="273" y="431" on="1"/>
      </contour>
    </TTGlyph>
    <TTGlyph name="Adieresis" xMin="25" yMin="-5" xMax="566" yMax="830">
      <contour>
        <pt x="451" y="695" on="1"/>
        <pt x="332" y="695" on="1"/>
        <pt x="335" y="830" on="1"/>
        <pt x="454" y="830" on="1"/>
      </contour>
      <contour>
        <pt x="251" y="695" on="1"/>
        <pt x="132" y="695" on="1"/>
        <pt x="135" y="830" on="1"/>
        <pt x="254" y="830" on="1"/>
      </contour>
      <contour>
        <pt x="447" y="-5" on="1"/>
        <pt x="435" y="39" on="0"/>
        <pt x="410" y="128" on="0"/>
        <pt x="397" y="173" on="1"/>
        <pt x="189" y="173" on="1"/>
        <pt x="176" y="130" on="0"/>
        <pt x="152" y="43" on="0"/>
        <pt x="140" y="0" on="1"/>
        <pt x="25" y="0" on="1"/>
        <pt x="69" y="154" on="0"/>
        <pt x="165" y="466" on="0"/>
        <pt x="216" y="620" on="1"/>
        <pt x="374" y="620" on="1"/>
        <pt x="425" y="466" on="0"/>
        <pt x="521" y="159" on="0"/>
        <pt x="566" y="5" on="1"/>
      </contour>
      <contour>
        <pt x="289" y="511" on="1"/>
        <pt x="270" y="450" on="0"/>
        <pt x="233" y="325" on="0"/>
        <pt x="215" y="264" on="1"/>
        <pt x="370" y="264" on="1"/>
        <pt x="352" y="325" on="0"/>
        <pt x="315" y="450" on="0"/>
        <pt x="296" y="511" on="1"/>
      </contour>
    </TTGlyph>
    <TTGlyph name="Adieresis.sc" xMin="24" yMin="-4" xMax="520" yMax="740">
      <contour>
        <pt x="428" y="605" on="1"/>
        <pt x="309" y="605" on="1"/>
        <pt x="312" y="740" on="1"/>
        <pt x="431" y="740" on="1"/>
      </contour>
      <contour>
        <pt x="228" y="605" on="1"/>
        <pt x="109" y="605" on="1"/>
        <pt x="112" y="740" on="1"/>
        <pt x="231" y="740" on="1"/>
      </contour>
      <contour>
        <pt x="403" y="-4" on="1"/>
        <pt x="393" y="32" on="0"/>
        <pt x="371" y="105" on="0"/>
        <pt x="361" y="142" on="1"/>
        <pt x="178" y="142" on="1"/>
        <pt x="168" y="107" on="0"/>
        <pt x="147" y="35" on="0"/>
        <pt x="137" y="0" on="1"/>
        <pt x="24" y="0" on="1"/>
        <pt x="64" y="131" on="0"/>
        <pt x="148" y="399" on="0"/>
        <pt x="194" y="530" on="1"/>
        <pt x="349" y="530" on="1"/>
        <pt x="394" y="399" on="0"/>
        <pt x="480" y="135" on="0"/>
        <pt x="520" y="4" on="1"/>
      </contour>
      <contour>
        <pt x="265" y="431" on="1"/>
        <pt x="249" y="380" on="0"/>
        <pt x="217" y="275" on="0"/>
        <pt x="202" y="224" on="1"/>
        <pt x="336" y="224" on="1"/>
        <pt x="320" y="275" on="0"/>
        <pt x="289" y="380" on="0"/>
        <pt x="273" y="431" on="1"/>
      </contour>
    </TTGlyph>
    <TTGlyph name="Agrave" xMin="25" yMin="-5" xMax="566" yMax="913">
      <contour>
        <pt x="399" y="733" on="1"/>
        <pt x="364" y="679" on="1"/>
        <pt x="341" y="689" on="0"/>
        <pt x="278" y="722" on="0"/>
        <pt x="210" y="759" on="0"/>
        <pt x="145" y="798" on="0"/>
        <pt x="120" y="814" on="1"/>
        <pt x="199" y="913" on="1"/>
        <pt x="219" y="893" on="0"/>
        <pt x="275" y="841" on="0"/>
        <pt x="332" y="790" on="0"/>
        <pt x="383" y="746" on="0"/>
      </contour>
      <contour>
        <pt x="447" y="-5" on="1"/>
        <pt x="435" y="39" on="0"/>
        <pt x="410" y="128" on="0"/>
        <pt x="397" y="173" on="1"/>
        <pt x="189" y="173" on="1"/>
        <pt x="176" y="130" on="0"/>
        <pt x="152" y="43" on="0"/>
        <pt x="140" y="0" on="1"/>
        <pt x="25" y="0" on="1"/>
        <pt x="69" y="154" on="0"/>
        <pt x="165" y="466" on="0"/>
        <pt x="216" y="620" on="1"/>
        <pt x="374" y="620" on="1"/>
        <pt x="425" y="466" on="0"/>
        <pt x="521" y="159" on="0"/>
        <pt x="566" y="5" on="1"/>
      </contour>
      <contour>
        <pt x="289" y="511" on="1"/>
        <pt x="270" y="450" on="0"/>
        <pt x="233" y="325" on="0"/>
        <pt x="215" y="264" on="1"/>
        <pt x="370" y="264" on="1"/>
        <pt x="352" y="325" on="0"/>
        <pt x="315" y="450" on="0"/>
        <pt x="296" y="511" on="1"/>
      </contour>
    </TTGlyph>
    <TTGlyph name="Agrave.sc" xMin="24" yMin="-4" xMax="520" yMax="823">
      <contour>
        <pt x="376" y="643" on="1"/>
        <pt x="341" y="589" on="1"/>
        <pt x="318" y="599" on="0"/>
        <pt x="255" y="632" on="0"/>
        <pt x="187" y="669" on="0"/>
        <pt x="122" y="708" on="0"/>
        <pt x="97" y="724" on="1"/>
        <pt x="176" y="823" on="1"/>
        <pt x="196" y="803" on="0"/>
        <pt x="252" y="751" on="0"/>
        <pt x="309" y="700" on="0"/>
        <pt x="360" y="656" on="0"/>
      </contour>
      <contour>
        <pt x="403" y="-4" on="1"/>
        <pt x="393" y="32" on="0"/>
        <pt x="371" y="105" on="0"/>
        <pt x="361" y="142" on="1"/>
        <pt x="178" y="142" on="1"/>
        <pt x="168" y="107" on="0"/>
        <pt x="147" y="35" on="0"/>
        <pt x="137" y="0" on="1"/>
        <pt x="24" y="0" on="1"/>
        <pt x="64" y="131" on="0"/>
        <pt x="148" y="399" on="0"/>
        <pt x="194" y="530" on="1"/>
        <pt x="349" y="530" on="1"/>
        <pt x="394" y="399" on="0"/>
        <pt x="480" y="135" on="0"/>
        <pt x="520" y="4" on="1"/>
      </contour>
      <contour>
        <pt x="265" y="431" on="1"/>
        <pt x="249" y="380" on="0"/>
        <pt x="217" y="275" on="0"/>
        <pt x="202" y="224" on="1"/>
        <pt x="336" y="224" on="1"/>
        <pt x="320" y="275" on="0"/>
        <pt x="289" y="380" on="0"/>
        <pt x="273" y="431" on="1"/>
      </contour>
    </TTGlyph>
    <TTGlyph name="Amacron" xMin="25" yMin="-5" xMax="566" yMax="815">
      <contour>
        <pt x="452" y="815" on="1"/>
        <pt x="452" y="711" on="1"/>
        <pt x="130" y="711" on="1"/>
        <pt x="130" y="815" on="1"/>
      </contour>
      <contour>
        <pt x="447" y="-5" on="1"/>
        <pt x="435" y="39" on="0"/>
        <pt x="410" y="128" on="0"/>
        <pt x="397" y="173" on="1"/>
        <pt x="189" y="173" on="1"/>
        <pt x="176" y="130" on="0"/>
        <pt x="152" y="43" on="0"/>
        <pt x="140" y="0" on="1"/>
        <pt x="25" y="0" on="1"/>
        <pt x="69" y="154" on="0"/>
        <pt x="165" y="466" on="0"/>
        <pt x="216" y="620" on="1"/>
        <pt x="374" y="620" on="1"/>
        <pt x="425" y="466" on="0"/>
        <pt x="521" y="159" on="0"/>
        <pt x="566" y="5" on="1"/>
      </contour>
      <contour>
        <pt x="289" y="511" on="1"/>
        <pt x="270" y="450" on="0"/>
        <pt x="233" y="325" on="0"/>
        <pt x="215" y="264" on="1"/>
        <pt x="370" y="264" on="1"/>
        <pt x="352" y="325" on="0"/>
        <pt x="315" y="450" on="0"/>
        <pt x="296" y="511" on="1"/>
      </contour>
    </TTGlyph>
    <TTGlyph name="Amacron.sc" xMin="24" yMin="-4" xMax="520" yMax="725">
      <contour>
        <pt x="429" y="725" on="1"/>
        <pt x="429" y="621" on="1"/>
        <pt x="107" y="621" on="1"/>
        <pt x="107" y="725" on="1"/>
      </contour>
      <contour>
        <pt x="403" y="-4" on="1"/>
        <pt x="393" y="32" on="0"/>
        <pt x="371" y="105" on="0"/>
        <pt x="361" y="142" on="1"/>
        <pt x="178" y="142" on="1"/>
        <pt x="168" y="107" on="0"/>
        <pt x="147" y="35" on="0"/>
        <pt x="137" y="0" on="1"/>
        <pt x="24" y="0" on="1"/>
        <pt x="64" y="131" on="0"/>
        <pt x="148" y="399" on="0"/>
        <pt x="194" y="530" on="1"/>
        <pt x="349" y="530" on="1"/>
        <pt x="394" y="399" on="0"/>
        <pt x="480" y="135" on="0"/>
        <pt x="520" y="4" on="1"/>
      </contour>
      <contour>
        <pt x="265" y="431" on="1"/>
        <pt x="249" y="380" on="0"/>
        <pt x="217" y="275" on="0"/>
        <pt x="202" y="224" on="1"/>
        <pt x="336" y="224" on="1"/>
        <pt x="320" y="275" on="0"/>
        <pt x="289" y="380" on="0"/>
        <pt x="273" y="431" on="1"/>
      </contour>
    </TTGlyph>
    <TTGlyph name="Aogonek" xMin="25" yMin="-218" xMax="566" yMax="620">
      <contour>
        <pt x="548" y="-218" on="1"/>
        <pt x="434" y="-209" on="0"/>
        <pt x="347" y="-149" on="0"/>
        <pt x="347" y="-109" on="1"/>
        <pt x="347" y="-80" on="0"/>
        <pt x="391" y="-20" on="0"/>
        <pt x="443" y="11" on="1"/>
        <pt x="432" y="51" on="0"/>
        <pt x="408" y="133" on="0"/>
        <pt x="397" y="173" on="1"/>
        <pt x="189" y="173" on="1"/>
        <pt x="176" y="130" on="0"/>
        <pt x="152" y="43" on="0"/>
        <pt x="140" y="0" on="1"/>
        <pt x="25" y="0" on="1"/>
        <pt x="69" y="154" on="0"/>
        <pt x="165" y="466" on="0"/>
        <pt x="216" y="620" on="1"/>
        <pt x="374" y="620" on="1"/>
        <pt x="425" y="466" on="0"/>
        <pt x="521" y="159" on="0"/>
        <pt x="566" y="5" on="1"/>
        <pt x="497" y="-24" on="0"/>
        <pt x="448" y="-66" on="0"/>
        <pt x="448" y="-82" on="1"/>
        <pt x="448" y="-100" on="0"/>
        <pt x="504" y="-118" on="0"/>
        <pt x="558" y="-125" on="1"/>
      </contour>
      <contour>
        <pt x="289" y="511" on="1"/>
        <pt x="270" y="450" on="0"/>
        <pt x="233" y="325" on="0"/>
        <pt x="215" y="264" on="1"/>
        <pt x="370" y="264" on="1"/>
        <pt x="352" y="325" on="0"/>
        <pt x="315" y="450" on="0"/>
        <pt x="296" y="511" on="1"/>
      </contour>
    </TTGlyph>
    <TTGlyph name="Aogonek.sc" xMin="24" yMin="-219" xMax="520" yMax="530">
      <contour>
        <pt x="502" y="-219" on="1"/>
        <pt x="388" y="-210" on="0"/>
        <pt x="301" y="-150" on="0"/>
        <pt x="301" y="-110" on="1"/>
        <pt x="301" y="-81" on="0"/>
        <pt x="346" y="-20" on="0"/>
        <pt x="399" y="11" on="1"/>
        <pt x="389" y="44" on="0"/>
        <pt x="370" y="109" on="0"/>
        <pt x="361" y="142" on="1"/>
        <pt x="178" y="142" on="1"/>
        <pt x="168" y="107" on="0"/>
        <pt x="147" y="35" on="0"/>
        <pt x="137" y="0" on="1"/>
        <pt x="24" y="0" on="1"/>
        <pt x="64" y="131" on="0"/>
        <pt x="148" y="399" on="0"/>
        <pt x="194" y="530" on="1"/>
        <pt x="349" y="530" on="1"/>
        <pt x="394" y="399" on="0"/>
        <pt x="480" y="135" on="0"/>
        <pt x="520" y="4" on="1"/>
        <pt x="451" y="-25" on="0"/>
        <pt x="402" y="-67" on="0"/>
        <pt x="402" y="-83" on="1"/>
        <pt x="402" y="-101" on="0"/>
        <pt x="458" y="-119" on="0"/>
        <pt x="512" y="-126" on="1"/>
      </contour>
      <contour>
        <pt x="265" y="431" on="1"/>
        <pt x="249" y="380" on="0"/>
        <pt x="217" y="275" on="0"/>
        <pt x="202" y="224" on="1"/>
        <pt x="336" y="224" on="1"/>
        <pt x="320" y="275" on="0"/>
        <pt x="289" y="380" on="0"/>
        <pt x="273" y="431" on="1"/>
      </contour>
    </TTGlyph>
    <TTGlyph name="Aring" xMin="25" yMin="-5" xMax="566" yMax="879">
      <contour>
        <pt x="290" y="879" on="1"/>
        <pt x="344" y="879" on="0"/>
        <pt x="410" y="819" on="0"/>
        <pt x="410" y="778" on="1"/>
        <pt x="410" y="733" on="0"/>
        <pt x="345" y="673" on="0"/>
        <pt x="290" y="673" on="1"/>
        <pt x="236" y="673" on="0"/>
        <pt x="171" y="732" on="0"/>
        <pt x="171" y="774" on="1"/>
        <pt x="171" y="819" on="0"/>
        <pt x="235" y="879" on="0"/>
      </contour>
      <contour>
        <pt x="447" y="-5" on="1"/>
        <pt x="435" y="39" on="0"/>
        <pt x="410" y="128" on="0"/>
        <pt x="397" y="173" on="1"/>
        <pt x="189" y="173" on="1"/>
        <pt x="176" y="130" on="0"/>
        <pt x="152" y="43" on="0"/>
        <pt x="140" y="0" on="1"/>
        <pt x="25" y="0" on="1"/>
        <pt x="69" y="154" on="0"/>
        <pt x="165" y="466" on="0"/>
        <pt x="216" y="620" on="1"/>
        <pt x="374" y="620" on="1"/>
        <pt x="425" y="466" on="0"/>
        <pt x="521" y="159" on="0"/>
        <pt x="566" y="5" on="1"/>
      </contour>
      <contour>
        <pt x="289" y="511" on="1"/>
        <pt x="270" y="450" on="0"/>
        <pt x="233" y="325" on="0"/>
        <pt x="215" y="264" on="1"/>
        <pt x="370" y="264" on="1"/>
        <pt x="352" y="325" on="0"/>
        <pt x="315" y="450" on="0"/>
        <pt x="296" y="511" on="1"/>
      </contour>
    </TTGlyph>
    <TTGlyph name="Aring.sc" xMin="24" yMin="-4" xMax="520" yMax="789">
      <contour>
        <pt x="267" y="789" on="1"/>
        <pt x="321" y="789" on="0"/>
        <pt x="387" y="729" on="0"/>
        <pt x="387" y="688" on="1"/>
        <pt x="387" y="643" on="0"/>
        <pt x="322" y="583" on="0"/>
        <pt x="267" y="583" on="1"/>
        <pt x="213" y="583" on="0"/>
        <pt x="148" y="642" on="0"/>
        <pt x="148" y="684" on="1"/>
        <pt x="148" y="729" on="0"/>
        <pt x="212" y="789" on="0"/>
      </contour>
      <contour>
        <pt x="403" y="-4" on="1"/>
        <pt x="393" y="32" on="0"/>
        <pt x="371" y="105" on="0"/>
        <pt x="361" y="142" on="1"/>
        <pt x="178" y="142" on="1"/>
        <pt x="168" y="107" on="0"/>
        <pt x="147" y="35" on="0"/>
        <pt x="137" y="0" on="1"/>
        <pt x="24" y="0" on="1"/>
        <pt x="64" y="131" on="0"/>
        <pt x="148" y="399" on="0"/>
        <pt x="194" y="530" on="1"/>
        <pt x="349" y="530" on="1"/>
        <pt x="394" y="399" on="0"/>
        <pt x="480" y="135" on="0"/>
        <pt x="520" y="4" on="1"/>
      </contour>
      <contour>
        <pt x="265" y="431" on="1"/>
        <pt x="249" y="380" on="0"/>
        <pt x="217" y="275" on="0"/>
        <pt x="202" y="224" on="1"/>
        <pt x="336" y="224" on="1"/>
        <pt x="320" y="275" on="0"/>
        <pt x="289" y="380" on="0"/>
        <pt x="273" y="431" on="1"/>
      </contour>
    </TTGlyph>
    <TTGlyph name="Aringacute" xMin="25" yMin="-5" xMax="566" yMax="1139">
      <contour>
        <pt x="175" y="963" on="1"/>
        <pt x="193" y="975" on="0"/>
        <pt x="243" y="1017" on="0"/>
        <pt x="297" y="1066" on="0"/>
        <pt x="348" y="1117" on="0"/>
        <pt x="367" y="1139" on="1"/>
        <pt x="455" y="1049" on="1"/>
        <pt x="432" y="1030" on="0"/>
        <pt x="366" y="988" on="0"/>
        <pt x="297" y="949" on="0"/>
        <pt x="230" y="917" on="0"/>
        <pt x="207" y="908" on="1"/>
      </contour>
      <contour>
        <pt x="290" y="879" on="1"/>
        <pt x="344" y="879" on="0"/>
        <pt x="410" y="819" on="0"/>
        <pt x="410" y="778" on="1"/>
        <pt x="410" y="733" on="0"/>
        <pt x="345" y="673" on="0"/>
        <pt x="290" y="673" on="1"/>
        <pt x="236" y="673" on="0"/>
        <pt x="171" y="732" on="0"/>
        <pt x="171" y="774" on="1"/>
        <pt x="171" y="819" on="0"/>
        <pt x="235" y="879" on="0"/>
      </contour>
      <contour>
        <pt x="447" y="-5" on="1"/>
        <pt x="435" y="39" on="0"/>
        <pt x="410" y="128" on="0"/>
        <pt x="397" y="173" on="1"/>
        <pt x="189" y="173" on="1"/>
        <pt x="176" y="130" on="0"/>
        <pt x="152" y="43" on="0"/>
        <pt x="140" y="0" on="1"/>
        <pt x="25" y="0" on="1"/>
        <pt x="69" y="154" on="0"/>
        <pt x="165" y="466" on="0"/>
        <pt x="216" y="620" on="1"/>
        <pt x="374" y="620" on="1"/>
        <pt x="425" y="466" on="0"/>
        <pt x="521" y="159" on="0"/>
        <pt x="566" y="5" on="1"/>
      </contour>
      <contour>
        <pt x="289" y="511" on="1"/>
        <pt x="270" y="450" on="0"/>
        <pt x="233" y="325" on="0"/>
        <pt x="215" y="264" on="1"/>
        <pt x="370" y="264" on="1"/>
        <pt x="352" y="325" on="0"/>
        <pt x="315" y="450" on="0"/>
        <pt x="296" y="511" on="1"/>
      </contour>
    </TTGlyph>
    <TTGlyph name="Aringacute.sc" xMin="24" yMin="-4" xMax="520" yMax="1049">
      <contour>
        <pt x="152" y="873" on="1"/>
        <pt x="170" y="885" on="0"/>
        <pt x="220" y="927" on="0"/>
        <pt x="274" y="976" on="0"/>
        <pt x="325" y="1027" on="0"/>
        <pt x="344" y="1049" on="1"/>
        <pt x="432" y="959" on="1"/>
        <pt x="409" y="940" on="0"/>
        <pt x="343" y="898" on="0"/>
        <pt x="274" y="859" on="0"/>
        <pt x="207" y="827" on="0"/>
        <pt x="184" y="818" on="1"/>
      </contour>
      <contour>
        <pt x="267" y="789" on="1"/>
        <pt x="321" y="789" on="0"/>
        <pt x="387" y="729" on="0"/>
        <pt x="387" y="688" on="1"/>
        <pt x="387" y="643" on="0"/>
        <pt x="322" y="583" on="0"/>
        <pt x="267" y="583" on="1"/>
        <pt x="213" y="583" on="0"/>
        <pt x="148" y="642" on="0"/>
        <pt x="148" y="684" on="1"/>
        <pt x="148" y="729" on="0"/>
        <pt x="212" y="789" on="0"/>
      </contour>
      <contour>
        <pt x="403" y="-4" on="1"/>
        <pt x="393" y="32" on="0"/>
        <pt x="371" y="105" on="0"/>
        <pt x="361" y="142" on="1"/>
        <pt x="178" y="142" on="1"/>
        <pt x="168" y="107" on="0"/>
        <pt x="147" y="35" on="0"/>
        <pt x="137" y="0" on="1"/>
        <pt x="24" y="0" on="1"/>
        <pt x="64" y="131" on="0"/>
        <pt x="148" y="399" on="0"/>
        <pt x="194" y="530" on="1"/>
        <pt x="349" y="530" on="1"/>
        <pt x="394" y="399" on="0"/>
        <pt x="480" y="135" on="0"/>
        <pt x="520" y="4" on="1"/>
      </contour>
      <contour>
        <pt x="265" y="431" on="1"/>
        <pt x="249" y="380" on="0"/>
        <pt x="217" y="275" on="0"/>
        <pt x="202" y="224" on="1"/>
        <pt x="336" y="224" on="1"/>
        <pt x="320" y="275" on="0"/>
        <pt x="289" y="380" on="0"/>
        <pt x="273" y="431" on="1"/>
      </contour>
    </TTGlyph>
    <TTGlyph name="Atilde" xMin="25" yMin="-5" xMax="566" yMax="866">
      <contour>
        <pt x="358" y="689" on="1"/>
        <pt x="336" y="689" on="0"/>
        <pt x="296" y="713" on="0"/>
        <pt x="262" y="742" on="0"/>
        <pt x="232" y="766" on="0"/>
        <pt x="221" y="766" on="1"/>
        <pt x="213" y="766" on="0"/>
        <pt x="184" y="737" on="0"/>
        <pt x="165" y="699" on="1"/>
        <pt x="107" y="733" on="1"/>
        <pt x="132" y="788" on="0"/>
        <pt x="203" y="866" on="0"/>
        <pt x="239" y="866" on="1"/>
        <pt x="261" y="866" on="0"/>
        <pt x="301" y="842" on="0"/>
        <pt x="335" y="813" on="0"/>
        <pt x="365" y="789" on="0"/>
        <pt x="376" y="789" on="1"/>
        <pt x="384" y="789" on="0"/>
        <pt x="413" y="818" on="0"/>
        <pt x="432" y="856" on="1"/>
        <pt x="490" y="822" on="1"/>
        <pt x="465" y="767" on="0"/>
        <pt x="394" y="689" on="0"/>
      </contour>
      <contour>
        <pt x="447" y="-5" on="1"/>
        <pt x="435" y="39" on="0"/>
        <pt x="410" y="128" on="0"/>
        <pt x="397" y="173" on="1"/>
        <pt x="189" y="173" on="1"/>
        <pt x="176" y="130" on="0"/>
        <pt x="152" y="43" on="0"/>
        <pt x="140" y="0" on="1"/>
        <pt x="25" y="0" on="1"/>
        <pt x="69" y="154" on="0"/>
        <pt x="165" y="466" on="0"/>
        <pt x="216" y="620" on="1"/>
        <pt x="374" y="620" on="1"/>
        <pt x="425" y="466" on="0"/>
        <pt x="521" y="159" on="0"/>
        <pt x="566" y="5" on="1"/>
      </contour>
      <contour>
        <pt x="289" y="511" on="1"/>
        <pt x="270" y="450" on="0"/>
        <pt x="233" y="325" on="0"/>
        <pt x="215" y="264" on="1"/>
        <pt x="370" y="264" on="1"/>
        <pt x="352" y="325" on="0"/>
        <pt x="315" y="450" on="0"/>
        <pt x="296" y="511" on="1"/>
      </contour>
    </TTGlyph>
    <TTGlyph name="Atilde.sc" xMin="24" yMin="-4" xMax="520" yMax="776">
      <contour>
        <pt x="335" y="599" on="1"/>
        <pt x="313" y="599" on="0"/>
        <pt x="273" y="623" on="0"/>
        <pt x="239" y="652" on="0"/>
        <pt x="209" y="676" on="0"/>
        <pt x="198" y="676" on="1"/>
        <pt x="190" y="676" on="0"/>
        <pt x="161" y="647" on="0"/>
        <pt x="142" y="609" on="1"/>
        <pt x="84" y="643" on="1"/>
        <pt x="109" y="698" on="0"/>
        <pt x="180" y="776" on="0"/>
        <pt x="216" y="776" on="1"/>
        <pt x="238" y="776" on="0"/>
        <pt x="278" y="752" on="0"/>
        <pt x="312" y="723" on="0"/>
        <pt x="342" y="699" on="0"/>
        <pt x="353" y="699" on="1"/>
        <pt x="361" y="699" on="0"/>
        <pt x="390" y="728" on="0"/>
        <pt x="409" y="766" on="1"/>
        <pt x="467" y="732" on="1"/>
        <pt x="442" y="677" on="0"/>
        <pt x="371" y="599" on="0"/>
      </contour>
      <contour>
        <pt x="403" y="-4" on="1"/>
        <pt x="393" y="32" on="0"/>
        <pt x="371" y="105" on="0"/>
        <pt x="361" y="142" on="1"/>
        <pt x="178" y="142" on="1"/>
        <pt x="168" y="107" on="0"/>
        <pt x="147" y="35" on="0"/>
        <pt x="137" y="0" on="1"/>
        <pt x="24" y="0" on="1"/>
        <pt x="64" y="131" on="0"/>
        <pt x="148" y="399" on="0"/>
        <pt x="194" y="530" on="1"/>
        <pt x="349" y="530" on="1"/>
        <pt x="394" y="399" on="0"/>
        <pt x="480" y="135" on="0"/>
        <pt x="520" y="4" on="1"/>
      </contour>
      <contour>
        <pt x="265" y="431" on="1"/>
        <pt x="249" y="380" on="0"/>
        <pt x="217" y="275" on="0"/>
        <pt x="202" y="224" on="1"/>
        <pt x="336" y="224" on="1"/>
        <pt x="320" y="275" on="0"/>
        <pt x="289" y="380" on="0"/>
        <pt x="273" y="431" on="1"/>
      </contour>
    </TTGlyph>
    <TTGlyph name="B" xMin="88" yMin="-9" xMax="514" yMax="630">
      <contour>
        <pt x="210" y="-9" on="1"/>
        <pt x="181" y="-9" on="0"/>
        <pt x="119" y="-4" on="0"/>
        <pt x="88" y="0" on="1"/>
        <pt x="88" y="620" on="1"/>
        <pt x="126" y="624" on="0"/>
        <pt x="198" y="630" on="0"/>
        <pt x="231" y="630" on="1"/>
        <pt x="288" y="630" on="0"/>
        <pt x="385" y="613" on="0"/>
        <pt x="453" y="576" on="0"/>
        <pt x="491" y="517" on="0"/>
        <pt x="491" y="475" on="1"/>
        <pt x="491" y="429" on="0"/>
        <pt x="444" y="358" on="0"/>
        <pt x="404" y="334" on="1"/>
        <pt x="461" y="314" on="0"/>
        <pt x="514" y="242" on="0"/>
        <pt x="514" y="189" on="1"/>
        <pt x="514" y="138" on="0"/>
        <pt x="467" y="62" on="0"/>
        <pt x="386" y="14" on="0"/>
        <pt x="274" y="-9" on="0"/>
      </contour>
      <contour>
        <pt x="236" y="353" on="1"/>
        <pt x="318" y="353" on="0"/>
        <pt x="376" y="396" on="0"/>
        <pt x="376" y="443" on="1"/>
        <pt x="376" y="486" on="0"/>
        <pt x="314" y="529" on="0"/>
        <pt x="253" y="529" on="1"/>
        <pt x="242" y="529" on="0"/>
        <pt x="218" y="527" on="0"/>
        <pt x="205" y="526" on="1"/>
        <pt x="205" y="354" on="1"/>
        <pt x="213" y="353" on="0"/>
        <pt x="229" y="353" on="0"/>
      </contour>
      <contour>
        <pt x="282" y="89" on="1"/>
        <pt x="343" y="89" on="0"/>
        <pt x="396" y="133" on="0"/>
        <pt x="396" y="179" on="1"/>
        <pt x="396" y="228" on="0"/>
        <pt x="328" y="265" on="0"/>
        <pt x="262" y="265" on="1"/>
        <pt x="249" y="265" on="0"/>
        <pt x="221" y="263" on="0"/>
        <pt x="205" y="262" on="1"/>
        <pt x="205" y="95" on="1"/>
        <pt x="227" y="92" on="0"/>
        <pt x="266" y="89" on="0"/>
      </contour>
    </TTGlyph>
    <TTGlyph name="B.sc" xMin="79" yMin="-8" xMax="474" yMax="538">
      <contour>
        <pt x="194" y="-8" on="1"/>
        <pt x="167" y="-8" on="0"/>
        <pt x="109" y="-4" on="0"/>
        <pt x="79" y="0" on="1"/>
        <pt x="79" y="530" on="1"/>
        <pt x="115" y="534" on="0"/>
        <pt x="182" y="538" on="0"/>
        <pt x="213" y="538" on="1"/>
        <pt x="320" y="538" on="0"/>
        <pt x="453" y="477" on="0"/>
        <pt x="453" y="405" on="1"/>
        <pt x="453" y="366" on="0"/>
        <pt x="411" y="305" on="0"/>
        <pt x="374" y="284" on="1"/>
        <pt x="423" y="269" on="0"/>
        <pt x="474" y="212" on="0"/>
        <pt x="474" y="161" on="1"/>
        <pt x="474" y="117" on="0"/>
        <pt x="432" y="53" on="0"/>
        <pt x="357" y="12" on="0"/>
        <pt x="254" y="-8" on="0"/>
      </contour>
      <contour>
        <pt x="221" y="303" on="1"/>
        <pt x="290" y="303" on="0"/>
        <pt x="338" y="338" on="0"/>
        <pt x="338" y="376" on="1"/>
        <pt x="338" y="410" on="0"/>
        <pt x="286" y="444" on="0"/>
        <pt x="236" y="444" on="1"/>
        <pt x="227" y="444" on="0"/>
        <pt x="206" y="443" on="0"/>
        <pt x="195" y="442" on="1"/>
        <pt x="195" y="303" on="1"/>
        <pt x="202" y="303" on="0"/>
        <pt x="215" y="303" on="0"/>
      </contour>
      <contour>
        <pt x="267" y="84" on="1"/>
        <pt x="316" y="84" on="0"/>
        <pt x="357" y="119" on="0"/>
        <pt x="357" y="156" on="1"/>
        <pt x="357" y="194" on="0"/>
        <pt x="299" y="224" on="0"/>
        <pt x="244" y="224" on="1"/>
        <pt x="233" y="224" on="0"/>
        <pt x="208" y="223" on="0"/>
        <pt x="195" y="222" on="1"/>
        <pt x="195" y="90" on="1"/>
        <pt x="216" y="87" on="0"/>
        <pt x="252" y="84" on="0"/>
      </contour>
    </TTGlyph>
    <TTGlyph name="C" xMin="53" yMin="-10" xMax="467" yMax="630">
      <contour>
        <pt x="467" y="97" on="1"/>
        <pt x="455" y="-9" on="1"/>
        <pt x="442" y="-10" on="0"/>
        <pt x="417" y="-10" on="0"/>
        <pt x="405" y="-10" on="1"/>
        <pt x="305" y="-10" on="0"/>
        <pt x="169" y="37" on="0"/>
        <pt x="88" y="119" on="0"/>
        <pt x="53" y="233" on="0"/>
        <pt x="53" y="300" on="1"/>
        <pt x="53" y="363" on="0"/>
        <pt x="95" y="479" on="0"/>
        <pt x="189" y="567" on="0"/>
        <pt x="343" y="624" on="0"/>
        <pt x="453" y="630" on="1"/>
        <pt x="461" y="507" on="1"/>
        <pt x="454" y="507" on="1"/>
        <pt x="362" y="507" on="0"/>
        <pt x="251" y="485" on="0"/>
        <pt x="192" y="439" on="0"/>
        <pt x="174" y="367" on="0"/>
        <pt x="174" y="317" on="1"/>
        <pt x="174" y="192" on="0"/>
        <pt x="309" y="97" on="0"/>
        <pt x="461" y="97" on="1"/>
      </contour>
    </TTGlyph>
    <TTGlyph name="C.sc" xMin="47" yMin="-8" xMax="427" yMax="539">
      <contour>
        <pt x="427" y="89" on="1"/>
        <pt x="416" y="-7" on="1"/>
        <pt x="403" y="-8" on="0"/>
        <pt x="378" y="-8" on="0"/>
        <pt x="366" y="-8" on="1"/>
        <pt x="275" y="-8" on="0"/>
        <pt x="152" y="32" on="0"/>
        <pt x="78" y="102" on="0"/>
        <pt x="47" y="199" on="0"/>
        <pt x="47" y="256" on="1"/>
        <pt x="47" y="310" on="0"/>
        <pt x="85" y="409" on="0"/>
        <pt x="172" y="485" on="0"/>
        <pt x="313" y="534" on="0"/>
        <pt x="415" y="539" on="1"/>
        <pt x="422" y="428" on="1"/>
        <pt x="415" y="428" on="1"/>
        <pt x="333" y="428" on="0"/>
        <pt x="234" y="410" on="0"/>
        <pt x="181" y="373" on="0"/>
        <pt x="164" y="313" on="0"/>
        <pt x="164" y="271" on="1"/>
        <pt x="164" y="169" on="0"/>
        <pt x="285" y="89" on="0"/>
        <pt x="421" y="89" on="1"/>
      </contour>
    </TTGlyph>
    <TTGlyph name="Cacute" xMin="53" yMin="-10" xMax="467" yMax="921">
      <contour>
        <pt x="174" y="745" on="1"/>
        <pt x="192" y="757" on="0"/>
        <pt x="242" y="799" on="0"/>
        <pt x="296" y="848" on="0"/>
        <pt x="347" y="899" on="0"/>
        <pt x="366" y="921" on="1"/>
        <pt x="454" y="831" on="1"/>
        <pt x="431" y="812" on="0"/>
        <pt x="365" y="770" on="0"/>
        <pt x="296" y="731" on="0"/>
        <pt x="229" y="699" on="0"/>
        <pt x="206" y="690" on="1"/>
      </contour>
      <contour>
        <pt x="467" y="97" on="1"/>
        <pt x="455" y="-9" on="1"/>
        <pt x="442" y="-10" on="0"/>
        <pt x="417" y="-10" on="0"/>
        <pt x="405" y="-10" on="1"/>
        <pt x="305" y="-10" on="0"/>
        <pt x="169" y="37" on="0"/>
        <pt x="88" y="119" on="0"/>
        <pt x="53" y="233" on="0"/>
        <pt x="53" y="300" on="1"/>
        <pt x="53" y="363" on="0"/>
        <pt x="95" y="479" on="0"/>
        <pt x="189" y="567" on="0"/>
        <pt x="343" y="624" on="0"/>
        <pt x="453" y="630" on="1"/>
        <pt x="461" y="507" on="1"/>
        <pt x="454" y="507" on="1"/>
        <pt x="362" y="507" on="0"/>
        <pt x="251" y="485" on="0"/>
        <pt x="192" y="439" on="0"/>
        <pt x="174" y="367" on="0"/>
        <pt x="174" y="317" on="1"/>
        <pt x="174" y="192" on="0"/>
        <pt x="309" y="97" on="0"/>
        <pt x="461" y="97" on="1"/>
      </contour>
    </TTGlyph>
    <TTGlyph name="Cacute.sc" xMin="47" yMin="-8" xMax="429" yMax="830">
      <contour>
        <pt x="149" y="654" on="1"/>
        <pt x="167" y="666" on="0"/>
        <pt x="217" y="708" on="0"/>
        <pt x="271" y="757" on="0"/>
        <pt x="322" y="808" on="0"/>
        <pt x="341" y="830" on="1"/>
        <pt x="429" y="740" on="1"/>
        <pt x="406" y="721" on="0"/>
        <pt x="340" y="679" on="0"/>
        <pt x="271" y="640" on="0"/>
        <pt x="204" y="608" on="0"/>
        <pt x="181" y="599" on="1"/>
      </contour>
      <contour>
        <pt x="427" y="89" on="1"/>
        <pt x="416" y="-7" on="1"/>
        <pt x="403" y="-8" on="0"/>
        <pt x="378" y="-8" on="0"/>
        <pt x="366" y="-8" on="1"/>
        <pt x="275" y="-8" on="0"/>
        <pt x="152" y="32" on="0"/>
        <pt x="78" y="102" on="0"/>
        <pt x="47" y="199" on="0"/>
        <pt x="47" y="256" on="1"/>
        <pt x="47" y="310" on="0"/>
        <pt x="85" y="409" on="0"/>
        <pt x="172" y="485" on="0"/>
        <pt x="313" y="534" on="0"/>
        <pt x="415" y="539" on="1"/>
        <pt x="422" y="428" on="1"/>
        <pt x="415" y="428" on="1"/>
        <pt x="333" y="428" on="0"/>
        <pt x="234" y="410" on="0"/>
        <pt x="181" y="373" on="0"/>
        <pt x="164" y="313" on="0"/>
        <pt x="164" y="271" on="1"/>
        <pt x="164" y="169" on="0"/>
        <pt x="285" y="89" on="0"/>
        <pt x="421" y="89" on="1"/>
      </contour>
    </TTGlyph>
    <TTGlyph name="Ccaron" xMin="53" yMin="-10" xMax="470" yMax="895">
      <contour>
        <pt x="299" y="683" on="1"/>
        <pt x="298" y="683" on="1"/>
        <pt x="121" y="821" on="1"/>
        <pt x="196" y="895" on="1"/>
        <pt x="308" y="800" on="1"/>
        <pt x="414" y="894" on="1"/>
        <pt x="470" y="838" on="1"/>
      </contour>
      <contour>
        <pt x="467" y="97" on="1"/>
        <pt x="455" y="-9" on="1"/>
        <pt x="442" y="-10" on="0"/>
        <pt x="417" y="-10" on="0"/>
        <pt x="405" y="-10" on="1"/>
        <pt x="305" y="-10" on="0"/>
        <pt x="169" y="37" on="0"/>
        <pt x="88" y="119" on="0"/>
        <pt x="53" y="233" on="0"/>
        <pt x="53" y="300" on="1"/>
        <pt x="53" y="363" on="0"/>
        <pt x="95" y="479" on="0"/>
        <pt x="189" y="567" on="0"/>
        <pt x="343" y="624" on="0"/>
        <pt x="453" y="630" on="1"/>
        <pt x="461" y="507" on="1"/>
        <pt x="454" y="507" on="1"/>
        <pt x="362" y="507" on="0"/>
        <pt x="251" y="485" on="0"/>
        <pt x="192" y="439" on="0"/>
        <pt x="174" y="367" on="0"/>
        <pt x="174" y="317" on="1"/>
        <pt x="174" y="192" on="0"/>
        <pt x="309" y="97" on="0"/>
        <pt x="461" y="97" on="1"/>
      </contour>
    </TTGlyph>
    <TTGlyph name="Ccaron.sc" xMin="47" yMin="-8" xMax="445" yMax="804">
      <contour>
        <pt x="274" y="592" on="1"/>
        <pt x="273" y="592" on="1"/>
        <pt x="96" y="730" on="1"/>
        <pt x="171" y="804" on="1"/>
        <pt x="283" y="709" on="1"/>
        <pt x="389" y="803" on="1"/>
        <pt x="445" y="747" on="1"/>
      </contour>
      <contour>
        <pt x="427" y="89" on="1"/>
        <pt x="416" y="-7" on="1"/>
        <pt x="403" y="-8" on="0"/>
        <pt x="378" y="-8" on="0"/>
        <pt x="366" y="-8" on="1"/>
        <pt x="275" y="-8" on="0"/>
        <pt x="152" y="32" on="0"/>
        <pt x="78" y="102" on="0"/>
        <pt x="47" y="199" on="0"/>
        <pt x="47" y="256" on="1"/>
        <pt x="47" y="310" on="0"/>
        <pt x="85" y="409" on="0"/>
        <pt x="172" y="485" on="0"/>
        <pt x="313" y="534" on="0"/>
        <pt x="415" y="539" on="1"/>
        <pt x="422" y="428" on="1"/>
        <pt x="415" y="428" on="1"/>
        <pt x="333" y="428" on="0"/>
        <pt x="234" y="410" on="0"/>
        <pt x="181" y="373" on="0"/>
        <pt x="164" y="313" on="0"/>
        <pt x="164" y="271" on="1"/>
        <pt x="164" y="169" on="0"/>
        <pt x="285" y="89" on="0"/>
        <pt x="421" y="89" on="1"/>
      </contour>
    </TTGlyph>
    <TTGlyph name="Ccedilla" xMin="53" yMin="-242" xMax="467" yMax="630">
      <contour>
        <pt x="467" y="97" on="1"/>
        <pt x="455" y="-9" on="1"/>
        <pt x="442" y="-10" on="0"/>
        <pt x="417" y="-10" on="0"/>
        <pt x="405" y="-10" on="1"/>
        <pt x="305" y="-10" on="0"/>
        <pt x="169" y="37" on="0"/>
        <pt x="88" y="119" on="0"/>
        <pt x="53" y="233" on="0"/>
        <pt x="53" y="300" on="1"/>
        <pt x="53" y="363" on="0"/>
        <pt x="95" y="479" on="0"/>
        <pt x="189" y="567" on="0"/>
        <pt x="343" y="624" on="0"/>
        <pt x="453" y="630" on="1"/>
        <pt x="461" y="507" on="1"/>
        <pt x="454" y="507" on="1"/>
        <pt x="362" y="507" on="0"/>
        <pt x="251" y="485" on="0"/>
        <pt x="192" y="439" on="0"/>
        <pt x="174" y="367" on="0"/>
        <pt x="174" y="317" on="1"/>
        <pt x="174" y="192" on="0"/>
        <pt x="309" y="97" on="0"/>
        <pt x="461" y="97" on="1"/>
      </contour>
      <contour>
        <pt x="222" y="-88" on="1"/>
        <pt x="245" y="-28" on="1"/>
        <pt x="326" y="-53" on="0"/>
        <pt x="391" y="-111" on="0"/>
        <pt x="391" y="-145" on="1"/>
        <pt x="391" y="-185" on="0"/>
        <pt x="309" y="-242" on="0"/>
        <pt x="224" y="-242" on="1"/>
        <pt x="217" y="-242" on="0"/>
        <pt x="204" y="-241" on="0"/>
        <pt x="197" y="-241" on="1"/>
        <pt x="196" y="-148" on="1"/>
        <pt x="207" y="-149" on="0"/>
        <pt x="227" y="-149" on="0"/>
        <pt x="236" y="-149" on="1"/>
        <pt x="273" y="-149" on="0"/>
        <pt x="305" y="-141" on="0"/>
        <pt x="305" y="-133" on="1"/>
        <pt x="305" y="-123" on="0"/>
        <pt x="261" y="-101" on="0"/>
      </contour>
    </TTGlyph>
    <TTGlyph name="Ccedilla.sc" xMin="47" yMin="-240" xMax="427" yMax="539">
      <contour>
        <pt x="427" y="89" on="1"/>
        <pt x="416" y="-7" on="1"/>
        <pt x="403" y="-8" on="0"/>
        <pt x="378" y="-8" on="0"/>
        <pt x="366" y="-8" on="1"/>
        <pt x="275" y="-8" on="0"/>
        <pt x="152" y="32" on="0"/>
        <pt x="78" y="102" on="0"/>
        <pt x="47" y="199" on="0"/>
        <pt x="47" y="256" on="1"/>
        <pt x="47" y="310" on="0"/>
        <pt x="85" y="409" on="0"/>
        <pt x="172" y="485" on="0"/>
        <pt x="313" y="534" on="0"/>
        <pt x="415" y="539" on="1"/>
        <pt x="422" y="428" on="1"/>
        <pt x="415" y="428" on="1"/>
        <pt x="333" y="428" on="0"/>
        <pt x="234" y="410" on="0"/>
        <pt x="181" y="373" on="0"/>
        <pt x="164" y="313" on="0"/>
        <pt x="164" y="271" on="1"/>
        <pt x="164" y="169" on="0"/>
        <pt x="285" y="89" on="0"/>
        <pt x="421" y="89" on="1"/>
      </contour>
      <contour>
        <pt x="197" y="-86" on="1"/>
        <pt x="220" y="-26" on="1"/>
        <pt x="301" y="-51" on="0"/>
        <pt x="366" y="-109" on="0"/>
        <pt x="366" y="-143" on="1"/>
        <pt x="366" y="-183" on="0"/>
        <pt x="284" y="-240" on="0"/>
        <pt x="199" y="-240" on="1"/>
        <pt x="192" y="-240" on="0"/>
        <pt x="179" y="-239" on="0"/>
        <pt x="172" y="-239" on="1"/>
        <pt x="171" y="-146" on="1"/>
        <pt x="182" y="-147" on="0"/>
        <pt x="202" y="-147" on="0"/>
        <pt x="211" y="-147" on="1"/>
        <pt x="248" y="-147" on="0"/>
        <pt x="280" y="-139" on="0"/>
        <pt x="280" y="-131" on="1"/>
        <pt x="280" y="-121" on="0"/>
        <pt x="236" y="-99" on="0"/>
      </contour>
    </TTGlyph>
    <TTGlyph name="Cdotaccent" xMin="53" yMin="-10" xMax="467" yMax="840">
      <contour>
        <pt x="355" y="705" on="1"/>
        <pt x="236" y="705" on="1"/>
        <pt x="239" y="840" on="1"/>
        <pt x="358" y="840" on="1"/>
      </contour>
      <contour>
        <pt x="467" y="97" on="1"/>
        <pt x="455" y="-9" on="1"/>
        <pt x="442" y="-10" on="0"/>
        <pt x="417" y="-10" on="0"/>
        <pt x="405" y="-10" on="1"/>
        <pt x="305" y="-10" on="0"/>
        <pt x="169" y="37" on="0"/>
        <pt x="88" y="119" on="0"/>
        <pt x="53" y="233" on="0"/>
        <pt x="53" y="300" on="1"/>
        <pt x="53" y="363" on="0"/>
        <pt x="95" y="479" on="0"/>
        <pt x="189" y="567" on="0"/>
        <pt x="343" y="624" on="0"/>
        <pt x="453" y="630" on="1"/>
        <pt x="461" y="507" on="1"/>
        <pt x="454" y="507" on="1"/>
        <pt x="362" y="507" on="0"/>
        <pt x="251" y="485" on="0"/>
        <pt x="192" y="439" on="0"/>
        <pt x="174" y="367" on="0"/>
        <pt x="174" y="317" on="1"/>
        <pt x="174" y="192" on="0"/>
        <pt x="309" y="97" on="0"/>
        <pt x="461" y="97" on="1"/>
      </contour>
    </TTGlyph>
    <TTGlyph name="Cdotaccent.sc" xMin="47" yMin="-8" xMax="427" yMax="749">
      <contour>
        <pt x="330" y="614" on="1"/>
        <pt x="211" y="614" on="1"/>
        <pt x="214" y="749" on="1"/>
        <pt x="333" y="749" on="1"/>
      </contour>
      <contour>
        <pt x="427" y="89" on="1"/>
        <pt x="416" y="-7" on="1"/>
        <pt x="403" y="-8" on="0"/>
        <pt x="378" y="-8" on="0"/>
        <pt x="366" y="-8" on="1"/>
        <pt x="275" y="-8" on="0"/>
        <pt x="152" y="32" on="0"/>
        <pt x="78" y="102" on="0"/>
        <pt x="47" y="199" on="0"/>
        <pt x="47" y="256" on="1"/>
        <pt x="47" y="310" on="0"/>
        <pt x="85" y="409" on="0"/>
        <pt x="172" y="485" on="0"/>
        <pt x="313" y="534" on="0"/>
        <pt x="415" y="539" on="1"/>
        <pt x="422" y="428" on="1"/>
        <pt x="415" y="428" on="1"/>
        <pt x="333" y="428" on="0"/>
        <pt x="234" y="410" on="0"/>
        <pt x="181" y="373" on="0"/>
        <pt x="164" y="313" on="0"/>
        <pt x="164" y="271" on="1"/>
        <pt x="164" y="169" on="0"/>
        <pt x="285" y="89" on="0"/>
        <pt x="421" y="89" on="1"/>
      </contour>
    </TTGlyph>
    <TTGlyph name="D" xMin="88" yMin="-8" xMax="573" yMax="630">
      <contour>
        <pt x="573" y="320" on="1"/>
        <pt x="573" y="168" on="0"/>
        <pt x="376" y="-8" on="0"/>
        <pt x="199" y="-8" on="1"/>
        <pt x="173" y="-8" on="0"/>
        <pt x="117" y="-4" on="0"/>
        <pt x="88" y="0" on="1"/>
        <pt x="88" y="620" on="1"/>
        <pt x="126" y="625" on="0"/>
        <pt x="196" y="630" on="0"/>
        <pt x="227" y="630" on="1"/>
        <pt x="405" y="630" on="0"/>
        <pt x="573" y="474" on="0"/>
      </contour>
      <contour>
        <pt x="456" y="300" on="1"/>
        <pt x="456" y="405" on="0"/>
        <pt x="365" y="528" on="0"/>
        <pt x="249" y="528" on="1"/>
        <pt x="239" y="528" on="0"/>
        <pt x="216" y="527" on="0"/>
        <pt x="205" y="526" on="1"/>
        <pt x="205" y="98" on="1"/>
        <pt x="222" y="96" on="0"/>
        <pt x="253" y="94" on="0"/>
        <pt x="268" y="94" on="1"/>
        <pt x="373" y="94" on="0"/>
        <pt x="456" y="199" on="0"/>
      </contour>
    </TTGlyph>
    <TTGlyph name="D.sc" xMin="79" yMin="-7" xMax="524" yMax="538">
      <contour>
        <pt x="524" y="274" on="1"/>
        <pt x="524" y="144" on="0"/>
        <pt x="349" y="-7" on="0"/>
        <pt x="183" y="-7" on="1"/>
        <pt x="159" y="-7" on="0"/>
        <pt x="107" y="-4" on="0"/>
        <pt x="79" y="0" on="1"/>
        <pt x="79" y="530" on="1"/>
        <pt x="114" y="534" on="0"/>
        <pt x="178" y="538" on="0"/>
        <pt x="207" y="538" on="1"/>
        <pt x="370" y="538" on="0"/>
        <pt x="524" y="405" on="0"/>
      </contour>
      <contour>
        <pt x="408" y="257" on="1"/>
        <pt x="408" y="344" on="0"/>
        <pt x="331" y="445" on="0"/>
        <pt x="231" y="445" on="1"/>
        <pt x="222" y="445" on="0"/>
        <pt x="204" y="445" on="0"/>
        <pt x="195" y="444" on="1"/>
        <pt x="195" y="90" on="1"/>
        <pt x="209" y="89" on="0"/>
        <pt x="236" y="87" on="0"/>
        <pt x="248" y="87" on="1"/>
        <pt x="337" y="87" on="0"/>
        <pt x="408" y="173" on="0"/>
      </contour>
    </TTGlyph>
    <TTGlyph name="Dcaron" xMin="88" yMin="-8" xMax="573" yMax="895">
      <contour>
        <pt x="303" y="683" on="1"/>
        <pt x="302" y="683" on="1"/>
        <pt x="125" y="821" on="1"/>
        <pt x="200" y="895" on="1"/>
        <pt x="312" y="800" on="1"/>
        <pt x="418" y="894" on="1"/>
        <pt x="474" y="838" on="1"/>
      </contour>
      <contour>
        <pt x="573" y="320" on="1"/>
        <pt x="573" y="168" on="0"/>
        <pt x="376" y="-8" on="0"/>
        <pt x="199" y="-8" on="1"/>
        <pt x="173" y="-8" on="0"/>
        <pt x="117" y="-4" on="0"/>
        <pt x="88" y="0" on="1"/>
        <pt x="88" y="620" on="1"/>
        <pt x="126" y="625" on="0"/>
        <pt x="196" y="630" on="0"/>
        <pt x="227" y="630" on="1"/>
        <pt x="405" y="630" on="0"/>
        <pt x="573" y="474" on="0"/>
      </contour>
      <contour>
        <pt x="456" y="300" on="1"/>
        <pt x="456" y="405" on="0"/>
        <pt x="365" y="528" on="0"/>
        <pt x="249" y="528" on="1"/>
        <pt x="239" y="528" on="0"/>
        <pt x="216" y="527" on="0"/>
        <pt x="205" y="526" on="1"/>
        <pt x="205" y="98" on="1"/>
        <pt x="222" y="96" on="0"/>
        <pt x="253" y="94" on="0"/>
        <pt x="268" y="94" on="1"/>
        <pt x="373" y="94" on="0"/>
        <pt x="456" y="199" on="0"/>
      </contour>
    </TTGlyph>
    <TTGlyph name="Dcaron.sc" xMin="79" yMin="-7" xMax="524" yMax="803">
      <contour>
        <pt x="277" y="591" on="1"/>
        <pt x="276" y="591" on="1"/>
        <pt x="99" y="729" on="1"/>
        <pt x="174" y="803" on="1"/>
        <pt x="286" y="708" on="1"/>
        <pt x="392" y="802" on="1"/>
        <pt x="448" y="746" on="1"/>
      </contour>
      <contour>
        <pt x="524" y="274" on="1"/>
        <pt x="524" y="144" on="0"/>
        <pt x="349" y="-7" on="0"/>
        <pt x="183" y="-7" on="1"/>
        <pt x="159" y="-7" on="0"/>
        <pt x="107" y="-4" on="0"/>
        <pt x="79" y="0" on="1"/>
        <pt x="79" y="530" on="1"/>
        <pt x="114" y="534" on="0"/>
        <pt x="178" y="538" on="0"/>
        <pt x="207" y="538" on="1"/>
        <pt x="370" y="538" on="0"/>
        <pt x="524" y="405" on="0"/>
      </contour>
      <contour>
        <pt x="408" y="257" on="1"/>
        <pt x="408" y="344" on="0"/>
        <pt x="331" y="445" on="0"/>
        <pt x="231" y="445" on="1"/>
        <pt x="222" y="445" on="0"/>
        <pt x="204" y="445" on="0"/>
        <pt x="195" y="444" on="1"/>
        <pt x="195" y="90" on="1"/>
        <pt x="209" y="89" on="0"/>
        <pt x="236" y="87" on="0"/>
        <pt x="248" y="87" on="1"/>
        <pt x="337" y="87" on="0"/>
        <pt x="408" y="173" on="0"/>
      </contour>
    </TTGlyph>
    <TTGlyph name="Dcroat" xMin="26" yMin="-8" xMax="573" yMax="630">
      <contour>
        <pt x="199" y="-8" on="1"/>
        <pt x="173" y="-8" on="0"/>
        <pt x="117" y="-4" on="0"/>
        <pt x="88" y="0" on="1"/>
        <pt x="88" y="266" on="1"/>
        <pt x="26" y="266" on="1"/>
        <pt x="26" y="357" on="1"/>
        <pt x="88" y="357" on="1"/>
        <pt x="88" y="620" on="1"/>
        <pt x="126" y="625" on="0"/>
        <pt x="196" y="630" on="0"/>
        <pt x="227" y="630" on="1"/>
        <pt x="405" y="630" on="0"/>
        <pt x="573" y="474" on="0"/>
        <pt x="573" y="320" on="1"/>
        <pt x="573" y="168" on="0"/>
        <pt x="376" y="-8" on="0"/>
      </contour>
      <contour>
        <pt x="268" y="94" on="1"/>
        <pt x="373" y="94" on="0"/>
        <pt x="456" y="199" on="0"/>
        <pt x="456" y="300" on="1"/>
        <pt x="456" y="405" on="0"/>
        <pt x="365" y="528" on="0"/>
        <pt x="249" y="528" on="1"/>
        <pt x="239" y="528" on="0"/>
        <pt x="216" y="527" on="0"/>
        <pt x="205" y="526" on="1"/>
        <pt x="205" y="357" on="1"/>
        <pt x="336" y="357" on="1"/>
        <pt x="330" y="266" on="1"/>
        <pt x="205" y="266" on="1"/>
        <pt x="205" y="98" on="1"/>
        <pt x="222" y="96" on="0"/>
        <pt x="253" y="94" on="0"/>
      </contour>
    </TTGlyph>
    <TTGlyph name="Dcroat.sc" xMin="25" yMin="-7" xMax="524" yMax="538">
      <contour>
        <pt x="183" y="-7" on="1"/>
        <pt x="159" y="-7" on="0"/>
        <pt x="107" y="-4" on="0"/>
        <pt x="79" y="0" on="1"/>
        <pt x="79" y="226" on="1"/>
        <pt x="25" y="226" on="1"/>
        <pt x="25" y="308" on="1"/>
        <pt x="79" y="308" on="1"/>
        <pt x="79" y="530" on="1"/>
        <pt x="114" y="534" on="0"/>
        <pt x="178" y="538" on="0"/>
        <pt x="207" y="538" on="1"/>
        <pt x="370" y="538" on="0"/>
        <pt x="524" y="405" on="0"/>
        <pt x="524" y="274" on="1"/>
        <pt x="524" y="144" on="0"/>
        <pt x="349" y="-7" on="0"/>
      </contour>
      <contour>
        <pt x="248" y="87" on="1"/>
        <pt x="337" y="87" on="0"/>
        <pt x="408" y="173" on="0"/>
        <pt x="408" y="257" on="1"/>
        <pt x="408" y="344" on="0"/>
        <pt x="331" y="445" on="0"/>
        <pt x="231" y="445" on="1"/>
        <pt x="222" y="445" on="0"/>
        <pt x="204" y="445" on="0"/>
        <pt x="195" y="444" on="1"/>
        <pt x="195" y="308" on="1"/>
        <pt x="300" y="308" on="1"/>
        <pt x="295" y="226" on="1"/>
        <pt x="195" y="226" on="1"/>
        <pt x="195" y="90" on="1"/>
        <pt x="209" y="89" on="0"/>
        <pt x="236" y="87" on="0"/>
      </contour>
    </TTGlyph>
    <TTGlyph name="E" xMin="88" yMin="0" xMax="460" yMax="620">
      <contour>
        <pt x="460" y="105" on="1"/>
        <pt x="449" y="0" on="1"/>
        <pt x="88" y="0" on="1"/>
        <pt x="88" y="620" on="1"/>
        <pt x="454" y="620" on="1"/>
        <pt x="454" y="515" on="1"/>
        <pt x="205" y="515" on="1"/>
        <pt x="205" y="357" on="1"/>
        <pt x="419" y="357" on="1"/>
        <pt x="419" y="266" on="1"/>
        <pt x="205" y="266" on="1"/>
        <pt x="205" y="105" on="1"/>
      </contour>
    </TTGlyph>
    <TTGlyph name="E.sc" xMin="79" yMin="0" xMax="422" yMax="530">
      <contour>
        <pt x="422" y="97" on="1"/>
        <pt x="412" y="0" on="1"/>
        <pt x="79" y="0" on="1"/>
        <pt x="79" y="530" on="1"/>
        <pt x="417" y="530" on="1"/>
        <pt x="417" y="433" on="1"/>
        <pt x="195" y="433" on="1"/>
        <pt x="195" y="307" on="1"/>
        <pt x="384" y="307" on="1"/>
        <pt x="384" y="226" on="1"/>
        <pt x="195" y="226" on="1"/>
        <pt x="195" y="97" on="1"/>
      </contour>
    </TTGlyph>
    <TTGlyph name="Eacute" xMin="88" yMin="0" xMax="460" yMax="911">
      <contour>
        <pt x="149" y="735" on="1"/>
        <pt x="167" y="747" on="0"/>
        <pt x="217" y="789" on="0"/>
        <pt x="271" y="838" on="0"/>
        <pt x="322" y="889" on="0"/>
        <pt x="341" y="911" on="1"/>
        <pt x="429" y="821" on="1"/>
        <pt x="406" y="802" on="0"/>
        <pt x="340" y="760" on="0"/>
        <pt x="271" y="721" on="0"/>
        <pt x="204" y="689" on="0"/>
        <pt x="181" y="680" on="1"/>
      </contour>
      <contour>
        <pt x="460" y="105" on="1"/>
        <pt x="449" y="0" on="1"/>
        <pt x="88" y="0" on="1"/>
        <pt x="88" y="620" on="1"/>
        <pt x="454" y="620" on="1"/>
        <pt x="454" y="515" on="1"/>
        <pt x="205" y="515" on="1"/>
        <pt x="205" y="357" on="1"/>
        <pt x="419" y="357" on="1"/>
        <pt x="419" y="266" on="1"/>
        <pt x="205" y="266" on="1"/>
        <pt x="205" y="105" on="1"/>
      </contour>
    </TTGlyph>
    <TTGlyph name="Eacute.sc" xMin="79" yMin="0" xMax="422" yMax="821">
      <contour>
        <pt x="126" y="645" on="1"/>
        <pt x="144" y="657" on="0"/>
        <pt x="194" y="699" on="0"/>
        <pt x="248" y="748" on="0"/>
        <pt x="299" y="799" on="0"/>
        <pt x="318" y="821" on="1"/>
        <pt x="406" y="731" on="1"/>
        <pt x="383" y="712" on="0"/>
        <pt x="317" y="670" on="0"/>
        <pt x="248" y="631" on="0"/>
        <pt x="181" y="599" on="0"/>
        <pt x="158" y="590" on="1"/>
      </contour>
      <contour>
        <pt x="422" y="97" on="1"/>
        <pt x="412" y="0" on="1"/>
        <pt x="79" y="0" on="1"/>
        <pt x="79" y="530" on="1"/>
        <pt x="417" y="530" on="1"/>
        <pt x="417" y="433" on="1"/>
        <pt x="195" y="433" on="1"/>
        <pt x="195" y="307" on="1"/>
        <pt x="384" y="307" on="1"/>
        <pt x="384" y="226" on="1"/>
        <pt x="195" y="226" on="1"/>
        <pt x="195" y="97" on="1"/>
      </contour>
    </TTGlyph>
    <TTGlyph name="Ebreve" xMin="86" yMin="0" xMax="460" yMax="880">
      <contour>
        <pt x="269" y="684" on="1"/>
        <pt x="220" y="684" on="0"/>
        <pt x="123" y="754" on="0"/>
        <pt x="86" y="826" on="1"/>
        <pt x="169" y="880" on="1"/>
        <pt x="200" y="828" on="0"/>
        <pt x="250" y="780" on="0"/>
        <pt x="281" y="780" on="1"/>
        <pt x="312" y="780" on="0"/>
        <pt x="362" y="829" on="0"/>
        <pt x="390" y="874" on="1"/>
        <pt x="457" y="835" on="1"/>
        <pt x="417" y="763" on="0"/>
        <pt x="318" y="684" on="0"/>
      </contour>
      <contour>
        <pt x="460" y="105" on="1"/>
        <pt x="449" y="0" on="1"/>
        <pt x="88" y="0" on="1"/>
        <pt x="88" y="620" on="1"/>
        <pt x="454" y="620" on="1"/>
        <pt x="454" y="515" on="1"/>
        <pt x="205" y="515" on="1"/>
        <pt x="205" y="357" on="1"/>
        <pt x="419" y="357" on="1"/>
        <pt x="419" y="266" on="1"/>
        <pt x="205" y="266" on="1"/>
        <pt x="205" y="105" on="1"/>
      </contour>
    </TTGlyph>
    <TTGlyph name="Ebreve.sc" xMin="63" yMin="0" xMax="434" yMax="790">
      <contour>
        <pt x="246" y="594" on="1"/>
        <pt x="197" y="594" on="0"/>
        <pt x="100" y="664" on="0"/>
        <pt x="63" y="736" on="1"/>
        <pt x="146" y="790" on="1"/>
        <pt x="177" y="738" on="0"/>
        <pt x="227" y="690" on="0"/>
        <pt x="258" y="690" on="1"/>
        <pt x="289" y="690" on="0"/>
        <pt x="339" y="739" on="0"/>
        <pt x="367" y="784" on="1"/>
        <pt x="434" y="745" on="1"/>
        <pt x="394" y="673" on="0"/>
        <pt x="295" y="594" on="0"/>
      </contour>
      <contour>
        <pt x="422" y="97" on="1"/>
        <pt x="412" y="0" on="1"/>
        <pt x="79" y="0" on="1"/>
        <pt x="79" y="530" on="1"/>
        <pt x="417" y="530" on="1"/>
        <pt x="417" y="433" on="1"/>
        <pt x="195" y="433" on="1"/>
        <pt x="195" y="307" on="1"/>
        <pt x="384" y="307" on="1"/>
        <pt x="384" y="226" on="1"/>
        <pt x="195" y="226" on="1"/>
        <pt x="195" y="97" on="1"/>
      </contour>
    </TTGlyph>
    <TTGlyph name="Ecaron" xMin="88" yMin="0" xMax="460" yMax="885">
      <contour>
        <pt x="274" y="673" on="1"/>
        <pt x="273" y="673" on="1"/>
        <pt x="96" y="811" on="1"/>
        <pt x="171" y="885" on="1"/>
        <pt x="283" y="790" on="1"/>
        <pt x="389" y="884" on="1"/>
        <pt x="445" y="828" on="1"/>
      </contour>
      <contour>
        <pt x="460" y="105" on="1"/>
        <pt x="449" y="0" on="1"/>
        <pt x="88" y="0" on="1"/>
        <pt x="88" y="620" on="1"/>
        <pt x="454" y="620" on="1"/>
        <pt x="454" y="515" on="1"/>
        <pt x="205" y="515" on="1"/>
        <pt x="205" y="357" on="1"/>
        <pt x="419" y="357" on="1"/>
        <pt x="419" y="266" on="1"/>
        <pt x="205" y="266" on="1"/>
        <pt x="205" y="105" on="1"/>
      </contour>
    </TTGlyph>
    <TTGlyph name="Ecaron.sc" xMin="73" yMin="0" xMax="422" yMax="795">
      <contour>
        <pt x="251" y="583" on="1"/>
        <pt x="250" y="583" on="1"/>
        <pt x="73" y="721" on="1"/>
        <pt x="148" y="795" on="1"/>
        <pt x="260" y="700" on="1"/>
        <pt x="366" y="794" on="1"/>
        <pt x="422" y="738" on="1"/>
      </contour>
      <contour>
        <pt x="422" y="97" on="1"/>
        <pt x="412" y="0" on="1"/>
        <pt x="79" y="0" on="1"/>
        <pt x="79" y="530" on="1"/>
        <pt x="417" y="530" on="1"/>
        <pt x="417" y="433" on="1"/>
        <pt x="195" y="433" on="1"/>
        <pt x="195" y="307" on="1"/>
        <pt x="384" y="307" on="1"/>
        <pt x="384" y="226" on="1"/>
        <pt x="195" y="226" on="1"/>
        <pt x="195" y="97" on="1"/>
      </contour>
    </TTGlyph>
    <TTGlyph name="Ecircumflex" xMin="88" yMin="0" xMax="460" yMax="894">
      <contour>
        <pt x="374" y="682" on="1"/>
        <pt x="262" y="777" on="1"/>
        <pt x="156" y="683" on="1"/>
        <pt x="100" y="739" on="1"/>
        <pt x="271" y="894" on="1"/>
        <pt x="272" y="894" on="1"/>
        <pt x="449" y="756" on="1"/>
      </contour>
      <contour>
        <pt x="460" y="105" on="1"/>
        <pt x="449" y="0" on="1"/>
        <pt x="88" y="0" on="1"/>
        <pt x="88" y="620" on="1"/>
        <pt x="454" y="620" on="1"/>
        <pt x="454" y="515" on="1"/>
        <pt x="205" y="515" on="1"/>
        <pt x="205" y="357" on="1"/>
        <pt x="419" y="357" on="1"/>
        <pt x="419" y="266" on="1"/>
        <pt x="205" y="266" on="1"/>
        <pt x="205" y="105" on="1"/>
      </contour>
    </TTGlyph>
    <TTGlyph name="Ecircumflex.sc" xMin="77" yMin="0" xMax="426" yMax="804">
      <contour>
        <pt x="351" y="592" on="1"/>
        <pt x="239" y="687" on="1"/>
        <pt x="133" y="593" on="1"/>
        <pt x="77" y="649" on="1"/>
        <pt x="248" y="804" on="1"/>
        <pt x="249" y="804" on="1"/>
        <pt x="426" y="666" on="1"/>
      </contour>
      <contour>
        <pt x="422" y="97" on="1"/>
        <pt x="412" y="0" on="1"/>
        <pt x="79" y="0" on="1"/>
        <pt x="79" y="530" on="1"/>
        <pt x="417" y="530" on="1"/>
        <pt x="417" y="433" on="1"/>
        <pt x="195" y="433" on="1"/>
        <pt x="195" y="307" on="1"/>
        <pt x="384" y="307" on="1"/>
        <pt x="384" y="226" on="1"/>
        <pt x="195" y="226" on="1"/>
        <pt x="195" y="97" on="1"/>
      </contour>
    </TTGlyph>
    <TTGlyph name="Edieresis" xMin="88" yMin="0" xMax="460" yMax="830">
      <contour>
        <pt x="425" y="695" on="1"/>
        <pt x="306" y="695" on="1"/>
        <pt x="309" y="830" on="1"/>
        <pt x="428" y="830" on="1"/>
      </contour>
      <contour>
        <pt x="225" y="695" on="1"/>
        <pt x="106" y="695" on="1"/>
        <pt x="109" y="830" on="1"/>
        <pt x="228" y="830" on="1"/>
      </contour>
      <contour>
        <pt x="460" y="105" on="1"/>
        <pt x="449" y="0" on="1"/>
        <pt x="88" y="0" on="1"/>
        <pt x="88" y="620" on="1"/>
        <pt x="454" y="620" on="1"/>
        <pt x="454" y="515" on="1"/>
        <pt x="205" y="515" on="1"/>
        <pt x="205" y="357" on="1"/>
        <pt x="419" y="357" on="1"/>
        <pt x="419" y="266" on="1"/>
        <pt x="205" y="266" on="1"/>
        <pt x="205" y="105" on="1"/>
      </contour>
    </TTGlyph>
    <TTGlyph name="Edieresis.sc" xMin="79" yMin="0" xMax="422" yMax="740">
      <contour>
        <pt x="402" y="605" on="1"/>
        <pt x="283" y="605" on="1"/>
        <pt x="286" y="740" on="1"/>
        <pt x="405" y="740" on="1"/>
      </contour>
      <contour>
        <pt x="202" y="605" on="1"/>
        <pt x="83" y="605" on="1"/>
        <pt x="86" y="740" on="1"/>
        <pt x="205" y="740" on="1"/>
      </contour>
      <contour>
        <pt x="422" y="97" on="1"/>
        <pt x="412" y="0" on="1"/>
        <pt x="79" y="0" on="1"/>
        <pt x="79" y="530" on="1"/>
        <pt x="417" y="530" on="1"/>
        <pt x="417" y="433" on="1"/>
        <pt x="195" y="433" on="1"/>
        <pt x="195" y="307" on="1"/>
        <pt x="384" y="307" on="1"/>
        <pt x="384" y="226" on="1"/>
        <pt x="195" y="226" on="1"/>
        <pt x="195" y="97" on="1"/>
      </contour>
    </TTGlyph>
    <TTGlyph name="Edotaccent" xMin="88" yMin="0" xMax="460" yMax="830">
      <contour>
        <pt x="330" y="695" on="1"/>
        <pt x="211" y="695" on="1"/>
        <pt x="214" y="830" on="1"/>
        <pt x="333" y="830" on="1"/>
      </contour>
      <contour>
        <pt x="460" y="105" on="1"/>
        <pt x="449" y="0" on="1"/>
        <pt x="88" y="0" on="1"/>
        <pt x="88" y="620" on="1"/>
        <pt x="454" y="620" on="1"/>
        <pt x="454" y="515" on="1"/>
        <pt x="205" y="515" on="1"/>
        <pt x="205" y="357" on="1"/>
        <pt x="419" y="357" on="1"/>
        <pt x="419" y="266" on="1"/>
        <pt x="205" y="266" on="1"/>
        <pt x="205" y="105" on="1"/>
      </contour>
    </TTGlyph>
    <TTGlyph name="Edotaccent.sc" xMin="79" yMin="0" xMax="422" yMax="740">
      <contour>
        <pt x="307" y="605" on="1"/>
        <pt x="188" y="605" on="1"/>
        <pt x="191" y="740" on="1"/>
        <pt x="310" y="740" on="1"/>
      </contour>
      <contour>
        <pt x="422" y="97" on="1"/>
        <pt x="412" y="0" on="1"/>
        <pt x="79" y="0" on="1"/>
        <pt x="79" y="530" on="1"/>
        <pt x="417" y="530" on="1"/>
        <pt x="417" y="433" on="1"/>
        <pt x="195" y="433" on="1"/>
        <pt x="195" y="307" on="1"/>
        <pt x="384" y="307" on="1"/>
        <pt x="384" y="226" on="1"/>
        <pt x="195" y="226" on="1"/>
        <pt x="195" y="97" on="1"/>
      </contour>
    </TTGlyph>
    <TTGlyph name="Egrave" xMin="88" yMin="0" xMax="460" yMax="913">
      <contour>
        <pt x="373" y="733" on="1"/>
        <pt x="338" y="679" on="1"/>
        <pt x="315" y="689" on="0"/>
        <pt x="252" y="722" on="0"/>
        <pt x="184" y="759" on="0"/>
        <pt x="119" y="798" on="0"/>
        <pt x="94" y="814" on="1"/>
        <pt x="173" y="913" on="1"/>
        <pt x="193" y="893" on="0"/>
        <pt x="249" y="841" on="0"/>
        <pt x="306" y="790" on="0"/>
        <pt x="357" y="746" on="0"/>
      </contour>
      <contour>
        <pt x="460" y="105" on="1"/>
        <pt x="449" y="0" on="1"/>
        <pt x="88" y="0" on="1"/>
        <pt x="88" y="620" on="1"/>
        <pt x="454" y="620" on="1"/>
        <pt x="454" y="515" on="1"/>
        <pt x="205" y="515" on="1"/>
        <pt x="205" y="357" on="1"/>
        <pt x="419" y="357" on="1"/>
        <pt x="419" y="266" on="1"/>
        <pt x="205" y="266" on="1"/>
        <pt x="205" y="105" on="1"/>
      </contour>
    </TTGlyph>
    <TTGlyph name="Egrave.sc" xMin="71" yMin="0" xMax="422" yMax="823">
      <contour>
        <pt x="350" y="643" on="1"/>
        <pt x="315" y="589" on="1"/>
        <pt x="292" y="599" on="0"/>
        <pt x="229" y="632" on="0"/>
        <pt x="161" y="669" on="0"/>
        <pt x="96" y="708" on="0"/>
        <pt x="71" y="724" on="1"/>
        <pt x="150" y="823" on="1"/>
        <pt x="170" y="803" on="0"/>
        <pt x="226" y="751" on="0"/>
        <pt x="283" y="700" on="0"/>
        <pt x="334" y="656" on="0"/>
      </contour>
      <contour>
        <pt x="422" y="97" on="1"/>
        <pt x="412" y="0" on="1"/>
        <pt x="79" y="0" on="1"/>
        <pt x="79" y="530" on="1"/>
        <pt x="417" y="530" on="1"/>
        <pt x="417" y="433" on="1"/>
        <pt x="195" y="433" on="1"/>
        <pt x="195" y="307" on="1"/>
        <pt x="384" y="307" on="1"/>
        <pt x="384" y="226" on="1"/>
        <pt x="195" y="226" on="1"/>
        <pt x="195" y="97" on="1"/>
      </contour>
    </TTGlyph>
    <TTGlyph name="Emacron" xMin="88" yMin="0" xMax="460" yMax="815">
      <contour>
        <pt x="426" y="815" on="1"/>
        <pt x="426" y="711" on="1"/>
        <pt x="104" y="711" on="1"/>
        <pt x="104" y="815" on="1"/>
      </contour>
      <contour>
        <pt x="460" y="105" on="1"/>
        <pt x="449" y="0" on="1"/>
        <pt x="88" y="0" on="1"/>
        <pt x="88" y="620" on="1"/>
        <pt x="454" y="620" on="1"/>
        <pt x="454" y="515" on="1"/>
        <pt x="205" y="515" on="1"/>
        <pt x="205" y="357" on="1"/>
        <pt x="419" y="357" on="1"/>
        <pt x="419" y="266" on="1"/>
        <pt x="205" y="266" on="1"/>
        <pt x="205" y="105" on="1"/>
      </contour>
    </TTGlyph>
    <TTGlyph name="Emacron.sc" xMin="79" yMin="0" xMax="422" yMax="725">
      <contour>
        <pt x="403" y="725" on="1"/>
        <pt x="403" y="621" on="1"/>
        <pt x="81" y="621" on="1"/>
        <pt x="81" y="725" on="1"/>
      </contour>
      <contour>
        <pt x="422" y="97" on="1"/>
        <pt x="412" y="0" on="1"/>
        <pt x="79" y="0" on="1"/>
        <pt x="79" y="530" on="1"/>
        <pt x="417" y="530" on="1"/>
        <pt x="417" y="433" on="1"/>
        <pt x="195" y="433" on="1"/>
        <pt x="195" y="307" on="1"/>
        <pt x="384" y="307" on="1"/>
        <pt x="384" y="226" on="1"/>
        <pt x="195" y="226" on="1"/>
        <pt x="195" y="97" on="1"/>
      </contour>
    </TTGlyph>
    <TTGlyph name="Eogonek" xMin="88" yMin="-223" xMax="460" yMax="620">
      <contour>
        <pt x="441" y="-130" on="1"/>
        <pt x="431" y="-223" on="1"/>
        <pt x="317" y="-214" on="0"/>
        <pt x="230" y="-154" on="0"/>
        <pt x="230" y="-114" on="1"/>
        <pt x="230" y="-86" on="0"/>
        <pt x="270" y="-29" on="0"/>
        <pt x="316" y="0" on="1"/>
        <pt x="88" y="0" on="1"/>
        <pt x="88" y="620" on="1"/>
        <pt x="454" y="620" on="1"/>
        <pt x="454" y="515" on="1"/>
        <pt x="205" y="515" on="1"/>
        <pt x="205" y="357" on="1"/>
        <pt x="419" y="357" on="1"/>
        <pt x="419" y="266" on="1"/>
        <pt x="205" y="266" on="1"/>
        <pt x="205" y="105" on="1"/>
        <pt x="460" y="105" on="1"/>
        <pt x="449" y="0" on="1"/>
        <pt x="380" y="-29" on="0"/>
        <pt x="331" y="-71" on="0"/>
        <pt x="331" y="-87" on="1"/>
        <pt x="331" y="-105" on="0"/>
        <pt x="387" y="-123" on="0"/>
      </contour>
    </TTGlyph>
    <TTGlyph name="Eogonek.sc" xMin="79" yMin="-223" xMax="422" yMax="530">
      <contour>
        <pt x="404" y="-130" on="1"/>
        <pt x="394" y="-223" on="1"/>
        <pt x="280" y="-214" on="0"/>
        <pt x="193" y="-154" on="0"/>
        <pt x="193" y="-114" on="1"/>
        <pt x="193" y="-86" on="0"/>
        <pt x="233" y="-29" on="0"/>
        <pt x="279" y="0" on="1"/>
        <pt x="79" y="0" on="1"/>
        <pt x="79" y="530" on="1"/>
        <pt x="417" y="530" on="1"/>
        <pt x="417" y="433" on="1"/>
        <pt x="195" y="433" on="1"/>
        <pt x="195" y="307" on="1"/>
        <pt x="384" y="307" on="1"/>
        <pt x="384" y="226" on="1"/>
        <pt x="195" y="226" on="1"/>
        <pt x="195" y="97" on="1"/>
        <pt x="422" y="97" on="1"/>
        <pt x="412" y="0" on="1"/>
        <pt x="343" y="-29" on="0"/>
        <pt x="294" y="-71" on="0"/>
        <pt x="294" y="-87" on="1"/>
        <pt x="294" y="-105" on="0"/>
        <pt x="350" y="-123" on="0"/>
      </contour>
    </TTGlyph>
    <TTGlyph name="Eth" xMin="26" yMin="-8" xMax="573" yMax="630">
      <contour>
        <pt x="199" y="-8" on="1"/>
        <pt x="173" y="-8" on="0"/>
        <pt x="117" y="-4" on="0"/>
        <pt x="88" y="0" on="1"/>
        <pt x="88" y="266" on="1"/>
        <pt x="26" y="266" on="1"/>
        <pt x="26" y="357" on="1"/>
        <pt x="88" y="357" on="1"/>
        <pt x="88" y="620" on="1"/>
        <pt x="126" y="625" on="0"/>
        <pt x="196" y="630" on="0"/>
        <pt x="227" y="630" on="1"/>
        <pt x="405" y="630" on="0"/>
        <pt x="573" y="474" on="0"/>
        <pt x="573" y="320" on="1"/>
        <pt x="573" y="168" on="0"/>
        <pt x="376" y="-8" on="0"/>
      </contour>
      <contour>
        <pt x="268" y="94" on="1"/>
        <pt x="373" y="94" on="0"/>
        <pt x="456" y="199" on="0"/>
        <pt x="456" y="300" on="1"/>
        <pt x="456" y="405" on="0"/>
        <pt x="365" y="528" on="0"/>
        <pt x="249" y="528" on="1"/>
        <pt x="239" y="528" on="0"/>
        <pt x="216" y="527" on="0"/>
        <pt x="205" y="526" on="1"/>
        <pt x="205" y="357" on="1"/>
        <pt x="336" y="357" on="1"/>
        <pt x="330" y="266" on="1"/>
        <pt x="205" y="266" on="1"/>
        <pt x="205" y="98" on="1"/>
        <pt x="222" y="96" on="0"/>
        <pt x="253" y="94" on="0"/>
      </contour>
    </TTGlyph>
    <TTGlyph name="Eth.sc" xMin="25" yMin="-7" xMax="524" yMax="538">
      <contour>
        <pt x="183" y="-7" on="1"/>
        <pt x="159" y="-7" on="0"/>
        <pt x="107" y="-4" on="0"/>
        <pt x="79" y="0" on="1"/>
        <pt x="79" y="226" on="1"/>
        <pt x="25" y="226" on="1"/>
        <pt x="25" y="308" on="1"/>
        <pt x="79" y="308" on="1"/>
        <pt x="79" y="530" on="1"/>
        <pt x="114" y="534" on="0"/>
        <pt x="178" y="538" on="0"/>
        <pt x="207" y="538" on="1"/>
        <pt x="370" y="538" on="0"/>
        <pt x="524" y="405" on="0"/>
        <pt x="524" y="274" on="1"/>
        <pt x="524" y="144" on="0"/>
        <pt x="349" y="-7" on="0"/>
      </contour>
      <contour>
        <pt x="248" y="87" on="1"/>
        <pt x="337" y="87" on="0"/>
        <pt x="408" y="173" on="0"/>
        <pt x="408" y="257" on="1"/>
        <pt x="408" y="344" on="0"/>
        <pt x="331" y="445" on="0"/>
        <pt x="231" y="445" on="1"/>
        <pt x="222" y="445" on="0"/>
        <pt x="204" y="445" on="0"/>
        <pt x="195" y="444" on="1"/>
        <pt x="195" y="308" on="1"/>
        <pt x="300" y="308" on="1"/>
        <pt x="295" y="226" on="1"/>
        <pt x="195" y="226" on="1"/>
        <pt x="195" y="90" on="1"/>
        <pt x="209" y="89" on="0"/>
        <pt x="236" y="87" on="0"/>
      </contour>
    </TTGlyph>
    <TTGlyph name="Euro" xMin="52" yMin="-23" xMax="482" yMax="645">
      <contour>
        <pt x="482" y="76" on="1"/>
        <pt x="465" y="-23" on="1"/>
        <pt x="310" y="-7" on="0"/>
        <pt x="156" y="89" on="0"/>
        <pt x="129" y="167" on="1"/>
        <pt x="53" y="167" on="1"/>
        <pt x="53" y="267" on="1"/>
        <pt x="110" y="267" on="1"/>
        <pt x="109" y="277" on="0"/>
        <pt x="109" y="300" on="0"/>
        <pt x="109" y="312" on="1"/>
        <pt x="109" y="317" on="0"/>
        <pt x="109" y="328" on="0"/>
        <pt x="109" y="333" on="1"/>
        <pt x="52" y="333" on="1"/>
        <pt x="52" y="433" on="1"/>
        <pt x="125" y="433" on="1"/>
        <pt x="149" y="505" on="0"/>
        <pt x="297" y="614" on="0"/>
        <pt x="454" y="645" on="1"/>
        <pt x="474" y="526" on="1"/>
        <pt x="355" y="509" on="0"/>
        <pt x="247" y="467" on="0"/>
        <pt x="231" y="423" on="1"/>
        <pt x="443" y="423" on="1"/>
        <pt x="438" y="333" on="1"/>
        <pt x="219" y="333" on="1"/>
        <pt x="219" y="329" on="0"/>
        <pt x="219" y="319" on="0"/>
        <pt x="219" y="315" on="1"/>
        <pt x="219" y="303" on="0"/>
        <pt x="219" y="280" on="0"/>
        <pt x="220" y="270" on="1"/>
        <pt x="434" y="270" on="1"/>
        <pt x="429" y="180" on="1"/>
        <pt x="241" y="180" on="1"/>
        <pt x="263" y="142" on="0"/>
        <pt x="372" y="92" on="0"/>
      </contour>
    </TTGlyph>
    <TTGlyph name="F" xMin="88" yMin="0" xMax="454" yMax="620">
      <contour>
        <pt x="419" y="256" on="1"/>
        <pt x="205" y="256" on="1"/>
        <pt x="205" y="0" on="1"/>
        <pt x="88" y="0" on="1"/>
        <pt x="88" y="620" on="1"/>
        <pt x="454" y="620" on="1"/>
        <pt x="454" y="515" on="1"/>
        <pt x="205" y="515" on="1"/>
        <pt x="205" y="347" on="1"/>
        <pt x="419" y="347" on="1"/>
      </contour>
    </TTGlyph>
    <TTGlyph name="F.sc" xMin="79" yMin="0" xMax="416" yMax="530">
      <contour>
        <pt x="384" y="214" on="1"/>
        <pt x="195" y="214" on="1"/>
        <pt x="195" y="0" on="1"/>
        <pt x="79" y="0" on="1"/>
        <pt x="79" y="530" on="1"/>
        <pt x="416" y="530" on="1"/>
        <pt x="416" y="432" on="1"/>
        <pt x="195" y="432" on="1"/>
        <pt x="195" y="298" on="1"/>
        <pt x="384" y="298" on="1"/>
      </contour>
    </TTGlyph>
    <TTGlyph name="G" xMin="53" yMin="-10" xMax="539" yMax="630">
      <contour>
        <pt x="539" y="10" on="1"/>
        <pt x="498" y="0" on="0"/>
        <pt x="420" y="-10" on="0"/>
        <pt x="384" y="-10" on="1"/>
        <pt x="310" y="-10" on="0"/>
        <pt x="188" y="31" on="0"/>
        <pt x="101" y="108" on="0"/>
        <pt x="53" y="221" on="0"/>
        <pt x="53" y="293" on="1"/>
        <pt x="53" y="359" on="0"/>
        <pt x="97" y="480" on="0"/>
        <pt x="200" y="572" on="0"/>
        <pt x="372" y="628" on="0"/>
        <pt x="498" y="630" on="1"/>
        <pt x="506" y="507" on="1"/>
        <pt x="487" y="508" on="0"/>
        <pt x="453" y="509" on="0"/>
        <pt x="437" y="509" on="1"/>
        <pt x="352" y="509" on="0"/>
        <pt x="247" y="485" on="0"/>
        <pt x="191" y="437" on="0"/>
        <pt x="173" y="365" on="0"/>
        <pt x="173" y="318" on="1"/>
        <pt x="173" y="208" on="0"/>
        <pt x="295" y="88" on="0"/>
        <pt x="417" y="88" on="1"/>
        <pt x="419" y="88" on="0"/>
        <pt x="424" y="88" on="0"/>
        <pt x="425" y="88" on="1"/>
        <pt x="424" y="110" on="0"/>
        <pt x="423" y="166" on="0"/>
        <pt x="422" y="225" on="0"/>
        <pt x="421" y="285" on="0"/>
        <pt x="421" y="310" on="1"/>
        <pt x="538" y="310" on="1"/>
        <pt x="538" y="214" on="0"/>
        <pt x="539" y="70" on="0"/>
      </contour>
    </TTGlyph>
    <TTGlyph name="G.sc" xMin="47" yMin="-8" xMax="490" yMax="539">
      <contour>
        <pt x="490" y="8" on="1"/>
        <pt x="453" y="0" on="0"/>
        <pt x="382" y="-8" on="0"/>
        <pt x="349" y="-8" on="1"/>
        <pt x="211" y="-8" on="0"/>
        <pt x="47" y="128" on="0"/>
        <pt x="47" y="250" on="1"/>
        <pt x="47" y="307" on="0"/>
        <pt x="87" y="411" on="0"/>
        <pt x="181" y="489" on="0"/>
        <pt x="338" y="538" on="0"/>
        <pt x="453" y="539" on="1"/>
        <pt x="460" y="428" on="1"/>
        <pt x="443" y="429" on="0"/>
        <pt x="412" y="429" on="0"/>
        <pt x="397" y="429" on="1"/>
        <pt x="322" y="429" on="0"/>
        <pt x="230" y="409" on="0"/>
        <pt x="180" y="370" on="0"/>
        <pt x="164" y="311" on="0"/>
        <pt x="164" y="271" on="1"/>
        <pt x="164" y="179" on="0"/>
        <pt x="272" y="80" on="0"/>
        <pt x="381" y="80" on="1"/>
        <pt x="380" y="117" on="0"/>
        <pt x="377" y="223" on="0"/>
        <pt x="377" y="265" on="1"/>
        <pt x="489" y="265" on="1"/>
        <pt x="489" y="184" on="0"/>
        <pt x="490" y="59" on="0"/>
      </contour>
    </TTGlyph>
    <TTGlyph name="Gbreve" xMin="53" yMin="-10" xMax="539" yMax="890">
      <contour>
        <pt x="328" y="694" on="1"/>
        <pt x="279" y="694" on="0"/>
        <pt x="182" y="764" on="0"/>
        <pt x="145" y="836" on="1"/>
        <pt x="228" y="890" on="1"/>
        <pt x="259" y="838" on="0"/>
        <pt x="309" y="790" on="0"/>
        <pt x="340" y="790" on="1"/>
        <pt x="371" y="790" on="0"/>
        <pt x="421" y="839" on="0"/>
        <pt x="449" y="884" on="1"/>
        <pt x="516" y="845" on="1"/>
        <pt x="476" y="773" on="0"/>
        <pt x="377" y="694" on="0"/>
      </contour>
      <contour>
        <pt x="539" y="10" on="1"/>
        <pt x="498" y="0" on="0"/>
        <pt x="420" y="-10" on="0"/>
        <pt x="384" y="-10" on="1"/>
        <pt x="310" y="-10" on="0"/>
        <pt x="188" y="31" on="0"/>
        <pt x="101" y="108" on="0"/>
        <pt x="53" y="221" on="0"/>
        <pt x="53" y="293" on="1"/>
        <pt x="53" y="359" on="0"/>
        <pt x="97" y="480" on="0"/>
        <pt x="200" y="572" on="0"/>
        <pt x="372" y="628" on="0"/>
        <pt x="498" y="630" on="1"/>
        <pt x="506" y="507" on="1"/>
        <pt x="487" y="508" on="0"/>
        <pt x="453" y="509" on="0"/>
        <pt x="437" y="509" on="1"/>
        <pt x="352" y="509" on="0"/>
        <pt x="247" y="485" on="0"/>
        <pt x="191" y="437" on="0"/>
        <pt x="173" y="365" on="0"/>
        <pt x="173" y="318" on="1"/>
        <pt x="173" y="208" on="0"/>
        <pt x="295" y="88" on="0"/>
        <pt x="417" y="88" on="1"/>
        <pt x="419" y="88" on="0"/>
        <pt x="424" y="88" on="0"/>
        <pt x="425" y="88" on="1"/>
        <pt x="424" y="110" on="0"/>
        <pt x="423" y="166" on="0"/>
        <pt x="422" y="225" on="0"/>
        <pt x="421" y="285" on="0"/>
        <pt x="421" y="310" on="1"/>
        <pt x="538" y="310" on="1"/>
        <pt x="538" y="214" on="0"/>
        <pt x="539" y="70" on="0"/>
      </contour>
    </TTGlyph>
    <TTGlyph name="Gbreve.sc" xMin="47" yMin="-8" xMax="490" yMax="799">
      <contour>
        <pt x="298" y="603" on="1"/>
        <pt x="249" y="603" on="0"/>
        <pt x="152" y="673" on="0"/>
        <pt x="115" y="745" on="1"/>
        <pt x="198" y="799" on="1"/>
        <pt x="229" y="747" on="0"/>
        <pt x="279" y="699" on="0"/>
        <pt x="310" y="699" on="1"/>
        <pt x="341" y="699" on="0"/>
        <pt x="391" y="748" on="0"/>
        <pt x="419" y="793" on="1"/>
        <pt x="486" y="754" on="1"/>
        <pt x="446" y="682" on="0"/>
        <pt x="347" y="603" on="0"/>
      </contour>
      <contour>
        <pt x="490" y="8" on="1"/>
        <pt x="453" y="0" on="0"/>
        <pt x="382" y="-8" on="0"/>
        <pt x="349" y="-8" on="1"/>
        <pt x="211" y="-8" on="0"/>
        <pt x="47" y="128" on="0"/>
        <pt x="47" y="250" on="1"/>
        <pt x="47" y="307" on="0"/>
        <pt x="87" y="411" on="0"/>
        <pt x="181" y="489" on="0"/>
        <pt x="338" y="538" on="0"/>
        <pt x="453" y="539" on="1"/>
        <pt x="460" y="428" on="1"/>
        <pt x="443" y="429" on="0"/>
        <pt x="412" y="429" on="0"/>
        <pt x="397" y="429" on="1"/>
        <pt x="322" y="429" on="0"/>
        <pt x="230" y="409" on="0"/>
        <pt x="180" y="370" on="0"/>
        <pt x="164" y="311" on="0"/>
        <pt x="164" y="271" on="1"/>
        <pt x="164" y="179" on="0"/>
        <pt x="272" y="80" on="0"/>
        <pt x="381" y="80" on="1"/>
        <pt x="380" y="117" on="0"/>
        <pt x="377" y="223" on="0"/>
        <pt x="377" y="265" on="1"/>
        <pt x="489" y="265" on="1"/>
        <pt x="489" y="184" on="0"/>
        <pt x="490" y="59" on="0"/>
      </contour>
    </TTGlyph>
    <TTGlyph name="Gcommaaccent" xMin="53" yMin="-291" xMax="539" yMax="630">
      <contour>
        <pt x="539" y="10" on="1"/>
        <pt x="498" y="0" on="0"/>
        <pt x="420" y="-10" on="0"/>
        <pt x="384" y="-10" on="1"/>
        <pt x="310" y="-10" on="0"/>
        <pt x="188" y="31" on="0"/>
        <pt x="101" y="108" on="0"/>
        <pt x="53" y="221" on="0"/>
        <pt x="53" y="293" on="1"/>
        <pt x="53" y="359" on="0"/>
        <pt x="97" y="480" on="0"/>
        <pt x="200" y="572" on="0"/>
        <pt x="372" y="628" on="0"/>
        <pt x="498" y="630" on="1"/>
        <pt x="506" y="507" on="1"/>
        <pt x="487" y="508" on="0"/>
        <pt x="453" y="509" on="0"/>
        <pt x="437" y="509" on="1"/>
        <pt x="352" y="509" on="0"/>
        <pt x="247" y="485" on="0"/>
        <pt x="191" y="437" on="0"/>
        <pt x="173" y="365" on="0"/>
        <pt x="173" y="318" on="1"/>
        <pt x="173" y="208" on="0"/>
        <pt x="295" y="88" on="0"/>
        <pt x="417" y="88" on="1"/>
        <pt x="419" y="88" on="0"/>
        <pt x="424" y="88" on="0"/>
        <pt x="425" y="88" on="1"/>
        <pt x="424" y="110" on="0"/>
        <pt x="423" y="166" on="0"/>
        <pt x="422" y="225" on="0"/>
        <pt x="421" y="285" on="0"/>
        <pt x="421" y="310" on="1"/>
        <pt x="538" y="310" on="1"/>
        <pt x="538" y="214" on="0"/>
        <pt x="539" y="70" on="0"/>
      </contour>
      <contour>
        <pt x="253" y="-274" on="1"/>
        <pt x="260" y="-252" on="0"/>
        <pt x="267" y="-201" on="0"/>
        <pt x="267" y="-175" on="1"/>
        <pt x="267" y="-151" on="0"/>
        <pt x="261" y="-104" on="0"/>
        <pt x="255" y="-85" on="1"/>
        <pt x="394" y="-78" on="1"/>
        <pt x="394" y="-106" on="0"/>
        <pt x="381" y="-167" on="0"/>
        <pt x="361" y="-224" on="0"/>
        <pt x="332" y="-274" on="0"/>
        <pt x="316" y="-291" on="1"/>
      </contour>
    </TTGlyph>
    <TTGlyph name="Gcommaaccent.sc" xMin="47" yMin="-289" xMax="490" yMax="539">
      <contour>
        <pt x="490" y="8" on="1"/>
        <pt x="453" y="0" on="0"/>
        <pt x="382" y="-8" on="0"/>
        <pt x="349" y="-8" on="1"/>
        <pt x="211" y="-8" on="0"/>
        <pt x="47" y="128" on="0"/>
        <pt x="47" y="250" on="1"/>
        <pt x="47" y="307" on="0"/>
        <pt x="87" y="411" on="0"/>
        <pt x="181" y="489" on="0"/>
        <pt x="338" y="538" on="0"/>
        <pt x="453" y="539" on="1"/>
        <pt x="460" y="428" on="1"/>
        <pt x="443" y="429" on="0"/>
        <pt x="412" y="429" on="0"/>
        <pt x="397" y="429" on="1"/>
        <pt x="322" y="429" on="0"/>
        <pt x="230" y="409" on="0"/>
        <pt x="180" y="370" on="0"/>
        <pt x="164" y="311" on="0"/>
        <pt x="164" y="271" on="1"/>
        <pt x="164" y="179" on="0"/>
        <pt x="272" y="80" on="0"/>
        <pt x="381" y="80" on="1"/>
        <pt x="380" y="117" on="0"/>
        <pt x="377" y="223" on="0"/>
        <pt x="377" y="265" on="1"/>
        <pt x="489" y="265" on="1"/>
        <pt x="489" y="184" on="0"/>
        <pt x="490" y="59" on="0"/>
      </contour>
      <contour>
        <pt x="223" y="-272" on="1"/>
        <pt x="230" y="-250" on="0"/>
        <pt x="237" y="-199" on="0"/>
        <pt x="237" y="-173" on="1"/>
        <pt x="237" y="-149" on="0"/>
        <pt x="231" y="-102" on="0"/>
        <pt x="225" y="-83" on="1"/>
        <pt x="364" y="-76" on="1"/>
        <pt x="364" y="-104" on="0"/>
        <pt x="351" y="-165" on="0"/>
        <pt x="331" y="-222" on="0"/>
        <pt x="302" y="-272" on="0"/>
        <pt x="286" y="-289" on="1"/>
      </contour>
    </TTGlyph>
    <TTGlyph name="Gdotaccent" xMin="53" yMin="-10" xMax="539" yMax="840">
      <contour>
        <pt x="389" y="705" on="1"/>
        <pt x="270" y="705" on="1"/>
        <pt x="273" y="840" on="1"/>
        <pt x="392" y="840" on="1"/>
      </contour>
      <contour>
        <pt x="539" y="10" on="1"/>
        <pt x="498" y="0" on="0"/>
        <pt x="420" y="-10" on="0"/>
        <pt x="384" y="-10" on="1"/>
        <pt x="310" y="-10" on="0"/>
        <pt x="188" y="31" on="0"/>
        <pt x="101" y="108" on="0"/>
        <pt x="53" y="221" on="0"/>
        <pt x="53" y="293" on="1"/>
        <pt x="53" y="359" on="0"/>
        <pt x="97" y="480" on="0"/>
        <pt x="200" y="572" on="0"/>
        <pt x="372" y="628" on="0"/>
        <pt x="498" y="630" on="1"/>
        <pt x="506" y="507" on="1"/>
        <pt x="487" y="508" on="0"/>
        <pt x="453" y="509" on="0"/>
        <pt x="437" y="509" on="1"/>
        <pt x="352" y="509" on="0"/>
        <pt x="247" y="485" on="0"/>
        <pt x="191" y="437" on="0"/>
        <pt x="173" y="365" on="0"/>
        <pt x="173" y="318" on="1"/>
        <pt x="173" y="208" on="0"/>
        <pt x="295" y="88" on="0"/>
        <pt x="417" y="88" on="1"/>
        <pt x="419" y="88" on="0"/>
        <pt x="424" y="88" on="0"/>
        <pt x="425" y="88" on="1"/>
        <pt x="424" y="110" on="0"/>
        <pt x="423" y="166" on="0"/>
        <pt x="422" y="225" on="0"/>
        <pt x="421" y="285" on="0"/>
        <pt x="421" y="310" on="1"/>
        <pt x="538" y="310" on="1"/>
        <pt x="538" y="214" on="0"/>
        <pt x="539" y="70" on="0"/>
      </contour>
    </TTGlyph>
    <TTGlyph name="Gdotaccent.sc" xMin="47" yMin="-8" xMax="490" yMax="749">
      <contour>
        <pt x="359" y="614" on="1"/>
        <pt x="240" y="614" on="1"/>
        <pt x="243" y="749" on="1"/>
        <pt x="362" y="749" on="1"/>
      </contour>
      <contour>
        <pt x="490" y="8" on="1"/>
        <pt x="453" y="0" on="0"/>
        <pt x="382" y="-8" on="0"/>
        <pt x="349" y="-8" on="1"/>
        <pt x="211" y="-8" on="0"/>
        <pt x="47" y="128" on="0"/>
        <pt x="47" y="250" on="1"/>
        <pt x="47" y="307" on="0"/>
        <pt x="87" y="411" on="0"/>
        <pt x="181" y="489" on="0"/>
        <pt x="338" y="538" on="0"/>
        <pt x="453" y="539" on="1"/>
        <pt x="460" y="428" on="1"/>
        <pt x="443" y="429" on="0"/>
        <pt x="412" y="429" on="0"/>
        <pt x="397" y="429" on="1"/>
        <pt x="322" y="429" on="0"/>
        <pt x="230" y="409" on="0"/>
        <pt x="180" y="370" on="0"/>
        <pt x="164" y="311" on="0"/>
        <pt x="164" y="271" on="1"/>
        <pt x="164" y="179" on="0"/>
        <pt x="272" y="80" on="0"/>
        <pt x="381" y="80" on="1"/>
        <pt x="380" y="117" on="0"/>
        <pt x="377" y="223" on="0"/>
        <pt x="377" y="265" on="1"/>
        <pt x="489" y="265" on="1"/>
        <pt x="489" y="184" on="0"/>
        <pt x="490" y="59" on="0"/>
      </contour>
    </TTGlyph>
    <TTGlyph name="H" xMin="88" yMin="0" xMax="562" yMax="620">
      <contour>
        <pt x="445" y="0" on="1"/>
        <pt x="445" y="266" on="1"/>
        <pt x="205" y="266" on="1"/>
        <pt x="205" y="0" on="1"/>
        <pt x="88" y="0" on="1"/>
        <pt x="88" y="620" on="1"/>
        <pt x="205" y="620" on="1"/>
        <pt x="205" y="357" on="1"/>
        <pt x="445" y="357" on="1"/>
        <pt x="445" y="620" on="1"/>
        <pt x="562" y="620" on="1"/>
        <pt x="562" y="0" on="1"/>
      </contour>
    </TTGlyph>
    <TTGlyph name="H.sc" xMin="79" yMin="0" xMax="516" yMax="530">
      <contour>
        <pt x="400" y="0" on="1"/>
        <pt x="400" y="224" on="1"/>
        <pt x="195" y="224" on="1"/>
        <pt x="195" y="0" on="1"/>
        <pt x="79" y="0" on="1"/>
        <pt x="79" y="530" on="1"/>
        <pt x="195" y="530" on="1"/>
        <pt x="195" y="310" on="1"/>
        <pt x="400" y="310" on="1"/>
        <pt x="400" y="530" on="1"/>
        <pt x="516" y="530" on="1"/>
        <pt x="516" y="0" on="1"/>
      </contour>
    </TTGlyph>
    <TTGlyph name="Hbar" xMin="26" yMin="0" xMax="625" yMax="620">
      <contour>
        <pt x="445" y="337" on="1"/>
        <pt x="445" y="433" on="1"/>
        <pt x="205" y="433" on="1"/>
        <pt x="205" y="337" on="1"/>
      </contour>
      <contour>
        <pt x="445" y="0" on="1"/>
        <pt x="445" y="246" on="1"/>
        <pt x="205" y="246" on="1"/>
        <pt x="205" y="0" on="1"/>
        <pt x="88" y="0" on="1"/>
        <pt x="88" y="428" on="1"/>
        <pt x="26" y="428" on="1"/>
        <pt x="26" y="519" on="1"/>
        <pt x="88" y="519" on="1"/>
        <pt x="88" y="620" on="1"/>
        <pt x="205" y="620" on="1"/>
        <pt x="205" y="514" on="1"/>
        <pt x="445" y="514" on="1"/>
        <pt x="445" y="620" on="1"/>
        <pt x="562" y="620" on="1"/>
        <pt x="562" y="519" on="1"/>
        <pt x="625" y="519" on="1"/>
        <pt x="625" y="428" on="1"/>
        <pt x="562" y="428" on="1"/>
        <pt x="562" y="0" on="1"/>
      </contour>
    </TTGlyph>
    <TTGlyph name="Hbar.sc" xMin="26" yMin="0" xMax="570" yMax="530">
      <contour>
        <pt x="400" y="292" on="1"/>
        <pt x="400" y="366" on="1"/>
        <pt x="195" y="366" on="1"/>
        <pt x="195" y="292" on="1"/>
      </contour>
      <contour>
        <pt x="400" y="0" on="1"/>
        <pt x="400" y="206" on="1"/>
        <pt x="195" y="206" on="1"/>
        <pt x="195" y="0" on="1"/>
        <pt x="79" y="0" on="1"/>
        <pt x="79" y="362" on="1"/>
        <pt x="26" y="362" on="1"/>
        <pt x="26" y="447" on="1"/>
        <pt x="79" y="447" on="1"/>
        <pt x="79" y="530" on="1"/>
        <pt x="195" y="530" on="1"/>
        <pt x="195" y="443" on="1"/>
        <pt x="400" y="443" on="1"/>
        <pt x="400" y="530" on="1"/>
        <pt x="516" y="530" on="1"/>
        <pt x="516" y="447" on="1"/>
        <pt x="570" y="447" on="1"/>
        <pt x="570" y="362" on="1"/>
        <pt x="516" y="362" on="1"/>
        <pt x="516" y="0" on="1"/>
      </contour>
    </TTGlyph>
    <TTGlyph name="I" xMin="69" yMin="0" xMax="449" yMax="620">
      <contour>
        <pt x="315" y="522" on="1"/>
        <pt x="315" y="98" on="1"/>
        <pt x="449" y="98" on="1"/>
        <pt x="440" y="0" on="1"/>
        <pt x="69" y="0" on="1"/>
        <pt x="69" y="98" on="1"/>
        <pt x="198" y="98" on="1"/>
        <pt x="198" y="522" on="1"/>
        <pt x="69" y="522" on="1"/>
        <pt x="69" y="620" on="1"/>
        <pt x="444" y="620" on="1"/>
        <pt x="444" y="522" on="1"/>
      </contour>
    </TTGlyph>
    <TTGlyph name="I.sc" xMin="57" yMin="0" xMax="408" yMax="530">
      <contour>
        <pt x="289" y="441" on="1"/>
        <pt x="289" y="89" on="1"/>
        <pt x="408" y="89" on="1"/>
        <pt x="400" y="0" on="1"/>
        <pt x="57" y="0" on="1"/>
        <pt x="57" y="89" on="1"/>
        <pt x="173" y="89" on="1"/>
        <pt x="173" y="441" on="1"/>
        <pt x="57" y="441" on="1"/>
        <pt x="57" y="530" on="1"/>
        <pt x="404" y="530" on="1"/>
        <pt x="404" y="441" on="1"/>
      </contour>
    </TTGlyph>
    <TTGlyph name="Iacute" xMin="69" yMin="0" xMax="449" yMax="911">
      <contour>
        <pt x="143" y="735" on="1"/>
        <pt x="161" y="747" on="0"/>
        <pt x="211" y="789" on="0"/>
        <pt x="265" y="838" on="0"/>
        <pt x="316" y="889" on="0"/>
        <pt x="335" y="911" on="1"/>
        <pt x="423" y="821" on="1"/>
        <pt x="400" y="802" on="0"/>
        <pt x="334" y="760" on="0"/>
        <pt x="265" y="721" on="0"/>
        <pt x="198" y="689" on="0"/>
        <pt x="175" y="680" on="1"/>
      </contour>
      <contour>
        <pt x="315" y="522" on="1"/>
        <pt x="315" y="98" on="1"/>
        <pt x="449" y="98" on="1"/>
        <pt x="440" y="0" on="1"/>
        <pt x="69" y="0" on="1"/>
        <pt x="69" y="98" on="1"/>
        <pt x="198" y="98" on="1"/>
        <pt x="198" y="522" on="1"/>
        <pt x="69" y="522" on="1"/>
        <pt x="69" y="620" on="1"/>
        <pt x="444" y="620" on="1"/>
        <pt x="444" y="522" on="1"/>
      </contour>
    </TTGlyph>
    <TTGlyph name="Iacute.sc" xMin="57" yMin="0" xMax="408" yMax="821">
      <contour>
        <pt x="116" y="645" on="1"/>
        <pt x="134" y="657" on="0"/>
        <pt x="184" y="699" on="0"/>
        <pt x="238" y="748" on="0"/>
        <pt x="289" y="799" on="0"/>
        <pt x="308" y="821" on="1"/>
        <pt x="396" y="731" on="1"/>
        <pt x="373" y="712" on="0"/>
        <pt x="307" y="670" on="0"/>
        <pt x="238" y="631" on="0"/>
        <pt x="171" y="599" on="0"/>
        <pt x="148" y="590" on="1"/>
      </contour>
      <contour>
        <pt x="289" y="441" on="1"/>
        <pt x="289" y="89" on="1"/>
        <pt x="408" y="89" on="1"/>
        <pt x="400" y="0" on="1"/>
        <pt x="57" y="0" on="1"/>
        <pt x="57" y="89" on="1"/>
        <pt x="173" y="89" on="1"/>
        <pt x="173" y="441" on="1"/>
        <pt x="57" y="441" on="1"/>
        <pt x="57" y="530" on="1"/>
        <pt x="404" y="530" on="1"/>
        <pt x="404" y="441" on="1"/>
      </contour>
    </TTGlyph>
    <TTGlyph name="Ibreve" xMin="69" yMin="0" xMax="451" yMax="880">
      <contour>
        <pt x="263" y="684" on="1"/>
        <pt x="214" y="684" on="0"/>
        <pt x="117" y="754" on="0"/>
        <pt x="80" y="826" on="1"/>
        <pt x="163" y="880" on="1"/>
        <pt x="194" y="828" on="0"/>
        <pt x="244" y="780" on="0"/>
        <pt x="275" y="780" on="1"/>
        <pt x="306" y="780" on="0"/>
        <pt x="356" y="829" on="0"/>
        <pt x="384" y="874" on="1"/>
        <pt x="451" y="835" on="1"/>
        <pt x="411" y="763" on="0"/>
        <pt x="312" y="684" on="0"/>
      </contour>
      <contour>
        <pt x="315" y="522" on="1"/>
        <pt x="315" y="98" on="1"/>
        <pt x="449" y="98" on="1"/>
        <pt x="440" y="0" on="1"/>
        <pt x="69" y="0" on="1"/>
        <pt x="69" y="98" on="1"/>
        <pt x="198" y="98" on="1"/>
        <pt x="198" y="522" on="1"/>
        <pt x="69" y="522" on="1"/>
        <pt x="69" y="620" on="1"/>
        <pt x="444" y="620" on="1"/>
        <pt x="444" y="522" on="1"/>
      </contour>
    </TTGlyph>
    <TTGlyph name="Ibreve.sc" xMin="53" yMin="0" xMax="424" yMax="790">
      <contour>
        <pt x="236" y="594" on="1"/>
        <pt x="187" y="594" on="0"/>
        <pt x="90" y="664" on="0"/>
        <pt x="53" y="736" on="1"/>
        <pt x="136" y="790" on="1"/>
        <pt x="167" y="738" on="0"/>
        <pt x="217" y="690" on="0"/>
        <pt x="248" y="690" on="1"/>
        <pt x="279" y="690" on="0"/>
        <pt x="329" y="739" on="0"/>
        <pt x="357" y="784" on="1"/>
        <pt x="424" y="745" on="1"/>
        <pt x="384" y="673" on="0"/>
        <pt x="285" y="594" on="0"/>
      </contour>
      <contour>
        <pt x="289" y="441" on="1"/>
        <pt x="289" y="89" on="1"/>
        <pt x="408" y="89" on="1"/>
        <pt x="400" y="0" on="1"/>
        <pt x="57" y="0" on="1"/>
        <pt x="57" y="89" on="1"/>
        <pt x="173" y="89" on="1"/>
        <pt x="173" y="441" on="1"/>
        <pt x="57" y="441" on="1"/>
        <pt x="57" y="530" on="1"/>
        <pt x="404" y="530" on="1"/>
        <pt x="404" y="441" on="1"/>
      </contour>
    </TTGlyph>
    <TTGlyph name="Icircumflex" xMin="69" yMin="0" xMax="449" yMax="894">
      <contour>
        <pt x="368" y="682" on="1"/>
        <pt x="256" y="777" on="1"/>
        <pt x="150" y="683" on="1"/>
        <pt x="94" y="739" on="1"/>
        <pt x="265" y="894" on="1"/>
        <pt x="266" y="894" on="1"/>
        <pt x="443" y="756" on="1"/>
      </contour>
      <contour>
        <pt x="315" y="522" on="1"/>
        <pt x="315" y="98" on="1"/>
        <pt x="449" y="98" on="1"/>
        <pt x="440" y="0" on="1"/>
        <pt x="69" y="0" on="1"/>
        <pt x="69" y="98" on="1"/>
        <pt x="198" y="98" on="1"/>
        <pt x="198" y="522" on="1"/>
        <pt x="69" y="522" on="1"/>
        <pt x="69" y="620" on="1"/>
        <pt x="444" y="620" on="1"/>
        <pt x="444" y="522" on="1"/>
      </contour>
    </TTGlyph>
    <TTGlyph name="Icircumflex.sc" xMin="57" yMin="0" xMax="416" yMax="804">
      <contour>
        <pt x="341" y="592" on="1"/>
        <pt x="229" y="687" on="1"/>
        <pt x="123" y="593" on="1"/>
        <pt x="67" y="649" on="1"/>
        <pt x="238" y="804" on="1"/>
        <pt x="239" y="804" on="1"/>
        <pt x="416" y="666" on="1"/>
      </contour>
      <contour>
        <pt x="289" y="441" on="1"/>
        <pt x="289" y="89" on="1"/>
        <pt x="408" y="89" on="1"/>
        <pt x="400" y="0" on="1"/>
        <pt x="57" y="0" on="1"/>
        <pt x="57" y="89" on="1"/>
        <pt x="173" y="89" on="1"/>
        <pt x="173" y="441" on="1"/>
        <pt x="57" y="441" on="1"/>
        <pt x="57" y="530" on="1"/>
        <pt x="404" y="530" on="1"/>
        <pt x="404" y="441" on="1"/>
      </contour>
    </TTGlyph>
    <TTGlyph name="Idieresis" xMin="69" yMin="0" xMax="449" yMax="830">
      <contour>
        <pt x="419" y="695" on="1"/>
        <pt x="300" y="695" on="1"/>
        <pt x="303" y="830" on="1"/>
        <pt x="422" y="830" on="1"/>
      </contour>
      <contour>
        <pt x="219" y="695" on="1"/>
        <pt x="100" y="695" on="1"/>
        <pt x="103" y="830" on="1"/>
        <pt x="222" y="830" on="1"/>
      </contour>
      <contour>
        <pt x="315" y="522" on="1"/>
        <pt x="315" y="98" on="1"/>
        <pt x="449" y="98" on="1"/>
        <pt x="440" y="0" on="1"/>
        <pt x="69" y="0" on="1"/>
        <pt x="69" y="98" on="1"/>
        <pt x="198" y="98" on="1"/>
        <pt x="198" y="522" on="1"/>
        <pt x="69" y="522" on="1"/>
        <pt x="69" y="620" on="1"/>
        <pt x="444" y="620" on="1"/>
        <pt x="444" y="522" on="1"/>
      </contour>
    </TTGlyph>
    <TTGlyph name="Idieresis.sc" xMin="57" yMin="0" xMax="408" yMax="740">
      <contour>
        <pt x="392" y="605" on="1"/>
        <pt x="273" y="605" on="1"/>
        <pt x="276" y="740" on="1"/>
        <pt x="395" y="740" on="1"/>
      </contour>
      <contour>
        <pt x="192" y="605" on="1"/>
        <pt x="73" y="605" on="1"/>
        <pt x="76" y="740" on="1"/>
        <pt x="195" y="740" on="1"/>
      </contour>
      <contour>
        <pt x="289" y="441" on="1"/>
        <pt x="289" y="89" on="1"/>
        <pt x="408" y="89" on="1"/>
        <pt x="400" y="0" on="1"/>
        <pt x="57" y="0" on="1"/>
        <pt x="57" y="89" on="1"/>
        <pt x="173" y="89" on="1"/>
        <pt x="173" y="441" on="1"/>
        <pt x="57" y="441" on="1"/>
        <pt x="57" y="530" on="1"/>
        <pt x="404" y="530" on="1"/>
        <pt x="404" y="441" on="1"/>
      </contour>
    </TTGlyph>
    <TTGlyph name="Idotaccent" xMin="69" yMin="0" xMax="449" yMax="830">
      <contour>
        <pt x="324" y="695" on="1"/>
        <pt x="205" y="695" on="1"/>
        <pt x="208" y="830" on="1"/>
        <pt x="327" y="830" on="1"/>
      </contour>
      <contour>
        <pt x="315" y="522" on="1"/>
        <pt x="315" y="98" on="1"/>
        <pt x="449" y="98" on="1"/>
        <pt x="440" y="0" on="1"/>
        <pt x="69" y="0" on="1"/>
        <pt x="69" y="98" on="1"/>
        <pt x="198" y="98" on="1"/>
        <pt x="198" y="522" on="1"/>
        <pt x="69" y="522" on="1"/>
        <pt x="69" y="620" on="1"/>
        <pt x="444" y="620" on="1"/>
        <pt x="444" y="522" on="1"/>
      </contour>
    </TTGlyph>
    <TTGlyph name="Idotaccent.sc" xMin="57" yMin="0" xMax="408" yMax="740">
      <contour>
        <pt x="297" y="605" on="1"/>
        <pt x="178" y="605" on="1"/>
        <pt x="181" y="740" on="1"/>
        <pt x="300" y="740" on="1"/>
      </contour>
      <contour>
        <pt x="289" y="441" on="1"/>
        <pt x="289" y="89" on="1"/>
        <pt x="408" y="89" on="1"/>
        <pt x="400" y="0" on="1"/>
        <pt x="57" y="0" on="1"/>
        <pt x="57" y="89" on="1"/>
        <pt x="173" y="89" on="1"/>
        <pt x="173" y="441" on="1"/>
        <pt x="57" y="441" on="1"/>
        <pt x="57" y="530" on="1"/>
        <pt x="404" y="530" on="1"/>
        <pt x="404" y="441" on="1"/>
      </contour>
    </TTGlyph>
    <TTGlyph name="Igrave" xMin="69" yMin="0" xMax="449" yMax="913">
      <contour>
        <pt x="367" y="733" on="1"/>
        <pt x="332" y="679" on="1"/>
        <pt x="309" y="689" on="0"/>
        <pt x="246" y="722" on="0"/>
        <pt x="178" y="759" on="0"/>
        <pt x="113" y="798" on="0"/>
        <pt x="88" y="814" on="1"/>
        <pt x="167" y="913" on="1"/>
        <pt x="187" y="893" on="0"/>
        <pt x="243" y="841" on="0"/>
        <pt x="300" y="790" on="0"/>
        <pt x="351" y="746" on="0"/>
      </contour>
      <contour>
        <pt x="315" y="522" on="1"/>
        <pt x="315" y="98" on="1"/>
        <pt x="449" y="98" on="1"/>
        <pt x="440" y="0" on="1"/>
        <pt x="69" y="0" on="1"/>
        <pt x="69" y="98" on="1"/>
        <pt x="198" y="98" on="1"/>
        <pt x="198" y="522" on="1"/>
        <pt x="69" y="522" on="1"/>
        <pt x="69" y="620" on="1"/>
        <pt x="444" y="620" on="1"/>
        <pt x="444" y="522" on="1"/>
      </contour>
    </TTGlyph>
    <TTGlyph name="Igrave.sc" xMin="57" yMin="0" xMax="408" yMax="823">
      <contour>
        <pt x="340" y="643" on="1"/>
        <pt x="305" y="589" on="1"/>
        <pt x="282" y="599" on="0"/>
        <pt x="219" y="632" on="0"/>
        <pt x="151" y="669" on="0"/>
        <pt x="86" y="708" on="0"/>
        <pt x="61" y="724" on="1"/>
        <pt x="140" y="823" on="1"/>
        <pt x="160" y="803" on="0"/>
        <pt x="216" y="751" on="0"/>
        <pt x="273" y="700" on="0"/>
        <pt x="324" y="656" on="0"/>
      </contour>
      <contour>
        <pt x="289" y="441" on="1"/>
        <pt x="289" y="89" on="1"/>
        <pt x="408" y="89" on="1"/>
        <pt x="400" y="0" on="1"/>
        <pt x="57" y="0" on="1"/>
        <pt x="57" y="89" on="1"/>
        <pt x="173" y="89" on="1"/>
        <pt x="173" y="441" on="1"/>
        <pt x="57" y="441" on="1"/>
        <pt x="57" y="530" on="1"/>
        <pt x="404" y="530" on="1"/>
        <pt x="404" y="441" on="1"/>
      </contour>
    </TTGlyph>
    <TTGlyph name="Imacron" xMin="69" yMin="0" xMax="449" yMax="815">
      <contour>
        <pt x="420" y="815" on="1"/>
        <pt x="420" y="711" on="1"/>
        <pt x="98" y="711" on="1"/>
        <pt x="98" y="815" on="1"/>
      </contour>
      <contour>
        <pt x="315" y="522" on="1"/>
        <pt x="315" y="98" on="1"/>
        <pt x="449" y="98" on="1"/>
        <pt x="440" y="0" on="1"/>
        <pt x="69" y="0" on="1"/>
        <pt x="69" y="98" on="1"/>
        <pt x="198" y="98" on="1"/>
        <pt x="198" y="522" on="1"/>
        <pt x="69" y="522" on="1"/>
        <pt x="69" y="620" on="1"/>
        <pt x="444" y="620" on="1"/>
        <pt x="444" y="522" on="1"/>
      </contour>
    </TTGlyph>
    <TTGlyph name="Imacron.sc" xMin="57" yMin="0" xMax="408" yMax="725">
      <contour>
        <pt x="393" y="725" on="1"/>
        <pt x="393" y="621" on="1"/>
        <pt x="71" y="621" on="1"/>
        <pt x="71" y="725" on="1"/>
      </contour>
      <contour>
        <pt x="289" y="441" on="1"/>
        <pt x="289" y="89" on="1"/>
        <pt x="408" y="89" on="1"/>
        <pt x="400" y="0" on="1"/>
        <pt x="57" y="0" on="1"/>
        <pt x="57" y="89" on="1"/>
        <pt x="173" y="89" on="1"/>
        <pt x="173" y="441" on="1"/>
        <pt x="57" y="441" on="1"/>
        <pt x="57" y="530" on="1"/>
        <pt x="404" y="530" on="1"/>
        <pt x="404" y="441" on="1"/>
      </contour>
    </TTGlyph>
    <TTGlyph name="Iogonek" xMin="69" yMin="-223" xMax="449" yMax="620">
      <contour>
        <pt x="347" y="-130" on="1"/>
        <pt x="337" y="-223" on="1"/>
        <pt x="220" y="-213" on="0"/>
        <pt x="131" y="-147" on="0"/>
        <pt x="131" y="-104" on="1"/>
        <pt x="131" y="-78" on="0"/>
        <pt x="163" y="-26" on="0"/>
        <pt x="200" y="0" on="1"/>
        <pt x="69" y="0" on="1"/>
        <pt x="69" y="98" on="1"/>
        <pt x="198" y="98" on="1"/>
        <pt x="198" y="522" on="1"/>
        <pt x="69" y="522" on="1"/>
        <pt x="69" y="620" on="1"/>
        <pt x="444" y="620" on="1"/>
        <pt x="444" y="522" on="1"/>
        <pt x="315" y="522" on="1"/>
        <pt x="315" y="98" on="1"/>
        <pt x="449" y="98" on="1"/>
        <pt x="440" y="0" on="1"/>
        <pt x="311" y="0" on="1"/>
        <pt x="265" y="-25" on="0"/>
        <pt x="232" y="-64" on="0"/>
        <pt x="232" y="-77" on="1"/>
        <pt x="232" y="-99" on="0"/>
        <pt x="290" y="-122" on="0"/>
      </contour>
    </TTGlyph>
    <TTGlyph name="Iogonek.sc" xMin="57" yMin="-223" xMax="408" yMax="530">
      <contour>
        <pt x="329" y="-130" on="1"/>
        <pt x="319" y="-223" on="1"/>
        <pt x="202" y="-213" on="0"/>
        <pt x="113" y="-147" on="0"/>
        <pt x="113" y="-104" on="1"/>
        <pt x="113" y="-79" on="0"/>
        <pt x="142" y="-27" on="0"/>
        <pt x="176" y="0" on="1"/>
        <pt x="57" y="0" on="1"/>
        <pt x="57" y="89" on="1"/>
        <pt x="173" y="89" on="1"/>
        <pt x="173" y="441" on="1"/>
        <pt x="57" y="441" on="1"/>
        <pt x="57" y="530" on="1"/>
        <pt x="404" y="530" on="1"/>
        <pt x="404" y="441" on="1"/>
        <pt x="289" y="441" on="1"/>
        <pt x="289" y="89" on="1"/>
        <pt x="408" y="89" on="1"/>
        <pt x="400" y="0" on="1"/>
        <pt x="293" y="0" on="1"/>
        <pt x="247" y="-25" on="0"/>
        <pt x="214" y="-64" on="0"/>
        <pt x="214" y="-77" on="1"/>
        <pt x="214" y="-99" on="0"/>
        <pt x="272" y="-122" on="0"/>
      </contour>
    </TTGlyph>
    <TTGlyph name="J" xMin="50" yMin="-10" xMax="369" yMax="620">
      <contour>
        <pt x="83" y="620" on="1"/>
        <pt x="369" y="620" on="1"/>
        <pt x="369" y="217" on="1"/>
        <pt x="369" y="116" on="0"/>
        <pt x="238" y="-10" on="0"/>
        <pt x="75" y="-10" on="1"/>
        <pt x="50" y="-10" on="1"/>
        <pt x="50" y="102" on="1"/>
        <pt x="75" y="101" on="0"/>
        <pt x="119" y="98" on="0"/>
        <pt x="137" y="98" on="1"/>
        <pt x="178" y="98" on="0"/>
        <pt x="224" y="110" on="0"/>
        <pt x="247" y="137" on="0"/>
        <pt x="252" y="182" on="0"/>
        <pt x="252" y="216" on="1"/>
        <pt x="252" y="522" on="1"/>
        <pt x="83" y="522" on="1"/>
      </contour>
    </TTGlyph>
    <TTGlyph name="J.sc" xMin="50" yMin="-8" xMax="348" yMax="530">
      <contour>
        <pt x="79" y="530" on="1"/>
        <pt x="348" y="530" on="1"/>
        <pt x="348" y="186" on="1"/>
        <pt x="348" y="98" on="0"/>
        <pt x="225" y="-8" on="0"/>
        <pt x="73" y="-8" on="1"/>
        <pt x="50" y="-8" on="1"/>
        <pt x="50" y="92" on="1"/>
        <pt x="73" y="91" on="0"/>
        <pt x="111" y="89" on="0"/>
        <pt x="127" y="89" on="1"/>
        <pt x="164" y="89" on="0"/>
        <pt x="207" y="99" on="0"/>
        <pt x="227" y="121" on="0"/>
        <pt x="232" y="158" on="0"/>
        <pt x="232" y="185" on="1"/>
        <pt x="232" y="440" on="1"/>
        <pt x="79" y="440" on="1"/>
      </contour>
    </TTGlyph>
    <TTGlyph name="K" xMin="88" yMin="-10" xMax="570" yMax="620">
      <contour>
        <pt x="444" y="-10" on="1"/>
        <pt x="266" y="263" on="1"/>
        <pt x="205" y="263" on="1"/>
        <pt x="205" y="0" on="1"/>
        <pt x="88" y="0" on="1"/>
        <pt x="88" y="620" on="1"/>
        <pt x="205" y="620" on="1"/>
        <pt x="205" y="368" on="1"/>
        <pt x="273" y="368" on="1"/>
        <pt x="426" y="620" on="1"/>
        <pt x="553" y="620" on="1"/>
        <pt x="363" y="318" on="1"/>
        <pt x="570" y="10" on="1"/>
      </contour>
    </TTGlyph>
    <TTGlyph name="K.sc" xMin="79" yMin="-8" xMax="524" yMax="530">
      <contour>
        <pt x="400" y="-8" on="1"/>
        <pt x="245" y="222" on="1"/>
        <pt x="195" y="222" on="1"/>
        <pt x="195" y="0" on="1"/>
        <pt x="79" y="0" on="1"/>
        <pt x="79" y="530" on="1"/>
        <pt x="195" y="530" on="1"/>
        <pt x="195" y="317" on="1"/>
        <pt x="251" y="317" on="1"/>
        <pt x="384" y="530" on="1"/>
        <pt x="509" y="530" on="1"/>
        <pt x="340" y="272" on="1"/>
        <pt x="524" y="8" on="1"/>
      </contour>
    </TTGlyph>
    <TTGlyph name="Kcommaaccent" xMin="88" yMin="-291" xMax="570" yMax="620">
      <contour>
        <pt x="444" y="-10" on="1"/>
        <pt x="266" y="263" on="1"/>
        <pt x="205" y="263" on="1"/>
        <pt x="205" y="0" on="1"/>
        <pt x="88" y="0" on="1"/>
        <pt x="88" y="620" on="1"/>
        <pt x="205" y="620" on="1"/>
        <pt x="205" y="368" on="1"/>
        <pt x="273" y="368" on="1"/>
        <pt x="426" y="620" on="1"/>
        <pt x="553" y="620" on="1"/>
        <pt x="363" y="318" on="1"/>
        <pt x="570" y="10" on="1"/>
      </contour>
      <contour>
        <pt x="232" y="-274" on="1"/>
        <pt x="239" y="-252" on="0"/>
        <pt x="246" y="-201" on="0"/>
        <pt x="246" y="-175" on="1"/>
        <pt x="246" y="-151" on="0"/>
        <pt x="240" y="-104" on="0"/>
        <pt x="234" y="-85" on="1"/>
        <pt x="373" y="-78" on="1"/>
        <pt x="373" y="-106" on="0"/>
        <pt x="360" y="-167" on="0"/>
        <pt x="340" y="-224" on="0"/>
        <pt x="311" y="-274" on="0"/>
        <pt x="295" y="-291" on="1"/>
      </contour>
    </TTGlyph>
    <TTGlyph name="Kcommaaccent.sc" xMin="79" yMin="-289" xMax="524" yMax="530">
      <contour>
        <pt x="400" y="-8" on="1"/>
        <pt x="245" y="222" on="1"/>
        <pt x="195" y="222" on="1"/>
        <pt x="195" y="0" on="1"/>
        <pt x="79" y="0" on="1"/>
        <pt x="79" y="530" on="1"/>
        <pt x="195" y="530" on="1"/>
        <pt x="195" y="317" on="1"/>
        <pt x="251" y="317" on="1"/>
        <pt x="384" y="530" on="1"/>
        <pt x="509" y="530" on="1"/>
        <pt x="340" y="272" on="1"/>
        <pt x="524" y="8" on="1"/>
      </contour>
      <contour>
        <pt x="206" y="-272" on="1"/>
        <pt x="213" y="-250" on="0"/>
        <pt x="220" y="-199" on="0"/>
        <pt x="220" y="-173" on="1"/>
        <pt x="220" y="-149" on="0"/>
        <pt x="214" y="-102" on="0"/>
        <pt x="208" y="-83" on="1"/>
        <pt x="347" y="-76" on="1"/>
        <pt x="347" y="-104" on="0"/>
        <pt x="334" y="-165" on="0"/>
        <pt x="314" y="-222" on="0"/>
        <pt x="285" y="-272" on="0"/>
        <pt x="269" y="-289" on="1"/>
      </contour>
    </TTGlyph>
    <TTGlyph name="L" xMin="88" yMin="0" xMax="460" yMax="620">
      <contour>
        <pt x="449" y="0" on="1"/>
        <pt x="88" y="0" on="1"/>
        <pt x="88" y="620" on="1"/>
        <pt x="205" y="620" on="1"/>
        <pt x="205" y="105" on="1"/>
        <pt x="460" y="105" on="1"/>
      </contour>
    </TTGlyph>
    <TTGlyph name="L.sc" xMin="79" yMin="0" xMax="422" yMax="530">
      <contour>
        <pt x="412" y="0" on="1"/>
        <pt x="79" y="0" on="1"/>
        <pt x="79" y="530" on="1"/>
        <pt x="195" y="530" on="1"/>
        <pt x="195" y="96" on="1"/>
        <pt x="422" y="96" on="1"/>
      </contour>
    </TTGlyph>
    <TTGlyph name="Lacute" xMin="88" yMin="0" xMax="460" yMax="911">
      <contour>
        <pt x="148" y="735" on="1"/>
        <pt x="166" y="747" on="0"/>
        <pt x="216" y="789" on="0"/>
        <pt x="270" y="838" on="0"/>
        <pt x="321" y="889" on="0"/>
        <pt x="340" y="911" on="1"/>
        <pt x="428" y="821" on="1"/>
        <pt x="405" y="802" on="0"/>
        <pt x="339" y="760" on="0"/>
        <pt x="270" y="721" on="0"/>
        <pt x="203" y="689" on="0"/>
        <pt x="180" y="680" on="1"/>
      </contour>
      <contour>
        <pt x="449" y="0" on="1"/>
        <pt x="88" y="0" on="1"/>
        <pt x="88" y="620" on="1"/>
        <pt x="205" y="620" on="1"/>
        <pt x="205" y="105" on="1"/>
        <pt x="460" y="105" on="1"/>
      </contour>
    </TTGlyph>
    <TTGlyph name="Lacute.sc" xMin="79" yMin="0" xMax="422" yMax="821">
      <contour>
        <pt x="125" y="645" on="1"/>
        <pt x="143" y="657" on="0"/>
        <pt x="193" y="699" on="0"/>
        <pt x="247" y="748" on="0"/>
        <pt x="298" y="799" on="0"/>
        <pt x="317" y="821" on="1"/>
        <pt x="405" y="731" on="1"/>
        <pt x="382" y="712" on="0"/>
        <pt x="316" y="670" on="0"/>
        <pt x="247" y="631" on="0"/>
        <pt x="180" y="599" on="0"/>
        <pt x="157" y="590" on="1"/>
      </contour>
      <contour>
        <pt x="412" y="0" on="1"/>
        <pt x="79" y="0" on="1"/>
        <pt x="79" y="530" on="1"/>
        <pt x="195" y="530" on="1"/>
        <pt x="195" y="96" on="1"/>
        <pt x="422" y="96" on="1"/>
      </contour>
    </TTGlyph>
    <TTGlyph name="Lcaron" xMin="88" yMin="0" xMax="460" yMax="703">
      <contour>
        <pt x="320" y="467" on="1"/>
        <pt x="324" y="498" on="0"/>
        <pt x="329" y="560" on="0"/>
        <pt x="329" y="591" on="1"/>
        <pt x="329" y="619" on="0"/>
        <pt x="325" y="675" on="0"/>
        <pt x="322" y="703" on="1"/>
        <pt x="448" y="703" on="1"/>
        <pt x="448" y="628" on="0"/>
        <pt x="409" y="508" on="0"/>
        <pt x="373" y="450" on="1"/>
      </contour>
      <contour>
        <pt x="449" y="0" on="1"/>
        <pt x="88" y="0" on="1"/>
        <pt x="88" y="620" on="1"/>
        <pt x="205" y="620" on="1"/>
        <pt x="205" y="105" on="1"/>
        <pt x="460" y="105" on="1"/>
      </contour>
    </TTGlyph>
    <TTGlyph name="Lcaron.sc" xMin="79" yMin="0" xMax="422" yMax="653">
      <contour>
        <pt x="287" y="417" on="1"/>
        <pt x="291" y="448" on="0"/>
        <pt x="296" y="510" on="0"/>
        <pt x="296" y="541" on="1"/>
        <pt x="296" y="569" on="0"/>
        <pt x="292" y="625" on="0"/>
        <pt x="289" y="653" on="1"/>
        <pt x="415" y="653" on="1"/>
        <pt x="415" y="578" on="0"/>
        <pt x="376" y="458" on="0"/>
        <pt x="340" y="400" on="1"/>
      </contour>
      <contour>
        <pt x="412" y="0" on="1"/>
        <pt x="79" y="0" on="1"/>
        <pt x="79" y="530" on="1"/>
        <pt x="195" y="530" on="1"/>
        <pt x="195" y="96" on="1"/>
        <pt x="422" y="96" on="1"/>
      </contour>
    </TTGlyph>
    <TTGlyph name="Lcommaaccent" xMin="88" yMin="-281" xMax="460" yMax="620">
      <contour>
        <pt x="449" y="0" on="1"/>
        <pt x="88" y="0" on="1"/>
        <pt x="88" y="620" on="1"/>
        <pt x="205" y="620" on="1"/>
        <pt x="205" y="105" on="1"/>
        <pt x="460" y="105" on="1"/>
      </contour>
      <contour>
        <pt x="193" y="-264" on="1"/>
        <pt x="200" y="-242" on="0"/>
        <pt x="207" y="-191" on="0"/>
        <pt x="207" y="-165" on="1"/>
        <pt x="207" y="-141" on="0"/>
        <pt x="201" y="-94" on="0"/>
        <pt x="195" y="-75" on="1"/>
        <pt x="334" y="-68" on="1"/>
        <pt x="334" y="-96" on="0"/>
        <pt x="321" y="-157" on="0"/>
        <pt x="301" y="-214" on="0"/>
        <pt x="272" y="-264" on="0"/>
        <pt x="256" y="-281" on="1"/>
      </contour>
    </TTGlyph>
    <TTGlyph name="Lcommaaccent.sc" xMin="79" yMin="-281" xMax="422" yMax="530">
      <contour>
        <pt x="412" y="0" on="1"/>
        <pt x="79" y="0" on="1"/>
        <pt x="79" y="530" on="1"/>
        <pt x="195" y="530" on="1"/>
        <pt x="195" y="96" on="1"/>
        <pt x="422" y="96" on="1"/>
      </contour>
      <contour>
        <pt x="170" y="-264" on="1"/>
        <pt x="177" y="-242" on="0"/>
        <pt x="184" y="-191" on="0"/>
        <pt x="184" y="-165" on="1"/>
        <pt x="184" y="-141" on="0"/>
        <pt x="178" y="-94" on="0"/>
        <pt x="172" y="-75" on="1"/>
        <pt x="311" y="-68" on="1"/>
        <pt x="311" y="-96" on="0"/>
        <pt x="298" y="-157" on="0"/>
        <pt x="278" y="-214" on="0"/>
        <pt x="249" y="-264" on="0"/>
        <pt x="233" y="-281" on="1"/>
      </contour>
    </TTGlyph>
    <TTGlyph name="Ldot" xMin="88" yMin="0" xMax="460" yMax="620">
      <contour>
        <pt x="449" y="0" on="1"/>
        <pt x="88" y="0" on="1"/>
        <pt x="88" y="620" on="1"/>
        <pt x="205" y="620" on="1"/>
        <pt x="205" y="105" on="1"/>
        <pt x="460" y="105" on="1"/>
      </contour>
      <contour>
        <pt x="450" y="250" on="1"/>
        <pt x="331" y="250" on="1"/>
        <pt x="339" y="385" on="1"/>
        <pt x="458" y="385" on="1"/>
      </contour>
    </TTGlyph>
    <TTGlyph name="Ldot.sc" xMin="79" yMin="0" xMax="430" yMax="530">
      <contour>
        <pt x="412" y="0" on="1"/>
        <pt x="79" y="0" on="1"/>
        <pt x="79" y="530" on="1"/>
        <pt x="195" y="530" on="1"/>
        <pt x="195" y="96" on="1"/>
        <pt x="422" y="96" on="1"/>
      </contour>
      <contour>
        <pt x="422" y="250" on="1"/>
        <pt x="303" y="250" on="1"/>
        <pt x="311" y="385" on="1"/>
        <pt x="430" y="385" on="1"/>
      </contour>
    </TTGlyph>
    <TTGlyph name="Lslash" xMin="16" yMin="0" xMax="460" yMax="620">
      <contour>
        <pt x="449" y="0" on="1"/>
        <pt x="88" y="0" on="1"/>
        <pt x="88" y="273" on="1"/>
        <pt x="35" y="245" on="1"/>
        <pt x="16" y="332" on="1"/>
        <pt x="88" y="370" on="1"/>
        <pt x="88" y="620" on="1"/>
        <pt x="205" y="620" on="1"/>
        <pt x="205" y="432" on="1"/>
        <pt x="299" y="482" on="1"/>
        <pt x="318" y="395" on="1"/>
        <pt x="205" y="335" on="1"/>
        <pt x="205" y="105" on="1"/>
        <pt x="460" y="105" on="1"/>
      </contour>
    </TTGlyph>
    <TTGlyph name="Lslash.sc" xMin="6" yMin="0" xMax="422" yMax="530">
      <contour>
        <pt x="412" y="0" on="1"/>
        <pt x="79" y="0" on="1"/>
        <pt x="79" y="226" on="1"/>
        <pt x="25" y="197" on="1"/>
        <pt x="6" y="282" on="1"/>
        <pt x="79" y="321" on="1"/>
        <pt x="79" y="530" on="1"/>
        <pt x="195" y="530" on="1"/>
        <pt x="195" y="382" on="1"/>
        <pt x="289" y="432" on="1"/>
        <pt x="308" y="347" on="1"/>
        <pt x="195" y="287" on="1"/>
        <pt x="195" y="96" on="1"/>
        <pt x="422" y="96" on="1"/>
      </contour>
    </TTGlyph>
    <TTGlyph name="M" xMin="88" yMin="0" xMax="703" yMax="620">
      <contour>
        <pt x="540" y="620" on="1"/>
        <pt x="703" y="620" on="1"/>
        <pt x="703" y="0" on="1"/>
        <pt x="584" y="0" on="1"/>
        <pt x="588" y="459" on="1"/>
        <pt x="580" y="459" on="1"/>
        <pt x="436" y="47" on="1"/>
        <pt x="345" y="46" on="1"/>
        <pt x="200" y="459" on="1"/>
        <pt x="193" y="459" on="1"/>
        <pt x="197" y="0" on="1"/>
        <pt x="88" y="0" on="1"/>
        <pt x="88" y="620" on="1"/>
        <pt x="261" y="620" on="1"/>
        <pt x="396" y="220" on="1"/>
        <pt x="404" y="220" on="1"/>
      </contour>
    </TTGlyph>
    <TTGlyph name="M.sc" xMin="79" yMin="0" xMax="638" yMax="530">
      <contour>
        <pt x="314" y="39" on="1"/>
        <pt x="188" y="378" on="1"/>
        <pt x="182" y="378" on="1"/>
        <pt x="187" y="0" on="1"/>
        <pt x="79" y="0" on="1"/>
        <pt x="79" y="530" on="1"/>
        <pt x="242" y="530" on="1"/>
        <pt x="360" y="201" on="1"/>
        <pt x="367" y="201" on="1"/>
        <pt x="486" y="530" on="1"/>
        <pt x="638" y="530" on="1"/>
        <pt x="638" y="0" on="1"/>
        <pt x="524" y="0" on="1"/>
        <pt x="529" y="378" on="1"/>
        <pt x="522" y="378" on="1"/>
        <pt x="396" y="40" on="1"/>
      </contour>
    </TTGlyph>
    <TTGlyph name="N" xMin="88" yMin="0" xMax="570" yMax="620">
      <contour>
        <pt x="437" y="0" on="1"/>
        <pt x="202" y="454" on="1"/>
        <pt x="194" y="454" on="1"/>
        <pt x="197" y="0" on="1"/>
        <pt x="88" y="0" on="1"/>
        <pt x="88" y="620" on="1"/>
        <pt x="241" y="620" on="1"/>
        <pt x="457" y="203" on="1"/>
        <pt x="464" y="203" on="1"/>
        <pt x="461" y="620" on="1"/>
        <pt x="570" y="620" on="1"/>
        <pt x="570" y="0" on="1"/>
      </contour>
    </TTGlyph>
    <TTGlyph name="N.sc" xMin="79" yMin="0" xMax="521" yMax="530">
      <contour>
        <pt x="393" y="0" on="1"/>
        <pt x="189" y="372" on="1"/>
        <pt x="183" y="372" on="1"/>
        <pt x="185" y="0" on="1"/>
        <pt x="79" y="0" on="1"/>
        <pt x="79" y="530" on="1"/>
        <pt x="221" y="530" on="1"/>
        <pt x="410" y="186" on="1"/>
        <pt x="416" y="186" on="1"/>
        <pt x="414" y="530" on="1"/>
        <pt x="521" y="530" on="1"/>
        <pt x="521" y="0" on="1"/>
      </contour>
    </TTGlyph>
    <TTGlyph name="Nacute" xMin="88" yMin="0" xMax="570" yMax="911">
      <contour>
        <pt x="211" y="735" on="1"/>
        <pt x="229" y="747" on="0"/>
        <pt x="279" y="789" on="0"/>
        <pt x="333" y="838" on="0"/>
        <pt x="384" y="889" on="0"/>
        <pt x="403" y="911" on="1"/>
        <pt x="491" y="821" on="1"/>
        <pt x="468" y="802" on="0"/>
        <pt x="402" y="760" on="0"/>
        <pt x="333" y="721" on="0"/>
        <pt x="266" y="689" on="0"/>
        <pt x="243" y="680" on="1"/>
      </contour>
      <contour>
        <pt x="437" y="0" on="1"/>
        <pt x="202" y="454" on="1"/>
        <pt x="194" y="454" on="1"/>
        <pt x="197" y="0" on="1"/>
        <pt x="88" y="0" on="1"/>
        <pt x="88" y="620" on="1"/>
        <pt x="241" y="620" on="1"/>
        <pt x="457" y="203" on="1"/>
        <pt x="464" y="203" on="1"/>
        <pt x="461" y="620" on="1"/>
        <pt x="570" y="620" on="1"/>
        <pt x="570" y="0" on="1"/>
      </contour>
    </TTGlyph>
    <TTGlyph name="Nacute.sc" xMin="79" yMin="0" xMax="521" yMax="821">
      <contour>
        <pt x="182" y="645" on="1"/>
        <pt x="200" y="657" on="0"/>
        <pt x="250" y="699" on="0"/>
        <pt x="304" y="748" on="0"/>
        <pt x="355" y="799" on="0"/>
        <pt x="374" y="821" on="1"/>
        <pt x="462" y="731" on="1"/>
        <pt x="439" y="712" on="0"/>
        <pt x="373" y="670" on="0"/>
        <pt x="304" y="631" on="0"/>
        <pt x="237" y="599" on="0"/>
        <pt x="214" y="590" on="1"/>
      </contour>
      <contour>
        <pt x="393" y="0" on="1"/>
        <pt x="189" y="372" on="1"/>
        <pt x="183" y="372" on="1"/>
        <pt x="185" y="0" on="1"/>
        <pt x="79" y="0" on="1"/>
        <pt x="79" y="530" on="1"/>
        <pt x="221" y="530" on="1"/>
        <pt x="410" y="186" on="1"/>
        <pt x="416" y="186" on="1"/>
        <pt x="414" y="530" on="1"/>
        <pt x="521" y="530" on="1"/>
        <pt x="521" y="0" on="1"/>
      </contour>
    </TTGlyph>
    <TTGlyph name="Ncaron" xMin="88" yMin="0" xMax="570" yMax="885">
      <contour>
        <pt x="336" y="673" on="1"/>
        <pt x="335" y="673" on="1"/>
        <pt x="158" y="811" on="1"/>
        <pt x="233" y="885" on="1"/>
        <pt x="345" y="790" on="1"/>
        <pt x="451" y="884" on="1"/>
        <pt x="507" y="828" on="1"/>
      </contour>
      <contour>
        <pt x="437" y="0" on="1"/>
        <pt x="202" y="454" on="1"/>
        <pt x="194" y="454" on="1"/>
        <pt x="197" y="0" on="1"/>
        <pt x="88" y="0" on="1"/>
        <pt x="88" y="620" on="1"/>
        <pt x="241" y="620" on="1"/>
        <pt x="457" y="203" on="1"/>
        <pt x="464" y="203" on="1"/>
        <pt x="461" y="620" on="1"/>
        <pt x="570" y="620" on="1"/>
        <pt x="570" y="0" on="1"/>
      </contour>
    </TTGlyph>
    <TTGlyph name="Ncaron.sc" xMin="79" yMin="0" xMax="521" yMax="795">
      <contour>
        <pt x="307" y="583" on="1"/>
        <pt x="306" y="583" on="1"/>
        <pt x="129" y="721" on="1"/>
        <pt x="204" y="795" on="1"/>
        <pt x="316" y="700" on="1"/>
        <pt x="422" y="794" on="1"/>
        <pt x="478" y="738" on="1"/>
      </contour>
      <contour>
        <pt x="393" y="0" on="1"/>
        <pt x="189" y="372" on="1"/>
        <pt x="183" y="372" on="1"/>
        <pt x="185" y="0" on="1"/>
        <pt x="79" y="0" on="1"/>
        <pt x="79" y="530" on="1"/>
        <pt x="221" y="530" on="1"/>
        <pt x="410" y="186" on="1"/>
        <pt x="416" y="186" on="1"/>
        <pt x="414" y="530" on="1"/>
        <pt x="521" y="530" on="1"/>
        <pt x="521" y="0" on="1"/>
      </contour>
    </TTGlyph>
    <TTGlyph name="Ncommaaccent" xMin="88" yMin="-281" xMax="570" yMax="620">
      <contour>
        <pt x="437" y="0" on="1"/>
        <pt x="202" y="454" on="1"/>
        <pt x="194" y="454" on="1"/>
        <pt x="197" y="0" on="1"/>
        <pt x="88" y="0" on="1"/>
        <pt x="88" y="620" on="1"/>
        <pt x="241" y="620" on="1"/>
        <pt x="457" y="203" on="1"/>
        <pt x="464" y="203" on="1"/>
        <pt x="461" y="620" on="1"/>
        <pt x="570" y="620" on="1"/>
        <pt x="570" y="0" on="1"/>
      </contour>
      <contour>
        <pt x="256" y="-264" on="1"/>
        <pt x="263" y="-242" on="0"/>
        <pt x="270" y="-191" on="0"/>
        <pt x="270" y="-165" on="1"/>
        <pt x="270" y="-141" on="0"/>
        <pt x="264" y="-94" on="0"/>
        <pt x="258" y="-75" on="1"/>
        <pt x="397" y="-68" on="1"/>
        <pt x="397" y="-96" on="0"/>
        <pt x="384" y="-157" on="0"/>
        <pt x="364" y="-214" on="0"/>
        <pt x="335" y="-264" on="0"/>
        <pt x="319" y="-281" on="1"/>
      </contour>
    </TTGlyph>
    <TTGlyph name="Ncommaaccent.sc" xMin="79" yMin="-281" xMax="521" yMax="530">
      <contour>
        <pt x="393" y="0" on="1"/>
        <pt x="189" y="372" on="1"/>
        <pt x="183" y="372" on="1"/>
        <pt x="185" y="0" on="1"/>
        <pt x="79" y="0" on="1"/>
        <pt x="79" y="530" on="1"/>
        <pt x="221" y="530" on="1"/>
        <pt x="410" y="186" on="1"/>
        <pt x="416" y="186" on="1"/>
        <pt x="414" y="530" on="1"/>
        <pt x="521" y="530" on="1"/>
        <pt x="521" y="0" on="1"/>
      </contour>
      <contour>
        <pt x="227" y="-264" on="1"/>
        <pt x="234" y="-242" on="0"/>
        <pt x="241" y="-191" on="0"/>
        <pt x="241" y="-165" on="1"/>
        <pt x="241" y="-141" on="0"/>
        <pt x="235" y="-94" on="0"/>
        <pt x="229" y="-75" on="1"/>
        <pt x="368" y="-68" on="1"/>
        <pt x="368" y="-96" on="0"/>
        <pt x="355" y="-157" on="0"/>
        <pt x="335" y="-214" on="0"/>
        <pt x="306" y="-264" on="0"/>
        <pt x="290" y="-281" on="1"/>
      </contour>
    </TTGlyph>
    <TTGlyph name="Ntilde" xMin="88" yMin="0" xMax="570" yMax="866">
      <contour>
        <pt x="394" y="689" on="1"/>
        <pt x="372" y="689" on="0"/>
        <pt x="332" y="713" on="0"/>
        <pt x="298" y="742" on="0"/>
        <pt x="268" y="766" on="0"/>
        <pt x="257" y="766" on="1"/>
        <pt x="249" y="766" on="0"/>
        <pt x="220" y="737" on="0"/>
        <pt x="201" y="699" on="1"/>
        <pt x="143" y="733" on="1"/>
        <pt x="168" y="788" on="0"/>
        <pt x="239" y="866" on="0"/>
        <pt x="275" y="866" on="1"/>
        <pt x="297" y="866" on="0"/>
        <pt x="337" y="842" on="0"/>
        <pt x="371" y="813" on="0"/>
        <pt x="401" y="789" on="0"/>
        <pt x="412" y="789" on="1"/>
        <pt x="420" y="789" on="0"/>
        <pt x="449" y="818" on="0"/>
        <pt x="468" y="856" on="1"/>
        <pt x="526" y="822" on="1"/>
        <pt x="501" y="767" on="0"/>
        <pt x="430" y="689" on="0"/>
      </contour>
      <contour>
        <pt x="437" y="0" on="1"/>
        <pt x="202" y="454" on="1"/>
        <pt x="194" y="454" on="1"/>
        <pt x="197" y="0" on="1"/>
        <pt x="88" y="0" on="1"/>
        <pt x="88" y="620" on="1"/>
        <pt x="241" y="620" on="1"/>
        <pt x="457" y="203" on="1"/>
        <pt x="464" y="203" on="1"/>
        <pt x="461" y="620" on="1"/>
        <pt x="570" y="620" on="1"/>
        <pt x="570" y="0" on="1"/>
      </contour>
    </TTGlyph>
    <TTGlyph name="Ntilde.sc" xMin="79" yMin="0" xMax="521" yMax="776">
      <contour>
        <pt x="365" y="599" on="1"/>
        <pt x="343" y="599" on="0"/>
        <pt x="303" y="623" on="0"/>
        <pt x="269" y="652" on="0"/>
        <pt x="239" y="676" on="0"/>
        <pt x="228" y="676" on="1"/>
        <pt x="220" y="676" on="0"/>
        <pt x="191" y="647" on="0"/>
        <pt x="172" y="609" on="1"/>
        <pt x="114" y="643" on="1"/>
        <pt x="139" y="698" on="0"/>
        <pt x="210" y="776" on="0"/>
        <pt x="246" y="776" on="1"/>
        <pt x="268" y="776" on="0"/>
        <pt x="308" y="752" on="0"/>
        <pt x="342" y="723" on="0"/>
        <pt x="372" y="699" on="0"/>
        <pt x="383" y="699" on="1"/>
        <pt x="391" y="699" on="0"/>
        <pt x="420" y="728" on="0"/>
        <pt x="439" y="766" on="1"/>
        <pt x="497" y="732" on="1"/>
        <pt x="472" y="677" on="0"/>
        <pt x="401" y="599" on="0"/>
      </contour>
      <contour>
        <pt x="393" y="0" on="1"/>
        <pt x="189" y="372" on="1"/>
        <pt x="183" y="372" on="1"/>
        <pt x="185" y="0" on="1"/>
        <pt x="79" y="0" on="1"/>
        <pt x="79" y="530" on="1"/>
        <pt x="221" y="530" on="1"/>
        <pt x="410" y="186" on="1"/>
        <pt x="416" y="186" on="1"/>
        <pt x="414" y="530" on="1"/>
        <pt x="521" y="530" on="1"/>
        <pt x="521" y="0" on="1"/>
      </contour>
    </TTGlyph>
    <TTGlyph name="O" xMin="53" yMin="-14" xMax="593" yMax="634">
      <contour>
        <pt x="304" y="-14" on="1"/>
        <pt x="250" y="-14" on="0"/>
        <pt x="157" y="28" on="0"/>
        <pt x="91" y="106" on="0"/>
        <pt x="53" y="218" on="0"/>
        <pt x="53" y="288" on="1"/>
        <pt x="53" y="369" on="0"/>
        <pt x="99" y="498" on="0"/>
        <pt x="176" y="587" on="0"/>
        <pt x="282" y="634" on="0"/>
        <pt x="342" y="634" on="1"/>
        <pt x="396" y="634" on="0"/>
        <pt x="489" y="592" on="0"/>
        <pt x="555" y="514" on="0"/>
        <pt x="593" y="402" on="0"/>
        <pt x="593" y="332" on="1"/>
        <pt x="593" y="251" on="0"/>
        <pt x="547" y="122" on="0"/>
        <pt x="470" y="34" on="0"/>
        <pt x="364" y="-14" on="0"/>
      </contour>
      <contour>
        <pt x="314" y="533" on="1"/>
        <pt x="244" y="533" on="0"/>
        <pt x="171" y="426" on="0"/>
        <pt x="171" y="322" on="1"/>
        <pt x="171" y="209" on="0"/>
        <pt x="260" y="87" on="0"/>
        <pt x="332" y="87" on="1"/>
        <pt x="402" y="87" on="0"/>
        <pt x="475" y="194" on="0"/>
        <pt x="475" y="298" on="1"/>
        <pt x="475" y="411" on="0"/>
        <pt x="386" y="533" on="0"/>
      </contour>
    </TTGlyph>
    <TTGlyph name="O.sc" xMin="47" yMin="-12" xMax="542" yMax="542">
      <contour>
        <pt x="277" y="-12" on="1"/>
        <pt x="227" y="-12" on="0"/>
        <pt x="142" y="24" on="0"/>
        <pt x="81" y="90" on="0"/>
        <pt x="47" y="186" on="0"/>
        <pt x="47" y="246" on="1"/>
        <pt x="47" y="315" on="0"/>
        <pt x="89" y="426" on="0"/>
        <pt x="160" y="502" on="0"/>
        <pt x="257" y="542" on="0"/>
        <pt x="312" y="542" on="1"/>
        <pt x="362" y="542" on="0"/>
        <pt x="446" y="506" on="0"/>
        <pt x="507" y="440" on="0"/>
        <pt x="542" y="344" on="0"/>
        <pt x="542" y="284" on="1"/>
        <pt x="542" y="215" on="0"/>
        <pt x="500" y="105" on="0"/>
        <pt x="428" y="29" on="0"/>
        <pt x="331" y="-12" on="0"/>
      </contour>
      <contour>
        <pt x="287" y="449" on="1"/>
        <pt x="227" y="449" on="0"/>
        <pt x="164" y="361" on="0"/>
        <pt x="164" y="275" on="1"/>
        <pt x="164" y="182" on="0"/>
        <pt x="241" y="81" on="0"/>
        <pt x="302" y="81" on="1"/>
        <pt x="362" y="81" on="0"/>
        <pt x="425" y="169" on="0"/>
        <pt x="425" y="255" on="1"/>
        <pt x="425" y="348" on="0"/>
        <pt x="348" y="449" on="0"/>
      </contour>
    </TTGlyph>
    <TTGlyph name="OE" xMin="53" yMin="0" xMax="793" yMax="620">
      <contour>
        <pt x="170" y="321" on="1"/>
        <pt x="170" y="208" on="0"/>
        <pt x="288" y="107" on="0"/>
        <pt x="421" y="106" on="1"/>
        <pt x="421" y="513" on="1"/>
        <pt x="283" y="512" on="0"/>
        <pt x="170" y="434" on="0"/>
      </contour>
      <contour>
        <pt x="793" y="105" on="1"/>
        <pt x="782" y="0" on="1"/>
        <pt x="472" y="0" on="1"/>
        <pt x="259" y="0" on="0"/>
        <pt x="53" y="139" on="0"/>
        <pt x="53" y="301" on="1"/>
        <pt x="53" y="452" on="0"/>
        <pt x="272" y="620" on="0"/>
        <pt x="479" y="620" on="1"/>
        <pt x="787" y="620" on="1"/>
        <pt x="787" y="515" on="1"/>
        <pt x="538" y="515" on="1"/>
        <pt x="538" y="357" on="1"/>
        <pt x="752" y="357" on="1"/>
        <pt x="752" y="266" on="1"/>
        <pt x="538" y="266" on="1"/>
        <pt x="538" y="105" on="1"/>
      </contour>
    </TTGlyph>
    <TTGlyph name="OE.sc" xMin="47" yMin="0" xMax="719" yMax="530">
      <contour>
        <pt x="163" y="274" on="1"/>
        <pt x="163" y="187" on="0"/>
        <pt x="259" y="96" on="0"/>
        <pt x="381" y="96" on="1"/>
        <pt x="380" y="434" on="1"/>
        <pt x="261" y="434" on="0"/>
        <pt x="163" y="362" on="0"/>
      </contour>
      <contour>
        <pt x="719" y="97" on="1"/>
        <pt x="709" y="0" on="1"/>
        <pt x="435" y="0" on="1"/>
        <pt x="233" y="0" on="0"/>
        <pt x="47" y="118" on="0"/>
        <pt x="47" y="257" on="1"/>
        <pt x="47" y="388" on="0"/>
        <pt x="244" y="530" on="0"/>
        <pt x="437" y="530" on="1"/>
        <pt x="714" y="530" on="1"/>
        <pt x="714" y="433" on="1"/>
        <pt x="492" y="433" on="1"/>
        <pt x="492" y="307" on="1"/>
        <pt x="681" y="307" on="1"/>
        <pt x="681" y="226" on="1"/>
        <pt x="492" y="226" on="1"/>
        <pt x="492" y="97" on="1"/>
      </contour>
    </TTGlyph>
    <TTGlyph name="Oacute" xMin="53" yMin="-14" xMax="593" yMax="925">
      <contour>
        <pt x="213" y="749" on="1"/>
        <pt x="231" y="761" on="0"/>
        <pt x="281" y="803" on="0"/>
        <pt x="335" y="852" on="0"/>
        <pt x="386" y="903" on="0"/>
        <pt x="405" y="925" on="1"/>
        <pt x="493" y="835" on="1"/>
        <pt x="470" y="816" on="0"/>
        <pt x="404" y="774" on="0"/>
        <pt x="335" y="735" on="0"/>
        <pt x="268" y="703" on="0"/>
        <pt x="245" y="694" on="1"/>
      </contour>
      <contour>
        <pt x="304" y="-14" on="1"/>
        <pt x="250" y="-14" on="0"/>
        <pt x="157" y="28" on="0"/>
        <pt x="91" y="106" on="0"/>
        <pt x="53" y="218" on="0"/>
        <pt x="53" y="288" on="1"/>
        <pt x="53" y="369" on="0"/>
        <pt x="99" y="498" on="0"/>
        <pt x="176" y="587" on="0"/>
        <pt x="282" y="634" on="0"/>
        <pt x="342" y="634" on="1"/>
        <pt x="396" y="634" on="0"/>
        <pt x="489" y="592" on="0"/>
        <pt x="555" y="514" on="0"/>
        <pt x="593" y="402" on="0"/>
        <pt x="593" y="332" on="1"/>
        <pt x="593" y="251" on="0"/>
        <pt x="547" y="122" on="0"/>
        <pt x="470" y="34" on="0"/>
        <pt x="364" y="-14" on="0"/>
      </contour>
      <contour>
        <pt x="314" y="533" on="1"/>
        <pt x="244" y="533" on="0"/>
        <pt x="171" y="426" on="0"/>
        <pt x="171" y="322" on="1"/>
        <pt x="171" y="209" on="0"/>
        <pt x="260" y="87" on="0"/>
        <pt x="332" y="87" on="1"/>
        <pt x="402" y="87" on="0"/>
        <pt x="475" y="194" on="0"/>
        <pt x="475" y="298" on="1"/>
        <pt x="475" y="411" on="0"/>
        <pt x="386" y="533" on="0"/>
      </contour>
    </TTGlyph>
    <TTGlyph name="Oacute.sc" xMin="47" yMin="-12" xMax="542" yMax="833">
      <contour>
        <pt x="184" y="657" on="1"/>
        <pt x="202" y="669" on="0"/>
        <pt x="252" y="711" on="0"/>
        <pt x="306" y="760" on="0"/>
        <pt x="357" y="811" on="0"/>
        <pt x="376" y="833" on="1"/>
        <pt x="464" y="743" on="1"/>
        <pt x="441" y="724" on="0"/>
        <pt x="375" y="682" on="0"/>
        <pt x="306" y="643" on="0"/>
        <pt x="239" y="611" on="0"/>
        <pt x="216" y="602" on="1"/>
      </contour>
      <contour>
        <pt x="277" y="-12" on="1"/>
        <pt x="227" y="-12" on="0"/>
        <pt x="142" y="24" on="0"/>
        <pt x="81" y="90" on="0"/>
        <pt x="47" y="186" on="0"/>
        <pt x="47" y="246" on="1"/>
        <pt x="47" y="315" on="0"/>
        <pt x="89" y="426" on="0"/>
        <pt x="160" y="502" on="0"/>
        <pt x="257" y="542" on="0"/>
        <pt x="312" y="542" on="1"/>
        <pt x="362" y="542" on="0"/>
        <pt x="446" y="506" on="0"/>
        <pt x="507" y="440" on="0"/>
        <pt x="542" y="344" on="0"/>
        <pt x="542" y="284" on="1"/>
        <pt x="542" y="215" on="0"/>
        <pt x="500" y="105" on="0"/>
        <pt x="428" y="29" on="0"/>
        <pt x="331" y="-12" on="0"/>
      </contour>
      <contour>
        <pt x="287" y="449" on="1"/>
        <pt x="227" y="449" on="0"/>
        <pt x="164" y="361" on="0"/>
        <pt x="164" y="275" on="1"/>
        <pt x="164" y="182" on="0"/>
        <pt x="241" y="81" on="0"/>
        <pt x="302" y="81" on="1"/>
        <pt x="362" y="81" on="0"/>
        <pt x="425" y="169" on="0"/>
        <pt x="425" y="255" on="1"/>
        <pt x="425" y="348" on="0"/>
        <pt x="348" y="449" on="0"/>
      </contour>
    </TTGlyph>
    <TTGlyph name="Obreve" xMin="53" yMin="-14" xMax="593" yMax="894">
      <contour>
        <pt x="333" y="698" on="1"/>
        <pt x="284" y="698" on="0"/>
        <pt x="187" y="768" on="0"/>
        <pt x="150" y="840" on="1"/>
        <pt x="233" y="894" on="1"/>
        <pt x="264" y="842" on="0"/>
        <pt x="314" y="794" on="0"/>
        <pt x="345" y="794" on="1"/>
        <pt x="376" y="794" on="0"/>
        <pt x="426" y="843" on="0"/>
        <pt x="454" y="888" on="1"/>
        <pt x="521" y="849" on="1"/>
        <pt x="481" y="777" on="0"/>
        <pt x="382" y="698" on="0"/>
      </contour>
      <contour>
        <pt x="304" y="-14" on="1"/>
        <pt x="250" y="-14" on="0"/>
        <pt x="157" y="28" on="0"/>
        <pt x="91" y="106" on="0"/>
        <pt x="53" y="218" on="0"/>
        <pt x="53" y="288" on="1"/>
        <pt x="53" y="369" on="0"/>
        <pt x="99" y="498" on="0"/>
        <pt x="176" y="587" on="0"/>
        <pt x="282" y="634" on="0"/>
        <pt x="342" y="634" on="1"/>
        <pt x="396" y="634" on="0"/>
        <pt x="489" y="592" on="0"/>
        <pt x="555" y="514" on="0"/>
        <pt x="593" y="402" on="0"/>
        <pt x="593" y="332" on="1"/>
        <pt x="593" y="251" on="0"/>
        <pt x="547" y="122" on="0"/>
        <pt x="470" y="34" on="0"/>
        <pt x="364" y="-14" on="0"/>
      </contour>
      <contour>
        <pt x="314" y="533" on="1"/>
        <pt x="244" y="533" on="0"/>
        <pt x="171" y="426" on="0"/>
        <pt x="171" y="322" on="1"/>
        <pt x="171" y="209" on="0"/>
        <pt x="260" y="87" on="0"/>
        <pt x="332" y="87" on="1"/>
        <pt x="402" y="87" on="0"/>
        <pt x="475" y="194" on="0"/>
        <pt x="475" y="298" on="1"/>
        <pt x="475" y="411" on="0"/>
        <pt x="386" y="533" on="0"/>
      </contour>
    </TTGlyph>
    <TTGlyph name="Obreve.sc" xMin="47" yMin="-12" xMax="542" yMax="802">
      <contour>
        <pt x="304" y="606" on="1"/>
        <pt x="255" y="606" on="0"/>
        <pt x="158" y="676" on="0"/>
        <pt x="121" y="748" on="1"/>
        <pt x="204" y="802" on="1"/>
        <pt x="235" y="750" on="0"/>
        <pt x="285" y="702" on="0"/>
        <pt x="316" y="702" on="1"/>
        <pt x="347" y="702" on="0"/>
        <pt x="397" y="751" on="0"/>
        <pt x="425" y="796" on="1"/>
        <pt x="492" y="757" on="1"/>
        <pt x="452" y="685" on="0"/>
        <pt x="353" y="606" on="0"/>
      </contour>
      <contour>
        <pt x="277" y="-12" on="1"/>
        <pt x="227" y="-12" on="0"/>
        <pt x="142" y="24" on="0"/>
        <pt x="81" y="90" on="0"/>
        <pt x="47" y="186" on="0"/>
        <pt x="47" y="246" on="1"/>
        <pt x="47" y="315" on="0"/>
        <pt x="89" y="426" on="0"/>
        <pt x="160" y="502" on="0"/>
        <pt x="257" y="542" on="0"/>
        <pt x="312" y="542" on="1"/>
        <pt x="362" y="542" on="0"/>
        <pt x="446" y="506" on="0"/>
        <pt x="507" y="440" on="0"/>
        <pt x="542" y="344" on="0"/>
        <pt x="542" y="284" on="1"/>
        <pt x="542" y="215" on="0"/>
        <pt x="500" y="105" on="0"/>
        <pt x="428" y="29" on="0"/>
        <pt x="331" y="-12" on="0"/>
      </contour>
      <contour>
        <pt x="287" y="449" on="1"/>
        <pt x="227" y="449" on="0"/>
        <pt x="164" y="361" on="0"/>
        <pt x="164" y="275" on="1"/>
        <pt x="164" y="182" on="0"/>
        <pt x="241" y="81" on="0"/>
        <pt x="302" y="81" on="1"/>
        <pt x="362" y="81" on="0"/>
        <pt x="425" y="169" on="0"/>
        <pt x="425" y="255" on="1"/>
        <pt x="425" y="348" on="0"/>
        <pt x="348" y="449" on="0"/>
      </contour>
    </TTGlyph>
    <TTGlyph name="Ocircumflex" xMin="53" yMin="-14" xMax="593" yMax="908">
      <contour>
        <pt x="438" y="696" on="1"/>
        <pt x="326" y="791" on="1"/>
        <pt x="220" y="697" on="1"/>
        <pt x="164" y="753" on="1"/>
        <pt x="335" y="908" on="1"/>
        <pt x="336" y="908" on="1"/>
        <pt x="513" y="770" on="1"/>
      </contour>
      <contour>
        <pt x="304" y="-14" on="1"/>
        <pt x="250" y="-14" on="0"/>
        <pt x="157" y="28" on="0"/>
        <pt x="91" y="106" on="0"/>
        <pt x="53" y="218" on="0"/>
        <pt x="53" y="288" on="1"/>
        <pt x="53" y="369" on="0"/>
        <pt x="99" y="498" on="0"/>
        <pt x="176" y="587" on="0"/>
        <pt x="282" y="634" on="0"/>
        <pt x="342" y="634" on="1"/>
        <pt x="396" y="634" on="0"/>
        <pt x="489" y="592" on="0"/>
        <pt x="555" y="514" on="0"/>
        <pt x="593" y="402" on="0"/>
        <pt x="593" y="332" on="1"/>
        <pt x="593" y="251" on="0"/>
        <pt x="547" y="122" on="0"/>
        <pt x="470" y="34" on="0"/>
        <pt x="364" y="-14" on="0"/>
      </contour>
      <contour>
        <pt x="314" y="533" on="1"/>
        <pt x="244" y="533" on="0"/>
        <pt x="171" y="426" on="0"/>
        <pt x="171" y="322" on="1"/>
        <pt x="171" y="209" on="0"/>
        <pt x="260" y="87" on="0"/>
        <pt x="332" y="87" on="1"/>
        <pt x="402" y="87" on="0"/>
        <pt x="475" y="194" on="0"/>
        <pt x="475" y="298" on="1"/>
        <pt x="475" y="411" on="0"/>
        <pt x="386" y="533" on="0"/>
      </contour>
    </TTGlyph>
    <TTGlyph name="Ocircumflex.sc" xMin="47" yMin="-12" xMax="542" yMax="816">
      <contour>
        <pt x="409" y="604" on="1"/>
        <pt x="297" y="699" on="1"/>
        <pt x="191" y="605" on="1"/>
        <pt x="135" y="661" on="1"/>
        <pt x="306" y="816" on="1"/>
        <pt x="307" y="816" on="1"/>
        <pt x="484" y="678" on="1"/>
      </contour>
      <contour>
        <pt x="277" y="-12" on="1"/>
        <pt x="227" y="-12" on="0"/>
        <pt x="142" y="24" on="0"/>
        <pt x="81" y="90" on="0"/>
        <pt x="47" y="186" on="0"/>
        <pt x="47" y="246" on="1"/>
        <pt x="47" y="315" on="0"/>
        <pt x="89" y="426" on="0"/>
        <pt x="160" y="502" on="0"/>
        <pt x="257" y="542" on="0"/>
        <pt x="312" y="542" on="1"/>
        <pt x="362" y="542" on="0"/>
        <pt x="446" y="506" on="0"/>
        <pt x="507" y="440" on="0"/>
        <pt x="542" y="344" on="0"/>
        <pt x="542" y="284" on="1"/>
        <pt x="542" y="215" on="0"/>
        <pt x="500" y="105" on="0"/>
        <pt x="428" y="29" on="0"/>
        <pt x="331" y="-12" on="0"/>
      </contour>
      <contour>
        <pt x="287" y="449" on="1"/>
        <pt x="227" y="449" on="0"/>
        <pt x="164" y="361" on="0"/>
        <pt x="164" y="275" on="1"/>
        <pt x="164" y="182" on="0"/>
        <pt x="241" y="81" on="0"/>
        <pt x="302" y="81" on="1"/>
        <pt x="362" y="81" on="0"/>
        <pt x="425" y="169" on="0"/>
        <pt x="425" y="255" on="1"/>
        <pt x="425" y="348" on="0"/>
        <pt x="348" y="449" on="0"/>
      </contour>
    </TTGlyph>
    <TTGlyph name="Odieresis" xMin="53" yMin="-14" xMax="593" yMax="844">
      <contour>
        <pt x="489" y="709" on="1"/>
        <pt x="370" y="709" on="1"/>
        <pt x="373" y="844" on="1"/>
        <pt x="492" y="844" on="1"/>
      </contour>
      <contour>
        <pt x="289" y="709" on="1"/>
        <pt x="170" y="709" on="1"/>
        <pt x="173" y="844" on="1"/>
        <pt x="292" y="844" on="1"/>
      </contour>
      <contour>
        <pt x="304" y="-14" on="1"/>
        <pt x="250" y="-14" on="0"/>
        <pt x="157" y="28" on="0"/>
        <pt x="91" y="106" on="0"/>
        <pt x="53" y="218" on="0"/>
        <pt x="53" y="288" on="1"/>
        <pt x="53" y="369" on="0"/>
        <pt x="99" y="498" on="0"/>
        <pt x="176" y="587" on="0"/>
        <pt x="282" y="634" on="0"/>
        <pt x="342" y="634" on="1"/>
        <pt x="396" y="634" on="0"/>
        <pt x="489" y="592" on="0"/>
        <pt x="555" y="514" on="0"/>
        <pt x="593" y="402" on="0"/>
        <pt x="593" y="332" on="1"/>
        <pt x="593" y="251" on="0"/>
        <pt x="547" y="122" on="0"/>
        <pt x="470" y="34" on="0"/>
        <pt x="364" y="-14" on="0"/>
      </contour>
      <contour>
        <pt x="314" y="533" on="1"/>
        <pt x="244" y="533" on="0"/>
        <pt x="171" y="426" on="0"/>
        <pt x="171" y="322" on="1"/>
        <pt x="171" y="209" on="0"/>
        <pt x="260" y="87" on="0"/>
        <pt x="332" y="87" on="1"/>
        <pt x="402" y="87" on="0"/>
        <pt x="475" y="194" on="0"/>
        <pt x="475" y="298" on="1"/>
        <pt x="475" y="411" on="0"/>
        <pt x="386" y="533" on="0"/>
      </contour>
    </TTGlyph>
    <TTGlyph name="Odieresis.sc" xMin="47" yMin="-12" xMax="542" yMax="752">
      <contour>
        <pt x="460" y="617" on="1"/>
        <pt x="341" y="617" on="1"/>
        <pt x="344" y="752" on="1"/>
        <pt x="463" y="752" on="1"/>
      </contour>
      <contour>
        <pt x="260" y="617" on="1"/>
        <pt x="141" y="617" on="1"/>
        <pt x="144" y="752" on="1"/>
        <pt x="263" y="752" on="1"/>
      </contour>
      <contour>
        <pt x="277" y="-12" on="1"/>
        <pt x="227" y="-12" on="0"/>
        <pt x="142" y="24" on="0"/>
        <pt x="81" y="90" on="0"/>
        <pt x="47" y="186" on="0"/>
        <pt x="47" y="246" on="1"/>
        <pt x="47" y="315" on="0"/>
        <pt x="89" y="426" on="0"/>
        <pt x="160" y="502" on="0"/>
        <pt x="257" y="542" on="0"/>
        <pt x="312" y="542" on="1"/>
        <pt x="362" y="542" on="0"/>
        <pt x="446" y="506" on="0"/>
        <pt x="507" y="440" on="0"/>
        <pt x="542" y="344" on="0"/>
        <pt x="542" y="284" on="1"/>
        <pt x="542" y="215" on="0"/>
        <pt x="500" y="105" on="0"/>
        <pt x="428" y="29" on="0"/>
        <pt x="331" y="-12" on="0"/>
      </contour>
      <contour>
        <pt x="287" y="449" on="1"/>
        <pt x="227" y="449" on="0"/>
        <pt x="164" y="361" on="0"/>
        <pt x="164" y="275" on="1"/>
        <pt x="164" y="182" on="0"/>
        <pt x="241" y="81" on="0"/>
        <pt x="302" y="81" on="1"/>
        <pt x="362" y="81" on="0"/>
        <pt x="425" y="169" on="0"/>
        <pt x="425" y="255" on="1"/>
        <pt x="425" y="348" on="0"/>
        <pt x="348" y="449" on="0"/>
      </contour>
    </TTGlyph>
    <TTGlyph name="Ograve" xMin="53" yMin="-14" xMax="593" yMax="927">
      <contour>
        <pt x="437" y="747" on="1"/>
        <pt x="402" y="693" on="1"/>
        <pt x="379" y="703" on="0"/>
        <pt x="316" y="736" on="0"/>
        <pt x="248" y="773" on="0"/>
        <pt x="183" y="812" on="0"/>
        <pt x="158" y="828" on="1"/>
        <pt x="237" y="927" on="1"/>
        <pt x="257" y="907" on="0"/>
        <pt x="313" y="855" on="0"/>
        <pt x="370" y="804" on="0"/>
        <pt x="421" y="760" on="0"/>
      </contour>
      <contour>
        <pt x="304" y="-14" on="1"/>
        <pt x="250" y="-14" on="0"/>
        <pt x="157" y="28" on="0"/>
        <pt x="91" y="106" on="0"/>
        <pt x="53" y="218" on="0"/>
        <pt x="53" y="288" on="1"/>
        <pt x="53" y="369" on="0"/>
        <pt x="99" y="498" on="0"/>
        <pt x="176" y="587" on="0"/>
        <pt x="282" y="634" on="0"/>
        <pt x="342" y="634" on="1"/>
        <pt x="396" y="634" on="0"/>
        <pt x="489" y="592" on="0"/>
        <pt x="555" y="514" on="0"/>
        <pt x="593" y="402" on="0"/>
        <pt x="593" y="332" on="1"/>
        <pt x="593" y="251" on="0"/>
        <pt x="547" y="122" on="0"/>
        <pt x="470" y="34" on="0"/>
        <pt x="364" y="-14" on="0"/>
      </contour>
      <contour>
        <pt x="314" y="533" on="1"/>
        <pt x="244" y="533" on="0"/>
        <pt x="171" y="426" on="0"/>
        <pt x="171" y="322" on="1"/>
        <pt x="171" y="209" on="0"/>
        <pt x="260" y="87" on="0"/>
        <pt x="332" y="87" on="1"/>
        <pt x="402" y="87" on="0"/>
        <pt x="475" y="194" on="0"/>
        <pt x="475" y="298" on="1"/>
        <pt x="475" y="411" on="0"/>
        <pt x="386" y="533" on="0"/>
      </contour>
    </TTGlyph>
    <TTGlyph name="Ograve.sc" xMin="47" yMin="-12" xMax="542" yMax="835">
      <contour>
        <pt x="408" y="655" on="1"/>
        <pt x="373" y="601" on="1"/>
        <pt x="350" y="611" on="0"/>
        <pt x="287" y="644" on="0"/>
        <pt x="219" y="681" on="0"/>
        <pt x="154" y="720" on="0"/>
        <pt x="129" y="736" on="1"/>
        <pt x="208" y="835" on="1"/>
        <pt x="228" y="815" on="0"/>
        <pt x="284" y="763" on="0"/>
        <pt x="341" y="712" on="0"/>
        <pt x="392" y="668" on="0"/>
      </contour>
      <contour>
        <pt x="277" y="-12" on="1"/>
        <pt x="227" y="-12" on="0"/>
        <pt x="142" y="24" on="0"/>
        <pt x="81" y="90" on="0"/>
        <pt x="47" y="186" on="0"/>
        <pt x="47" y="246" on="1"/>
        <pt x="47" y="315" on="0"/>
        <pt x="89" y="426" on="0"/>
        <pt x="160" y="502" on="0"/>
        <pt x="257" y="542" on="0"/>
        <pt x="312" y="542" on="1"/>
        <pt x="362" y="542" on="0"/>
        <pt x="446" y="506" on="0"/>
        <pt x="507" y="440" on="0"/>
        <pt x="542" y="344" on="0"/>
        <pt x="542" y="284" on="1"/>
        <pt x="542" y="215" on="0"/>
        <pt x="500" y="105" on="0"/>
        <pt x="428" y="29" on="0"/>
        <pt x="331" y="-12" on="0"/>
      </contour>
      <contour>
        <pt x="287" y="449" on="1"/>
        <pt x="227" y="449" on="0"/>
        <pt x="164" y="361" on="0"/>
        <pt x="164" y="275" on="1"/>
        <pt x="164" y="182" on="0"/>
        <pt x="241" y="81" on="0"/>
        <pt x="302" y="81" on="1"/>
        <pt x="362" y="81" on="0"/>
        <pt x="425" y="169" on="0"/>
        <pt x="425" y="255" on="1"/>
        <pt x="425" y="348" on="0"/>
        <pt x="348" y="449" on="0"/>
      </contour>
    </TTGlyph>
    <TTGlyph name="Ohungarumlaut" xMin="53" yMin="-14" xMax="593" yMax="939">
      <contour>
        <pt x="177" y="743" on="1"/>
        <pt x="189" y="763" on="0"/>
        <pt x="215" y="814" on="0"/>
        <pt x="239" y="867" on="0"/>
        <pt x="260" y="918" on="0"/>
        <pt x="267" y="939" on="1"/>
        <pt x="381" y="885" on="1"/>
        <pt x="356" y="845" on="0"/>
        <pt x="272" y="741" on="0"/>
        <pt x="235" y="703" on="1"/>
      </contour>
      <contour>
        <pt x="369" y="742" on="1"/>
        <pt x="392" y="782" on="0"/>
        <pt x="439" y="886" on="0"/>
        <pt x="453" y="929" on="1"/>
        <pt x="571" y="885" on="1"/>
        <pt x="546" y="843" on="0"/>
        <pt x="466" y="740" on="0"/>
        <pt x="427" y="702" on="1"/>
      </contour>
      <contour>
        <pt x="304" y="-14" on="1"/>
        <pt x="250" y="-14" on="0"/>
        <pt x="157" y="28" on="0"/>
        <pt x="91" y="106" on="0"/>
        <pt x="53" y="218" on="0"/>
        <pt x="53" y="288" on="1"/>
        <pt x="53" y="369" on="0"/>
        <pt x="99" y="498" on="0"/>
        <pt x="176" y="587" on="0"/>
        <pt x="282" y="634" on="0"/>
        <pt x="342" y="634" on="1"/>
        <pt x="396" y="634" on="0"/>
        <pt x="489" y="592" on="0"/>
        <pt x="555" y="514" on="0"/>
        <pt x="593" y="402" on="0"/>
        <pt x="593" y="332" on="1"/>
        <pt x="593" y="251" on="0"/>
        <pt x="547" y="122" on="0"/>
        <pt x="470" y="34" on="0"/>
        <pt x="364" y="-14" on="0"/>
      </contour>
      <contour>
        <pt x="314" y="533" on="1"/>
        <pt x="244" y="533" on="0"/>
        <pt x="171" y="426" on="0"/>
        <pt x="171" y="322" on="1"/>
        <pt x="171" y="209" on="0"/>
        <pt x="260" y="87" on="0"/>
        <pt x="332" y="87" on="1"/>
        <pt x="402" y="87" on="0"/>
        <pt x="475" y="194" on="0"/>
        <pt x="475" y="298" on="1"/>
        <pt x="475" y="411" on="0"/>
        <pt x="386" y="533" on="0"/>
      </contour>
    </TTGlyph>
    <TTGlyph name="Ohungarumlaut.sc" xMin="47" yMin="-12" xMax="542" yMax="847">
      <contour>
        <pt x="148" y="651" on="1"/>
        <pt x="160" y="671" on="0"/>
        <pt x="186" y="722" on="0"/>
        <pt x="210" y="775" on="0"/>
        <pt x="231" y="826" on="0"/>
        <pt x="238" y="847" on="1"/>
        <pt x="352" y="793" on="1"/>
        <pt x="327" y="753" on="0"/>
        <pt x="243" y="649" on="0"/>
        <pt x="206" y="611" on="1"/>
      </contour>
      <contour>
        <pt x="340" y="650" on="1"/>
        <pt x="363" y="690" on="0"/>
        <pt x="410" y="794" on="0"/>
        <pt x="424" y="837" on="1"/>
        <pt x="542" y="793" on="1"/>
        <pt x="517" y="751" on="0"/>
        <pt x="437" y="648" on="0"/>
        <pt x="398" y="610" on="1"/>
      </contour>
      <contour>
        <pt x="277" y="-12" on="1"/>
        <pt x="227" y="-12" on="0"/>
        <pt x="142" y="24" on="0"/>
        <pt x="81" y="90" on="0"/>
        <pt x="47" y="186" on="0"/>
        <pt x="47" y="246" on="1"/>
        <pt x="47" y="315" on="0"/>
        <pt x="89" y="426" on="0"/>
        <pt x="160" y="502" on="0"/>
        <pt x="257" y="542" on="0"/>
        <pt x="312" y="542" on="1"/>
        <pt x="362" y="542" on="0"/>
        <pt x="446" y="506" on="0"/>
        <pt x="507" y="440" on="0"/>
        <pt x="542" y="344" on="0"/>
        <pt x="542" y="284" on="1"/>
        <pt x="542" y="215" on="0"/>
        <pt x="500" y="105" on="0"/>
        <pt x="428" y="29" on="0"/>
        <pt x="331" y="-12" on="0"/>
      </contour>
      <contour>
        <pt x="287" y="449" on="1"/>
        <pt x="227" y="449" on="0"/>
        <pt x="164" y="361" on="0"/>
        <pt x="164" y="275" on="1"/>
        <pt x="164" y="182" on="0"/>
        <pt x="241" y="81" on="0"/>
        <pt x="302" y="81" on="1"/>
        <pt x="362" y="81" on="0"/>
        <pt x="425" y="169" on="0"/>
        <pt x="425" y="255" on="1"/>
        <pt x="425" y="348" on="0"/>
        <pt x="348" y="449" on="0"/>
      </contour>
    </TTGlyph>
    <TTGlyph name="Omacron" xMin="53" yMin="-14" xMax="593" yMax="829">
      <contour>
        <pt x="490" y="829" on="1"/>
        <pt x="490" y="725" on="1"/>
        <pt x="168" y="725" on="1"/>
        <pt x="168" y="829" on="1"/>
      </contour>
      <contour>
        <pt x="304" y="-14" on="1"/>
        <pt x="250" y="-14" on="0"/>
        <pt x="157" y="28" on="0"/>
        <pt x="91" y="106" on="0"/>
        <pt x="53" y="218" on="0"/>
        <pt x="53" y="288" on="1"/>
        <pt x="53" y="369" on="0"/>
        <pt x="99" y="498" on="0"/>
        <pt x="176" y="587" on="0"/>
        <pt x="282" y="634" on="0"/>
        <pt x="342" y="634" on="1"/>
        <pt x="396" y="634" on="0"/>
        <pt x="489" y="592" on="0"/>
        <pt x="555" y="514" on="0"/>
        <pt x="593" y="402" on="0"/>
        <pt x="593" y="332" on="1"/>
        <pt x="593" y="251" on="0"/>
        <pt x="547" y="122" on="0"/>
        <pt x="470" y="34" on="0"/>
        <pt x="364" y="-14" on="0"/>
      </contour>
      <contour>
        <pt x="314" y="533" on="1"/>
        <pt x="244" y="533" on="0"/>
        <pt x="171" y="426" on="0"/>
        <pt x="171" y="322" on="1"/>
        <pt x="171" y="209" on="0"/>
        <pt x="260" y="87" on="0"/>
        <pt x="332" y="87" on="1"/>
        <pt x="402" y="87" on="0"/>
        <pt x="475" y="194" on="0"/>
        <pt x="475" y="298" on="1"/>
        <pt x="475" y="411" on="0"/>
        <pt x="386" y="533" on="0"/>
      </contour>
    </TTGlyph>
    <TTGlyph name="Omacron.sc" xMin="47" yMin="-12" xMax="542" yMax="737">
      <contour>
        <pt x="461" y="737" on="1"/>
        <pt x="461" y="633" on="1"/>
        <pt x="139" y="633" on="1"/>
        <pt x="139" y="737" on="1"/>
      </contour>
      <contour>
        <pt x="277" y="-12" on="1"/>
        <pt x="227" y="-12" on="0"/>
        <pt x="142" y="24" on="0"/>
        <pt x="81" y="90" on="0"/>
        <pt x="47" y="186" on="0"/>
        <pt x="47" y="246" on="1"/>
        <pt x="47" y="315" on="0"/>
        <pt x="89" y="426" on="0"/>
        <pt x="160" y="502" on="0"/>
        <pt x="257" y="542" on="0"/>
        <pt x="312" y="542" on="1"/>
        <pt x="362" y="542" on="0"/>
        <pt x="446" y="506" on="0"/>
        <pt x="507" y="440" on="0"/>
        <pt x="542" y="344" on="0"/>
        <pt x="542" y="284" on="1"/>
        <pt x="542" y="215" on="0"/>
        <pt x="500" y="105" on="0"/>
        <pt x="428" y="29" on="0"/>
        <pt x="331" y="-12" on="0"/>
      </contour>
      <contour>
        <pt x="287" y="449" on="1"/>
        <pt x="227" y="449" on="0"/>
        <pt x="164" y="361" on="0"/>
        <pt x="164" y="275" on="1"/>
        <pt x="164" y="182" on="0"/>
        <pt x="241" y="81" on="0"/>
        <pt x="302" y="81" on="1"/>
        <pt x="362" y="81" on="0"/>
        <pt x="425" y="169" on="0"/>
        <pt x="425" y="255" on="1"/>
        <pt x="425" y="348" on="0"/>
        <pt x="348" y="449" on="0"/>
      </contour>
    </TTGlyph>
    <TTGlyph name="Omega" xMin="50" yMin="0" xMax="578" yMax="635">
      <contour>
        <pt x="273" y="6" on="1"/>
        <pt x="270" y="0" on="1"/>
        <pt x="50" y="0" on="1"/>
        <pt x="50" y="105" on="1"/>
        <pt x="150" y="105" on="1"/>
        <pt x="116" y="177" on="0"/>
        <pt x="78" y="320" on="0"/>
        <pt x="78" y="378" on="1"/>
        <pt x="78" y="440" on="0"/>
        <pt x="119" y="536" on="0"/>
        <pt x="187" y="601" on="0"/>
        <pt x="276" y="635" on="0"/>
        <pt x="324" y="635" on="1"/>
        <pt x="372" y="635" on="0"/>
        <pt x="455" y="601" on="0"/>
        <pt x="515" y="537" on="0"/>
        <pt x="550" y="444" on="0"/>
        <pt x="550" y="385" on="1"/>
        <pt x="550" y="322" on="0"/>
        <pt x="507" y="177" on="0"/>
        <pt x="473" y="105" on="1"/>
        <pt x="578" y="105" on="1"/>
        <pt x="578" y="0" on="1"/>
        <pt x="358" y="0" on="1"/>
        <pt x="355" y="6" on="1"/>
        <pt x="399" y="116" on="0"/>
        <pt x="443" y="300" on="0"/>
        <pt x="443" y="360" on="1"/>
        <pt x="443" y="443" on="0"/>
        <pt x="371" y="525" on="0"/>
        <pt x="314" y="525" on="1"/>
        <pt x="257" y="525" on="0"/>
        <pt x="185" y="443" on="0"/>
        <pt x="185" y="361" on="1"/>
        <pt x="185" y="300" on="0"/>
        <pt x="229" y="116" on="0"/>
      </contour>
    </TTGlyph>
    <TTGlyph name="Oslash" xMin="53" yMin="-40" xMax="593" yMax="660">
      <contour>
        <pt x="171" y="322" on="1"/>
        <pt x="171" y="285" on="0"/>
        <pt x="181" y="220" on="0"/>
        <pt x="191" y="194" on="1"/>
        <pt x="403" y="502" on="1"/>
        <pt x="384" y="518" on="0"/>
        <pt x="339" y="533" on="0"/>
        <pt x="314" y="533" on="1"/>
        <pt x="244" y="533" on="0"/>
        <pt x="171" y="426" on="0"/>
      </contour>
      <contour>
        <pt x="332" y="87" on="1"/>
        <pt x="402" y="87" on="0"/>
        <pt x="475" y="194" on="0"/>
        <pt x="475" y="298" on="1"/>
        <pt x="475" y="335" on="0"/>
        <pt x="465" y="400" on="0"/>
        <pt x="455" y="426" on="1"/>
        <pt x="243" y="118" on="1"/>
        <pt x="262" y="103" on="0"/>
        <pt x="307" y="87" on="0"/>
      </contour>
      <contour>
        <pt x="304" y="-14" on="1"/>
        <pt x="269" y="-14" on="0"/>
        <pt x="205" y="4" on="0"/>
        <pt x="177" y="21" on="1"/>
        <pt x="136" y="-40" on="1"/>
        <pt x="65" y="9" on="1"/>
        <pt x="113" y="80" on="1"/>
        <pt x="85" y="118" on="0"/>
        <pt x="53" y="224" on="0"/>
        <pt x="53" y="288" on="1"/>
        <pt x="53" y="369" on="0"/>
        <pt x="99" y="498" on="0"/>
        <pt x="176" y="587" on="0"/>
        <pt x="282" y="634" on="0"/>
        <pt x="342" y="634" on="1"/>
        <pt x="377" y="634" on="0"/>
        <pt x="441" y="616" on="0"/>
        <pt x="469" y="599" on="1"/>
        <pt x="510" y="660" on="1"/>
        <pt x="581" y="611" on="1"/>
        <pt x="533" y="540" on="1"/>
        <pt x="561" y="502" on="0"/>
        <pt x="593" y="396" on="0"/>
        <pt x="593" y="332" on="1"/>
        <pt x="593" y="251" on="0"/>
        <pt x="547" y="122" on="0"/>
        <pt x="470" y="34" on="0"/>
        <pt x="364" y="-14" on="0"/>
      </contour>
    </TTGlyph>
    <TTGlyph name="Oslash.sc" xMin="47" yMin="-39" xMax="542" yMax="572">
      <contour>
        <pt x="164" y="275" on="1"/>
        <pt x="164" y="248" on="0"/>
        <pt x="171" y="200" on="0"/>
        <pt x="177" y="181" on="1"/>
        <pt x="359" y="427" on="1"/>
        <pt x="343" y="437" on="0"/>
        <pt x="307" y="449" on="0"/>
        <pt x="287" y="449" on="1"/>
        <pt x="227" y="449" on="0"/>
        <pt x="164" y="361" on="0"/>
      </contour>
      <contour>
        <pt x="302" y="81" on="1"/>
        <pt x="362" y="81" on="0"/>
        <pt x="425" y="169" on="0"/>
        <pt x="425" y="255" on="1"/>
        <pt x="425" y="283" on="0"/>
        <pt x="417" y="333" on="0"/>
        <pt x="410" y="353" on="1"/>
        <pt x="228" y="105" on="1"/>
        <pt x="243" y="93" on="0"/>
        <pt x="281" y="81" on="0"/>
      </contour>
      <contour>
        <pt x="277" y="-12" on="1"/>
        <pt x="245" y="-12" on="0"/>
        <pt x="188" y="3" on="0"/>
        <pt x="163" y="16" on="1"/>
        <pt x="122" y="-39" on="1"/>
        <pt x="51" y="9" on="1"/>
        <pt x="98" y="73" on="1"/>
        <pt x="74" y="105" on="0"/>
        <pt x="47" y="193" on="0"/>
        <pt x="47" y="246" on="1"/>
        <pt x="47" y="315" on="0"/>
        <pt x="89" y="426" on="0"/>
        <pt x="160" y="502" on="0"/>
        <pt x="257" y="542" on="0"/>
        <pt x="312" y="542" on="1"/>
        <pt x="343" y="542" on="0"/>
        <pt x="399" y="528" on="0"/>
        <pt x="423" y="515" on="1"/>
        <pt x="465" y="572" on="1"/>
        <pt x="537" y="523" on="1"/>
        <pt x="489" y="459" on="1"/>
        <pt x="514" y="426" on="0"/>
        <pt x="542" y="338" on="0"/>
        <pt x="542" y="284" on="1"/>
        <pt x="542" y="215" on="0"/>
        <pt x="500" y="105" on="0"/>
        <pt x="428" y="29" on="0"/>
        <pt x="331" y="-12" on="0"/>
      </contour>
    </TTGlyph>
    <TTGlyph name="Oslashacute" xMin="53" yMin="-40" xMax="593" yMax="925">
      <contour>
        <pt x="207" y="749" on="1"/>
        <pt x="225" y="761" on="0"/>
        <pt x="275" y="803" on="0"/>
        <pt x="329" y="852" on="0"/>
        <pt x="380" y="903" on="0"/>
        <pt x="399" y="925" on="1"/>
        <pt x="487" y="835" on="1"/>
        <pt x="464" y="816" on="0"/>
        <pt x="398" y="774" on="0"/>
        <pt x="329" y="735" on="0"/>
        <pt x="262" y="703" on="0"/>
        <pt x="239" y="694" on="1"/>
      </contour>
      <contour>
        <pt x="171" y="322" on="1"/>
        <pt x="171" y="285" on="0"/>
        <pt x="181" y="220" on="0"/>
        <pt x="191" y="194" on="1"/>
        <pt x="403" y="502" on="1"/>
        <pt x="384" y="518" on="0"/>
        <pt x="339" y="533" on="0"/>
        <pt x="314" y="533" on="1"/>
        <pt x="244" y="533" on="0"/>
        <pt x="171" y="426" on="0"/>
      </contour>
      <contour>
        <pt x="332" y="87" on="1"/>
        <pt x="402" y="87" on="0"/>
        <pt x="475" y="194" on="0"/>
        <pt x="475" y="298" on="1"/>
        <pt x="475" y="335" on="0"/>
        <pt x="465" y="400" on="0"/>
        <pt x="455" y="426" on="1"/>
        <pt x="243" y="118" on="1"/>
        <pt x="262" y="103" on="0"/>
        <pt x="307" y="87" on="0"/>
      </contour>
      <contour>
        <pt x="304" y="-14" on="1"/>
        <pt x="269" y="-14" on="0"/>
        <pt x="205" y="4" on="0"/>
        <pt x="177" y="21" on="1"/>
        <pt x="136" y="-40" on="1"/>
        <pt x="65" y="9" on="1"/>
        <pt x="113" y="80" on="1"/>
        <pt x="85" y="118" on="0"/>
        <pt x="53" y="224" on="0"/>
        <pt x="53" y="288" on="1"/>
        <pt x="53" y="369" on="0"/>
        <pt x="99" y="498" on="0"/>
        <pt x="176" y="587" on="0"/>
        <pt x="282" y="634" on="0"/>
        <pt x="342" y="634" on="1"/>
        <pt x="377" y="634" on="0"/>
        <pt x="441" y="616" on="0"/>
        <pt x="469" y="599" on="1"/>
        <pt x="510" y="660" on="1"/>
        <pt x="581" y="611" on="1"/>
        <pt x="533" y="540" on="1"/>
        <pt x="561" y="502" on="0"/>
        <pt x="593" y="396" on="0"/>
        <pt x="593" y="332" on="1"/>
        <pt x="593" y="251" on="0"/>
        <pt x="547" y="122" on="0"/>
        <pt x="470" y="34" on="0"/>
        <pt x="364" y="-14" on="0"/>
      </contour>
    </TTGlyph>
    <TTGlyph name="Oslashacute.sc" xMin="47" yMin="-39" xMax="542" yMax="833">
      <contour>
        <pt x="179" y="657" on="1"/>
        <pt x="197" y="669" on="0"/>
        <pt x="247" y="711" on="0"/>
        <pt x="301" y="760" on="0"/>
        <pt x="352" y="811" on="0"/>
        <pt x="371" y="833" on="1"/>
        <pt x="459" y="743" on="1"/>
        <pt x="436" y="724" on="0"/>
        <pt x="370" y="682" on="0"/>
        <pt x="301" y="643" on="0"/>
        <pt x="234" y="611" on="0"/>
        <pt x="211" y="602" on="1"/>
      </contour>
      <contour>
        <pt x="164" y="275" on="1"/>
        <pt x="164" y="248" on="0"/>
        <pt x="171" y="200" on="0"/>
        <pt x="177" y="181" on="1"/>
        <pt x="359" y="427" on="1"/>
        <pt x="343" y="437" on="0"/>
        <pt x="307" y="449" on="0"/>
        <pt x="287" y="449" on="1"/>
        <pt x="227" y="449" on="0"/>
        <pt x="164" y="361" on="0"/>
      </contour>
      <contour>
        <pt x="302" y="81" on="1"/>
        <pt x="362" y="81" on="0"/>
        <pt x="425" y="169" on="0"/>
        <pt x="425" y="255" on="1"/>
        <pt x="425" y="283" on="0"/>
        <pt x="417" y="333" on="0"/>
        <pt x="410" y="353" on="1"/>
        <pt x="228" y="105" on="1"/>
        <pt x="243" y="93" on="0"/>
        <pt x="281" y="81" on="0"/>
      </contour>
      <contour>
        <pt x="277" y="-12" on="1"/>
        <pt x="245" y="-12" on="0"/>
        <pt x="188" y="3" on="0"/>
        <pt x="163" y="16" on="1"/>
        <pt x="122" y="-39" on="1"/>
        <pt x="51" y="9" on="1"/>
        <pt x="98" y="73" on="1"/>
        <pt x="74" y="105" on="0"/>
        <pt x="47" y="193" on="0"/>
        <pt x="47" y="246" on="1"/>
        <pt x="47" y="315" on="0"/>
        <pt x="89" y="426" on="0"/>
        <pt x="160" y="502" on="0"/>
        <pt x="257" y="542" on="0"/>
        <pt x="312" y="542" on="1"/>
        <pt x="343" y="542" on="0"/>
        <pt x="399" y="528" on="0"/>
        <pt x="423" y="515" on="1"/>
        <pt x="465" y="572" on="1"/>
        <pt x="537" y="523" on="1"/>
        <pt x="489" y="459" on="1"/>
        <pt x="514" y="426" on="0"/>
        <pt x="542" y="338" on="0"/>
        <pt x="542" y="284" on="1"/>
        <pt x="542" y="215" on="0"/>
        <pt x="500" y="105" on="0"/>
        <pt x="428" y="29" on="0"/>
        <pt x="331" y="-12" on="0"/>
      </contour>
    </TTGlyph>
    <TTGlyph name="Otilde" xMin="53" yMin="-14" xMax="593" yMax="880">
      <contour>
        <pt x="396" y="703" on="1"/>
        <pt x="374" y="703" on="0"/>
        <pt x="334" y="727" on="0"/>
        <pt x="300" y="756" on="0"/>
        <pt x="270" y="780" on="0"/>
        <pt x="259" y="780" on="1"/>
        <pt x="251" y="780" on="0"/>
        <pt x="222" y="751" on="0"/>
        <pt x="203" y="713" on="1"/>
        <pt x="145" y="747" on="1"/>
        <pt x="170" y="802" on="0"/>
        <pt x="241" y="880" on="0"/>
        <pt x="277" y="880" on="1"/>
        <pt x="299" y="880" on="0"/>
        <pt x="339" y="856" on="0"/>
        <pt x="373" y="827" on="0"/>
        <pt x="403" y="803" on="0"/>
        <pt x="414" y="803" on="1"/>
        <pt x="422" y="803" on="0"/>
        <pt x="451" y="832" on="0"/>
        <pt x="470" y="870" on="1"/>
        <pt x="528" y="836" on="1"/>
        <pt x="503" y="781" on="0"/>
        <pt x="432" y="703" on="0"/>
      </contour>
      <contour>
        <pt x="304" y="-14" on="1"/>
        <pt x="250" y="-14" on="0"/>
        <pt x="157" y="28" on="0"/>
        <pt x="91" y="106" on="0"/>
        <pt x="53" y="218" on="0"/>
        <pt x="53" y="288" on="1"/>
        <pt x="53" y="369" on="0"/>
        <pt x="99" y="498" on="0"/>
        <pt x="176" y="587" on="0"/>
        <pt x="282" y="634" on="0"/>
        <pt x="342" y="634" on="1"/>
        <pt x="396" y="634" on="0"/>
        <pt x="489" y="592" on="0"/>
        <pt x="555" y="514" on="0"/>
        <pt x="593" y="402" on="0"/>
        <pt x="593" y="332" on="1"/>
        <pt x="593" y="251" on="0"/>
        <pt x="547" y="122" on="0"/>
        <pt x="470" y="34" on="0"/>
        <pt x="364" y="-14" on="0"/>
      </contour>
      <contour>
        <pt x="314" y="533" on="1"/>
        <pt x="244" y="533" on="0"/>
        <pt x="171" y="426" on="0"/>
        <pt x="171" y="322" on="1"/>
        <pt x="171" y="209" on="0"/>
        <pt x="260" y="87" on="0"/>
        <pt x="332" y="87" on="1"/>
        <pt x="402" y="87" on="0"/>
        <pt x="475" y="194" on="0"/>
        <pt x="475" y="298" on="1"/>
        <pt x="475" y="411" on="0"/>
        <pt x="386" y="533" on="0"/>
      </contour>
    </TTGlyph>
    <TTGlyph name="Otilde.sc" xMin="47" yMin="-12" xMax="542" yMax="788">
      <contour>
        <pt x="367" y="611" on="1"/>
        <pt x="345" y="611" on="0"/>
        <pt x="305" y="635" on="0"/>
        <pt x="271" y="664" on="0"/>
        <pt x="241" y="688" on="0"/>
        <pt x="230" y="688" on="1"/>
        <pt x="222" y="688" on="0"/>
        <pt x="193" y="659" on="0"/>
        <pt x="174" y="621" on="1"/>
        <pt x="116" y="655" on="1"/>
        <pt x="141" y="710" on="0"/>
        <pt x="212" y="788" on="0"/>
        <pt x="248" y="788" on="1"/>
        <pt x="270" y="788" on="0"/>
        <pt x="310" y="764" on="0"/>
        <pt x="344" y="735" on="0"/>
        <pt x="374" y="711" on="0"/>
        <pt x="385" y="711" on="1"/>
        <pt x="393" y="711" on="0"/>
        <pt x="422" y="740" on="0"/>
        <pt x="441" y="778" on="1"/>
        <pt x="499" y="744" on="1"/>
        <pt x="474" y="689" on="0"/>
        <pt x="403" y="611" on="0"/>
      </contour>
      <contour>
        <pt x="277" y="-12" on="1"/>
        <pt x="227" y="-12" on="0"/>
        <pt x="142" y="24" on="0"/>
        <pt x="81" y="90" on="0"/>
        <pt x="47" y="186" on="0"/>
        <pt x="47" y="246" on="1"/>
        <pt x="47" y="315" on="0"/>
        <pt x="89" y="426" on="0"/>
        <pt x="160" y="502" on="0"/>
        <pt x="257" y="542" on="0"/>
        <pt x="312" y="542" on="1"/>
        <pt x="362" y="542" on="0"/>
        <pt x="446" y="506" on="0"/>
        <pt x="507" y="440" on="0"/>
        <pt x="542" y="344" on="0"/>
        <pt x="542" y="284" on="1"/>
        <pt x="542" y="215" on="0"/>
        <pt x="500" y="105" on="0"/>
        <pt x="428" y="29" on="0"/>
        <pt x="331" y="-12" on="0"/>
      </contour>
      <contour>
        <pt x="287" y="449" on="1"/>
        <pt x="227" y="449" on="0"/>
        <pt x="164" y="361" on="0"/>
        <pt x="164" y="275" on="1"/>
        <pt x="164" y="182" on="0"/>
        <pt x="241" y="81" on="0"/>
        <pt x="302" y="81" on="1"/>
        <pt x="362" y="81" on="0"/>
        <pt x="425" y="169" on="0"/>
        <pt x="425" y="255" on="1"/>
        <pt x="425" y="348" on="0"/>
        <pt x="348" y="449" on="0"/>
      </contour>
    </TTGlyph>
    <TTGlyph name="P" xMin="88" yMin="0" xMax="521" yMax="630">
      <contour>
        <pt x="205" y="0" on="1"/>
        <pt x="88" y="0" on="1"/>
        <pt x="88" y="620" on="1"/>
        <pt x="125" y="624" on="0"/>
        <pt x="192" y="630" on="0"/>
        <pt x="223" y="630" on="1"/>
        <pt x="369" y="630" on="0"/>
        <pt x="521" y="525" on="0"/>
        <pt x="521" y="427" on="1"/>
        <pt x="521" y="369" on="0"/>
        <pt x="473" y="283" on="0"/>
        <pt x="389" y="224" on="0"/>
        <pt x="273" y="188" on="0"/>
        <pt x="205" y="181" on="1"/>
      </contour>
      <contour>
        <pt x="272" y="284" on="1"/>
        <pt x="338" y="284" on="0"/>
        <pt x="403" y="339" on="0"/>
        <pt x="403" y="400" on="1"/>
        <pt x="403" y="463" on="0"/>
        <pt x="324" y="527" on="0"/>
        <pt x="243" y="527" on="1"/>
        <pt x="234" y="527" on="0"/>
        <pt x="215" y="526" on="0"/>
        <pt x="205" y="525" on="1"/>
        <pt x="205" y="289" on="1"/>
        <pt x="224" y="287" on="0"/>
        <pt x="257" y="284" on="0"/>
      </contour>
    </TTGlyph>
    <TTGlyph name="P.sc" xMin="79" yMin="0" xMax="479" yMax="538">
      <contour>
        <pt x="195" y="0" on="1"/>
        <pt x="79" y="0" on="1"/>
        <pt x="79" y="530" on="1"/>
        <pt x="113" y="534" on="0"/>
        <pt x="177" y="538" on="0"/>
        <pt x="206" y="538" on="1"/>
        <pt x="340" y="538" on="0"/>
        <pt x="479" y="448" on="0"/>
        <pt x="479" y="364" on="1"/>
        <pt x="479" y="315" on="0"/>
        <pt x="436" y="241" on="0"/>
        <pt x="360" y="189" on="0"/>
        <pt x="256" y="158" on="0"/>
        <pt x="195" y="152" on="1"/>
      </contour>
      <contour>
        <pt x="253" y="244" on="1"/>
        <pt x="309" y="244" on="0"/>
        <pt x="362" y="289" on="0"/>
        <pt x="362" y="340" on="1"/>
        <pt x="362" y="391" on="0"/>
        <pt x="294" y="445" on="0"/>
        <pt x="225" y="445" on="1"/>
        <pt x="218" y="445" on="0"/>
        <pt x="203" y="445" on="0"/>
        <pt x="195" y="444" on="1"/>
        <pt x="195" y="248" on="1"/>
        <pt x="211" y="247" on="0"/>
        <pt x="240" y="244" on="0"/>
      </contour>
    </TTGlyph>
    <TTGlyph name="Q" xMin="53" yMin="-154" xMax="593" yMax="634">
      <contour>
        <pt x="512" y="-154" on="1"/>
        <pt x="253" y="-77" on="1"/>
        <pt x="279" y="-13" on="1"/>
        <pt x="180" y="-3" on="0"/>
        <pt x="53" y="157" on="0"/>
        <pt x="53" y="288" on="1"/>
        <pt x="53" y="369" on="0"/>
        <pt x="99" y="498" on="0"/>
        <pt x="176" y="587" on="0"/>
        <pt x="282" y="634" on="0"/>
        <pt x="342" y="634" on="1"/>
        <pt x="396" y="634" on="0"/>
        <pt x="489" y="592" on="0"/>
        <pt x="555" y="514" on="0"/>
        <pt x="593" y="402" on="0"/>
        <pt x="593" y="332" on="1"/>
        <pt x="593" y="204" on="0"/>
        <pt x="483" y="34" on="0"/>
        <pt x="399" y="3" on="1"/>
        <pt x="398" y="-3" on="1"/>
        <pt x="552" y="-45" on="1"/>
      </contour>
      <contour>
        <pt x="314" y="533" on="1"/>
        <pt x="244" y="533" on="0"/>
        <pt x="171" y="426" on="0"/>
        <pt x="171" y="322" on="1"/>
        <pt x="171" y="209" on="0"/>
        <pt x="260" y="87" on="0"/>
        <pt x="332" y="87" on="1"/>
        <pt x="402" y="87" on="0"/>
        <pt x="475" y="194" on="0"/>
        <pt x="475" y="298" on="1"/>
        <pt x="475" y="411" on="0"/>
        <pt x="386" y="533" on="0"/>
      </contour>
    </TTGlyph>
    <TTGlyph name="Q.sc" xMin="47" yMin="-148" xMax="542" yMax="542">
      <contour>
        <pt x="469" y="-148" on="1"/>
        <pt x="229" y="-77" on="1"/>
        <pt x="255" y="-11" on="1"/>
        <pt x="164" y="-4" on="0"/>
        <pt x="47" y="133" on="0"/>
        <pt x="47" y="246" on="1"/>
        <pt x="47" y="315" on="0"/>
        <pt x="89" y="426" on="0"/>
        <pt x="160" y="502" on="0"/>
        <pt x="257" y="542" on="0"/>
        <pt x="312" y="542" on="1"/>
        <pt x="362" y="542" on="0"/>
        <pt x="446" y="506" on="0"/>
        <pt x="507" y="440" on="0"/>
        <pt x="542" y="344" on="0"/>
        <pt x="542" y="284" on="1"/>
        <pt x="542" y="174" on="0"/>
        <pt x="440" y="27" on="0"/>
        <pt x="362" y="2" on="1"/>
        <pt x="361" y="-5" on="1"/>
        <pt x="507" y="-44" on="1"/>
      </contour>
      <contour>
        <pt x="287" y="449" on="1"/>
        <pt x="227" y="449" on="0"/>
        <pt x="164" y="361" on="0"/>
        <pt x="164" y="275" on="1"/>
        <pt x="164" y="182" on="0"/>
        <pt x="241" y="81" on="0"/>
        <pt x="302" y="81" on="1"/>
        <pt x="362" y="81" on="0"/>
        <pt x="425" y="169" on="0"/>
        <pt x="425" y="255" on="1"/>
        <pt x="425" y="348" on="0"/>
        <pt x="348" y="449" on="0"/>
      </contour>
    </TTGlyph>
    <TTGlyph name="R" xMin="88" yMin="-10" xMax="567" yMax="629">
      <contour>
        <pt x="440" y="-10" on="1"/>
        <pt x="305" y="211" on="1"/>
        <pt x="205" y="208" on="1"/>
        <pt x="205" y="0" on="1"/>
        <pt x="88" y="0" on="1"/>
        <pt x="88" y="620" on="1"/>
        <pt x="126" y="624" on="0"/>
        <pt x="195" y="629" on="0"/>
        <pt x="226" y="629" on="1"/>
        <pt x="382" y="629" on="0"/>
        <pt x="513" y="527" on="0"/>
        <pt x="513" y="446" on="1"/>
        <pt x="513" y="386" on="0"/>
        <pt x="451" y="301" on="0"/>
        <pt x="405" y="270" on="1"/>
        <pt x="567" y="10" on="1"/>
      </contour>
      <contour>
        <pt x="205" y="525" on="1"/>
        <pt x="205" y="298" on="1"/>
        <pt x="324" y="301" on="1"/>
        <pt x="358" y="322" on="0"/>
        <pt x="395" y="383" on="0"/>
        <pt x="395" y="419" on="1"/>
        <pt x="395" y="472" on="0"/>
        <pt x="322" y="527" on="0"/>
        <pt x="247" y="527" on="1"/>
        <pt x="237" y="527" on="0"/>
        <pt x="216" y="526" on="0"/>
      </contour>
    </TTGlyph>
    <TTGlyph name="R.sc" xMin="79" yMin="-8" xMax="520" yMax="537">
      <contour>
        <pt x="394" y="-8" on="1"/>
        <pt x="277" y="177" on="1"/>
        <pt x="195" y="175" on="1"/>
        <pt x="195" y="0" on="1"/>
        <pt x="79" y="0" on="1"/>
        <pt x="79" y="530" on="1"/>
        <pt x="114" y="534" on="0"/>
        <pt x="178" y="537" on="0"/>
        <pt x="206" y="537" on="1"/>
        <pt x="352" y="537" on="0"/>
        <pt x="472" y="450" on="0"/>
        <pt x="472" y="381" on="1"/>
        <pt x="472" y="330" on="0"/>
        <pt x="417" y="258" on="0"/>
        <pt x="374" y="232" on="1"/>
        <pt x="520" y="8" on="1"/>
      </contour>
      <contour>
        <pt x="195" y="443" on="1"/>
        <pt x="195" y="256" on="1"/>
        <pt x="295" y="258" on="1"/>
        <pt x="324" y="276" on="0"/>
        <pt x="355" y="326" on="0"/>
        <pt x="355" y="356" on="1"/>
        <pt x="355" y="400" on="0"/>
        <pt x="295" y="445" on="0"/>
        <pt x="232" y="445" on="1"/>
        <pt x="223" y="445" on="0"/>
        <pt x="205" y="444" on="0"/>
      </contour>
    </TTGlyph>
    <TTGlyph name="R_p" xMin="85" yMin="-175" xMax="897" yMax="629">
      <contour>
        <pt x="364" y="-10" on="1"/>
        <pt x="269" y="211" on="1"/>
        <pt x="202" y="208" on="1"/>
        <pt x="202" y="0" on="1"/>
        <pt x="85" y="0" on="1"/>
        <pt x="85" y="620" on="1"/>
        <pt x="119" y="624" on="0"/>
        <pt x="182" y="629" on="0"/>
        <pt x="209" y="629" on="1"/>
        <pt x="349" y="629" on="0"/>
        <pt x="460" y="527" on="0"/>
        <pt x="460" y="446" on="1"/>
        <pt x="460" y="386" on="0"/>
        <pt x="406" y="302" on="0"/>
        <pt x="366" y="271" on="1"/>
        <pt x="484" y="10" on="1"/>
      </contour>
      <contour>
        <pt x="202" y="525" on="1"/>
        <pt x="202" y="298" on="1"/>
        <pt x="289" y="300" on="1"/>
        <pt x="314" y="321" on="0"/>
        <pt x="342" y="383" on="0"/>
        <pt x="342" y="419" on="1"/>
        <pt x="342" y="472" on="0"/>
        <pt x="292" y="527" on="0"/>
        <pt x="235" y="527" on="1"/>
        <pt x="228" y="527" on="0"/>
        <pt x="211" y="526" on="0"/>
      </contour>
      <contour>
        <pt x="525" y="-175" on="1"/>
        <pt x="525" y="0" on="1"/>
        <pt x="525" y="105" on="0"/>
        <pt x="524" y="260" on="0"/>
        <pt x="522" y="375" on="0"/>
        <pt x="519" y="461" on="0"/>
        <pt x="516" y="496" on="1"/>
        <pt x="620" y="503" on="1"/>
        <pt x="626" y="463" on="1"/>
        <pt x="648" y="485" on="0"/>
        <pt x="704" y="514" on="0"/>
        <pt x="739" y="514" on="1"/>
        <pt x="809" y="514" on="0"/>
        <pt x="897" y="385" on="0"/>
        <pt x="897" y="278" on="1"/>
        <pt x="897" y="210" on="0"/>
        <pt x="859" y="103" on="0"/>
        <pt x="791" y="29" on="0"/>
        <pt x="696" y="-12" on="0"/>
        <pt x="639" y="-14" on="1"/>
        <pt x="639" y="-165" on="1"/>
      </contour>
      <contour>
        <pt x="694" y="89" on="1"/>
        <pt x="738" y="89" on="0"/>
        <pt x="785" y="165" on="0"/>
        <pt x="785" y="242" on="1"/>
        <pt x="785" y="332" on="0"/>
        <pt x="735" y="419" on="0"/>
        <pt x="694" y="419" on="1"/>
        <pt x="679" y="419" on="0"/>
        <pt x="650" y="407" on="0"/>
        <pt x="635" y="396" on="1"/>
        <pt x="636" y="345" on="0"/>
        <pt x="638" y="207" on="0"/>
        <pt x="639" y="98" on="1"/>
        <pt x="653" y="94" on="0"/>
        <pt x="681" y="89" on="0"/>
      </contour>
    </TTGlyph>
</ttFont>
